<?xml version="1.0" encoding="utf-8"?>
<!-- Generator: Adobe Illustrator 19.1.1, SVG Export Plug-In . SVG Version: 6.00 Build 0)  -->
<svg version="1.1" id="Layer_1" xmlns="http://www.w3.org/2000/svg" xmlns:xlink="http://www.w3.org/1999/xlink" x="0px" y="0px"
	 viewBox="0 0 1200 1200" enable-background="new 0 0 1200 1200" xml:space="preserve">
<g>
	<g>
		<path fill="#2E4C59" d="M809.122,646.852V382.574V118.296c0-14.389-5.833-27.417-15.262-36.847
			c-9.43-9.43-22.457-15.262-36.847-15.262H471.701H186.389c-14.389,0-27.417,5.833-36.846,15.262s-15.262,22.457-15.262,36.847
			v264.278v264.278h337.421H809.122z"/>
		<path fill="#2E4C59" d="M809.122,663.037H471.7H134.279c-4.47,0-8.516-1.811-11.445-4.74c-2.929-2.929-4.74-6.975-4.74-11.445
			V382.574V118.296c0-18.828,7.66-35.902,20.027-48.269S167.561,50,186.389,50H471.7h285.311c18.83,0,35.904,7.66,48.27,20.027
			c12.366,12.367,20.025,29.441,20.025,48.269v264.278v264.278c0,4.47-1.811,8.516-4.74,11.445
			C817.638,661.226,813.592,663.037,809.122,663.037z M150.465,630.666H471.7h321.236V374.481V118.296
			c0-9.904-4.029-18.885-10.534-25.39s-15.486-10.534-25.39-10.534H471.7H186.389c-9.904,0-18.885,4.029-25.39,10.534
			c-6.505,6.505-10.534,15.486-10.534,25.39v256.185V630.666z"/>
	</g>
	<g>
		<g>
			<g>
				<path fill="#FFFFFF" d="M214.759,306.557v293.879v293.879c0,8.37,7.046,15.947,18.437,21.432
					c11.391,5.485,27.128,8.878,44.51,8.878c17.382,0,33.119-3.393,44.51-8.878c11.391-5.485,18.437-13.062,18.437-21.432V600.436
					V306.557h-62.947H214.759z"/>
				<path fill="#2E4C59" d="M277.705,940.81c-22.927,0-42.71-4.889-56.762-13.145c-14.051-8.256-22.371-19.88-22.371-33.35V600.436
					V306.558c0-4.47,1.811-8.516,4.74-11.445c2.929-2.929,6.975-4.74,11.445-4.74h62.947h62.947c4.47,0,8.516,1.811,11.445,4.74
					c2.929,2.929,4.74,6.975,4.74,11.445v293.878v293.878c0,13.47-8.32,25.094-22.371,33.35S300.632,940.81,277.705,940.81z
					 M230.944,322.744v285.785v285.785c0.601,1.843,4.965,5.374,12.842,8.445s19.267,5.68,33.919,5.68
					c14.652,0,26.042-2.61,33.923-5.715c7.881-3.106,12.253-6.707,12.869-8.691l-0.016-285.645l-0.016-285.645h-46.761H230.944z"/>
			</g>
			<g>
				<path fill="#D6BF9F" d="M214.759,167.038v93.342v93.342c0,8.37,7.046,15.947,18.437,21.432
					c11.391,5.485,27.128,8.878,44.51,8.878c17.382,0,33.119-3.393,44.51-8.878c11.391-5.485,18.437-13.063,18.437-21.432V260.38
					v-93.342h-62.947H214.759z"/>
				<path fill="#2E4C59" d="M277.705,400.217c-22.927,0-42.71-4.889-56.762-13.145c-14.051-8.256-22.371-19.88-22.371-33.35V260.38
					v-93.341c0-4.47,1.811-8.516,4.74-11.445c2.929-2.929,6.975-4.74,11.445-4.74h62.947h62.947c4.47,0,8.516,1.811,11.445,4.74
					c2.929,2.929,4.74,6.975,4.74,11.445v93.341v93.341c0,13.47-8.32,25.094-22.371,33.35S300.632,400.217,277.705,400.217z
					 M230.944,183.225v85.248v85.248c0.599,1.845,4.962,5.376,12.839,8.446c7.877,3.07,19.268,5.679,33.922,5.679
					c14.654,0,26.045-2.609,33.926-5.714s12.252-6.705,12.867-8.689l-0.014-85.109l-0.014-85.109h-46.763H230.944z"/>
			</g>
			<g>
				<path fill="#A79372" d="M340.653,167.038c0,8.37-7.046,15.947-18.437,21.433s-27.128,8.878-44.51,8.878
					c-17.382,0-33.119-3.393-44.51-8.878c-11.391-5.485-18.437-13.063-18.437-21.433s7.046-15.947,18.437-21.433
					c11.391-5.485,27.128-8.878,44.51-8.878c17.382,0,33.119,3.393,44.51,8.878C333.607,151.091,340.653,158.668,340.653,167.038z"
					/>
				<path fill="#2E4C59" d="M277.705,213.535c-22.927,0-42.71-4.889-56.762-13.145c-14.051-8.256-22.371-19.88-22.371-33.35
					s8.32-25.094,22.371-33.35c14.051-8.256,33.835-13.145,56.762-13.145c22.927,0,42.71,4.889,56.762,13.145
					s22.371,19.88,22.371,33.35s-8.32,25.094-22.371,33.35S300.632,213.535,277.705,213.535z M277.705,152.915
					c-14.654,0-26.045,2.609-33.926,5.714s-12.252,6.705-12.867,8.689c0.616,1.704,4.988,5.165,12.869,8.201
					s19.271,5.645,33.923,5.645c14.32,0,25.525-2.493,33.383-5.505s12.37-6.543,13.306-8.62c-0.934-2.077-5.445-5.608-13.303-8.62
					S292.027,152.915,277.705,152.915z"/>
			</g>
		</g>
		<g>
			<g>
				<path fill="#FFFFFF" d="M344.089,306.557v293.879v293.879c0,8.37,7.046,15.947,18.437,21.432
					c11.391,5.485,27.128,8.878,44.51,8.878c17.382,0,33.119-3.393,44.51-8.878c11.391-5.485,18.437-13.062,18.437-21.432V600.436
					V306.557h-62.947H344.089z"/>
				<path fill="#2E4C59" d="M407.035,940.81c-22.927,0-42.71-4.889-56.762-13.145s-22.371-19.88-22.371-33.35V600.436V306.558
					c0-4.47,1.811-8.516,4.74-11.445s6.975-4.74,11.445-4.74h62.947h62.947c4.47,0,8.516,1.811,11.445,4.74
					c2.929,2.929,4.74,6.975,4.74,11.445v293.878v293.878c0,13.47-8.32,25.094-22.371,33.35S429.962,940.81,407.035,940.81z
					 M360.274,322.744v285.785v285.785c0.601,1.843,4.965,5.374,12.842,8.445c7.877,3.07,19.267,5.68,33.919,5.68
					c14.652,0,26.042-2.61,33.923-5.715s12.253-6.707,12.869-8.691l-0.016-285.645l-0.016-285.645h-46.761H360.274z"/>
			</g>
			<g>
				<path fill="#D6BF9F" d="M344.089,167.038v93.342v93.342c0,8.37,7.046,15.947,18.437,21.432
					c11.391,5.485,27.128,8.878,44.51,8.878c17.382,0,33.119-3.393,44.51-8.878c11.391-5.485,18.437-13.063,18.437-21.432V260.38
					v-93.342h-62.947H344.089z"/>
				<path fill="#2E4C59" d="M407.035,400.217c-22.927,0-42.71-4.889-56.762-13.145s-22.371-19.88-22.371-33.35V260.38v-93.341
					c0-4.47,1.811-8.516,4.74-11.445s6.975-4.74,11.445-4.74h62.947h62.947c4.47,0,8.516,1.811,11.445,4.74
					c2.929,2.929,4.74,6.975,4.74,11.445v93.341v93.341c0,13.47-8.32,25.094-22.371,33.35S429.962,400.217,407.035,400.217z
					 M360.274,183.225v85.248v85.248c0.599,1.845,4.962,5.376,12.839,8.446c7.877,3.07,19.268,5.679,33.922,5.679
					s26.045-2.609,33.926-5.714s12.252-6.705,12.867-8.689l-0.014-85.109l-0.014-85.109h-46.763H360.274z"/>
			</g>
			<g>
				<path fill="#A79372" d="M469.983,167.038c0,8.37-7.046,15.947-18.437,21.433s-27.128,8.878-44.51,8.878
					c-17.382,0-33.119-3.393-44.51-8.878s-18.437-13.063-18.437-21.433s7.046-15.947,18.437-21.433
					c11.391-5.485,27.128-8.878,44.51-8.878c17.382,0,33.119,3.393,44.51,8.878C462.937,151.091,469.983,158.668,469.983,167.038z"
					/>
				<path fill="#2E4C59" d="M407.035,213.535c-22.927,0-42.71-4.889-56.762-13.145s-22.371-19.88-22.371-33.35
					s8.32-25.094,22.371-33.35s33.835-13.145,56.762-13.145s42.71,4.889,56.762,13.145s22.371,19.88,22.371,33.35
					s-8.32,25.094-22.371,33.35S429.962,213.535,407.035,213.535z M407.035,152.915c-14.654,0-26.045,2.609-33.926,5.714
					s-12.252,6.705-12.867,8.689c0.616,1.704,4.988,5.165,12.869,8.201s19.271,5.645,33.923,5.645
					c14.32,0,25.525-2.493,33.383-5.505s12.37-6.543,13.306-8.62c-0.934-2.077-5.445-5.608-13.303-8.62
					S421.357,152.915,407.035,152.915z"/>
			</g>
		</g>
		<g>
			<g>
				<path fill="#FFFFFF" d="M473.419,306.557v293.879v293.879c0,8.37,7.046,15.947,18.437,21.432
					c11.391,5.485,27.128,8.878,44.51,8.878c17.382,0,33.119-3.393,44.51-8.878c11.391-5.485,18.437-13.062,18.437-21.432V600.436
					V306.557h-62.947H473.419z"/>
				<path fill="#2E4C59" d="M536.365,940.81c-22.927,0-42.71-4.889-56.762-13.145s-22.371-19.88-22.371-33.35V600.436V306.558
					c0-4.47,1.811-8.516,4.74-11.445c2.929-2.929,6.975-4.74,11.445-4.74h62.947h62.947c4.47,0,8.516,1.811,11.445,4.74
					s4.74,6.975,4.74,11.445v293.878v293.878c0,13.47-8.32,25.094-22.371,33.35S559.292,940.81,536.365,940.81z M489.604,322.744
					v285.785v285.785c0.601,1.843,4.965,5.374,12.842,8.445c7.877,3.07,19.267,5.68,33.919,5.68c14.652,0,26.042-2.61,33.923-5.715
					c7.881-3.106,12.253-6.707,12.869-8.691l-0.016-285.645l-0.016-285.645h-46.761H489.604z"/>
			</g>
			<g>
				<path fill="#D6BF9F" d="M473.419,167.038v93.342v93.342c0,8.37,7.046,15.947,18.437,21.432
					c11.391,5.485,27.128,8.878,44.51,8.878c17.382,0,33.119-3.393,44.51-8.878c11.391-5.485,18.437-13.063,18.437-21.432V260.38
					v-93.342h-62.947H473.419z"/>
				<path fill="#2E4C59" d="M536.365,400.217c-22.927,0-42.71-4.889-56.762-13.145s-22.371-19.88-22.371-33.35V260.38v-93.341
					c0-4.47,1.811-8.516,4.74-11.445c2.929-2.929,6.975-4.74,11.445-4.74h62.947h62.947c4.47,0,8.516,1.811,11.445,4.74
					s4.74,6.975,4.74,11.445v93.341v93.341c0,13.47-8.32,25.094-22.371,33.35S559.292,400.217,536.365,400.217z M489.604,183.225
					v85.248v85.248c0.599,1.845,4.962,5.376,12.839,8.446c7.877,3.07,19.268,5.679,33.922,5.679c14.654,0,26.045-2.609,33.926-5.714
					c7.881-3.105,12.252-6.705,12.867-8.689l-0.014-85.109l-0.014-85.109h-46.763H489.604z"/>
			</g>
			<g>
				<path fill="#A79372" d="M599.313,167.038c0,8.37-7.046,15.947-18.437,21.433s-27.128,8.878-44.51,8.878
					c-17.382,0-33.119-3.393-44.51-8.878s-18.437-13.063-18.437-21.433s7.046-15.947,18.437-21.433
					c11.391-5.485,27.128-8.878,44.51-8.878c17.382,0,33.119,3.393,44.51,8.878C592.267,151.091,599.313,158.668,599.313,167.038z"
					/>
				<path fill="#2E4C59" d="M536.365,213.535c-22.927,0-42.71-4.889-56.762-13.145s-22.371-19.88-22.371-33.35
					s8.32-25.094,22.371-33.35s33.835-13.145,56.762-13.145s42.71,4.889,56.762,13.145s22.371,19.88,22.371,33.35
					s-8.32,25.094-22.371,33.35S559.292,213.535,536.365,213.535z M536.365,152.915c-14.654,0-26.045,2.609-33.926,5.714
					s-12.252,6.705-12.867,8.689c0.616,1.704,4.988,5.165,12.869,8.201s19.271,5.645,33.923,5.645
					c14.32,0,25.525-2.493,33.383-5.505s12.37-6.543,13.306-8.62c-0.934-2.077-5.445-5.608-13.303-8.62
					S550.688,152.915,536.365,152.915z"/>
			</g>
		</g>
		<g>
			<g>
				<path fill="#FFFFFF" d="M602.749,306.557v293.879v293.879c0,8.37,7.046,15.947,18.437,21.432
					c11.391,5.485,27.128,8.878,44.51,8.878c17.382,0,33.119-3.393,44.51-8.878c11.391-5.485,18.437-13.062,18.437-21.432V600.436
					V306.557h-62.947H602.749z"/>
				<path fill="#2E4C59" d="M665.696,940.81c-22.927,0-42.71-4.889-56.762-13.145s-22.371-19.88-22.371-33.35V600.436V306.558
					c0-4.47,1.811-8.516,4.74-11.445s6.975-4.74,11.445-4.74h62.947h62.947c4.47,0,8.516,1.811,11.445,4.74s4.74,6.975,4.74,11.445
					v293.878v293.878c0,13.47-8.32,25.094-22.371,33.35S688.623,940.81,665.696,940.81z M618.934,322.744v285.785v285.785
					c0.601,1.843,4.965,5.374,12.842,8.445c7.877,3.07,19.267,5.68,33.919,5.68c14.652,0,26.042-2.61,33.923-5.715
					c7.881-3.106,12.253-6.707,12.869-8.691l-0.016-285.645l-0.016-285.645h-46.761H618.934z"/>
			</g>
			<g>
				<path fill="#D6BF9F" d="M602.749,167.038v93.342v93.342c0,8.37,7.046,15.947,18.437,21.432
					c11.391,5.485,27.128,8.878,44.51,8.878c17.382,0,33.119-3.393,44.51-8.878c11.391-5.485,18.437-13.063,18.437-21.432V260.38
					v-93.342h-62.947H602.749z"/>
				<path fill="#2E4C59" d="M665.696,400.217c-22.927,0-42.71-4.889-56.762-13.145s-22.371-19.88-22.371-33.35V260.38v-93.341
					c0-4.47,1.811-8.516,4.74-11.445s6.975-4.74,11.445-4.74h62.947h62.947c4.47,0,8.516,1.811,11.445,4.74s4.74,6.975,4.74,11.445
					v93.341v93.341c0,13.47-8.32,25.094-22.371,33.35S688.623,400.217,665.696,400.217z M618.934,183.225v85.248v85.248
					c0.599,1.845,4.962,5.376,12.839,8.446c7.877,3.07,19.268,5.679,33.922,5.679s26.045-2.609,33.926-5.714
					c7.881-3.105,12.252-6.705,12.867-8.689l-0.014-85.109l-0.014-85.109h-46.763H618.934z"/>
			</g>
			<g>
				<path fill="#A79372" d="M728.643,167.038c0,8.37-7.046,15.947-18.437,21.433s-27.128,8.878-44.51,8.878
					s-33.119-3.393-44.51-8.878s-18.437-13.063-18.437-21.433s7.046-15.947,18.437-21.433c11.391-5.485,27.128-8.878,44.51-8.878
					s33.119,3.393,44.51,8.878C721.597,151.091,728.643,158.668,728.643,167.038z"/>
				<path fill="#2E4C59" d="M665.696,213.535c-22.927,0-42.71-4.889-56.762-13.145s-22.371-19.88-22.371-33.35
					s8.32-25.094,22.371-33.35s33.835-13.145,56.762-13.145s42.71,4.889,56.762,13.145s22.371,19.88,22.371,33.35
					s-8.32,25.094-22.371,33.35S688.623,213.535,665.696,213.535z M665.696,152.915c-14.654,0-26.045,2.609-33.926,5.714
					c-7.881,3.105-12.252,6.705-12.867,8.689c0.616,1.704,4.988,5.165,12.87,8.201c7.881,3.036,19.271,5.645,33.923,5.645
					c14.32,0,25.525-2.493,33.383-5.505s12.37-6.543,13.306-8.62c-0.934-2.077-5.445-5.608-13.303-8.62
					S680.018,152.915,665.696,152.915z"/>
			</g>
		</g>
	</g>
	<g>
		<g>
			<path fill="#FFFFFF" d="M1065.72,826.064V532.185V238.307c0-8.37-7.046-15.947-18.437-21.432
				c-11.391-5.485-27.128-8.878-44.51-8.878c-17.382,0-33.119,3.393-44.51,8.878c-11.391,5.485-18.437,13.062-18.437,21.432v293.879
				v293.879h62.947H1065.72z"/>
			<path fill="#2E4C59" d="M1065.721,842.249h-62.947h-62.947c-4.47,0-8.516-1.811-11.445-4.74c-2.929-2.929-4.74-6.975-4.74-11.445
				V532.185V238.307c0-13.47,8.32-25.094,22.371-33.35s33.835-13.145,56.762-13.145c22.927,0,42.71,4.889,56.762,13.145
				s22.371,19.88,22.371,33.35v293.878v293.878c0,4.47-1.811,8.516-4.74,11.445C1074.237,840.437,1070.191,842.249,1065.721,842.249
				z M956.013,809.877h46.761h46.761V524.092V238.307c-0.601-1.843-4.965-5.374-12.842-8.445s-19.267-5.68-33.919-5.68
				s-26.042,2.61-33.923,5.715c-7.881,3.106-12.253,6.707-12.87,8.691l0.016,285.645L956.013,809.877z"/>
		</g>
		<g>
			<path fill="#D6BF9F" d="M1065.72,965.583v-93.342V778.9c0-8.37-7.046-15.947-18.437-21.432s-27.128-8.878-44.51-8.878
				c-17.382,0-33.119,3.393-44.51,8.878s-18.437,13.063-18.437,21.432v93.342v93.342h62.947H1065.72z"/>
			<path fill="#2E4C59" d="M1065.721,981.767h-62.947h-62.947c-4.47,0-8.516-1.811-11.445-4.74c-2.929-2.929-4.74-6.975-4.74-11.445
				v-93.341V778.9c0-13.47,8.32-25.094,22.371-33.35s33.835-13.145,56.762-13.145c22.927,0,42.71,4.889,56.762,13.145
				s22.371,19.88,22.371,33.35v93.341v93.341c0,4.47-1.811,8.516-4.74,11.445C1074.237,979.956,1070.191,981.767,1065.721,981.767z
				 M956.01,949.396h46.763h46.763v-85.248V778.9c-0.601-1.843-4.965-5.374-12.842-8.445s-19.267-5.68-33.919-5.68
				s-26.042,2.61-33.923,5.715c-7.881,3.106-12.253,6.707-12.87,8.691l0.014,85.107L956.01,949.396z"/>
		</g>
		<g>
			<path fill="#A79372" d="M939.827,965.583c0-8.37,7.046-15.947,18.437-21.432s27.128-8.878,44.51-8.878s33.119,3.393,44.51,8.878
				s18.437,13.063,18.437,21.432s-7.046,15.947-18.437,21.432c-11.391,5.485-27.128,8.878-44.51,8.878s-33.119-3.393-44.51-8.878
				C946.872,981.53,939.827,973.953,939.827,965.583z"/>
			<path fill="#2E4C59" d="M1002.774,1012.078c-22.927,0-42.71-4.889-56.762-13.145s-22.371-19.88-22.371-33.35
				c0-13.47,8.32-25.094,22.371-33.35s33.835-13.145,56.762-13.145c22.927,0,42.71,4.889,56.762,13.145s22.371,19.88,22.371,33.35
				c0,13.47-8.32,25.094-22.371,33.35S1025.701,1012.078,1002.774,1012.078z M956.085,965.582c0.934,2.077,5.445,5.608,13.303,8.62
				s19.063,5.505,33.385,5.505c14.654,0,26.045-2.609,33.926-5.714s12.252-6.705,12.867-8.689c-0.616-1.704-4.988-5.166-12.87-8.201
				c-7.881-3.036-19.271-5.645-33.923-5.645c-14.32,0-25.525,2.493-33.383,5.505C961.533,959.974,957.021,963.505,956.085,965.582z"
				/>
		</g>
	</g>
	<g>
		<path fill="#FDE9A4" d="M757.013,495.41H471.701H186.389c-14.389,0-27.417-5.832-36.847-15.262
			c-9.43-9.43-15.262-22.457-15.262-36.847v319.2v319.2c0,14.389,5.833,27.417,15.262,36.847s22.457,15.262,36.847,15.262h285.312
			h285.312c14.389,0,27.417-5.833,36.846-15.262s15.262-22.457,15.262-36.847v-319.2v-319.2c0,14.39-5.832,27.417-15.262,36.847
			C784.43,489.578,771.403,495.41,757.013,495.41z"/>
		<path fill="#2E4C59" d="M757.015,1150H471.702H186.389c-18.828,0-35.902-7.66-48.269-20.027
			c-12.367-12.367-20.027-29.442-20.027-48.272v-319.2v-319.2c0-4.47,1.811-8.516,4.74-11.445c2.929-2.929,6.975-4.74,11.445-4.74
			c4.47,0,8.516,1.811,11.445,4.74c2.929,2.929,4.74,6.975,4.74,11.445c0,9.904,4.029,18.885,10.534,25.39
			c6.505,6.505,15.486,10.534,25.39,10.534h285.313h285.313c9.904,0,18.885-4.029,25.389-10.534
			c6.504-6.505,10.532-15.486,10.532-25.39c0-4.47,1.811-8.516,4.74-11.445c2.929-2.929,6.975-4.74,11.445-4.74
			c4.47,0,8.516,1.811,11.445,4.74c2.929,2.929,4.74,6.975,4.74,11.445v319.2v319.2c0,18.83-7.659,35.905-20.025,48.272
			C792.916,1142.34,775.843,1150,757.015,1150z M150.465,501.364v290.169v290.168c0,9.904,4.029,18.885,10.534,25.39
			c6.505,6.505,15.486,10.534,25.39,10.534h285.313h285.313c9.904,0,18.885-4.029,25.389-10.534
			c6.504-6.505,10.532-15.486,10.532-25.39V791.534V501.367c-5.221,3.242-10.909,5.799-16.938,7.546
			c-6.029,1.747-12.399,2.684-18.984,2.684H471.702H186.389c-6.585,0-12.956-0.937-18.985-2.684
			C161.374,507.166,155.686,504.608,150.465,501.364z"/>
	</g>
	<g opacity="0.2">
		<path fill="#2E4C59" d="M757.013,1014.191H471.701H186.389c-14.389,0-27.417-5.832-36.847-15.262
			c-9.43-9.43-15.262-22.457-15.262-36.847v59.81v59.81c0,14.389,5.833,27.417,15.262,36.847s22.457,15.262,36.847,15.262h285.312
			h285.312c14.389,0,27.417-5.833,36.846-15.262s15.262-22.457,15.262-36.847v-59.81v-59.81c0,14.39-5.832,27.417-15.262,36.847
			C784.43,1008.358,771.403,1014.191,757.013,1014.191z"/>
		<path fill="#2E4C59" d="M757.015,1149.994H471.702H186.389c-18.828,0-35.902-7.659-48.269-20.025
			c-12.367-12.366-20.027-29.439-20.027-48.268v-59.809v-59.809c0-4.47,1.811-8.516,4.74-11.445c2.929-2.929,6.975-4.74,11.445-4.74
			c4.47,0,8.516,1.811,11.445,4.74c2.929,2.929,4.74,6.975,4.74,11.445c0,9.904,4.029,18.885,10.534,25.39
			c6.505,6.505,15.486,10.534,25.39,10.534h285.313h285.313c9.904,0,18.885-4.029,25.389-10.534
			c6.504-6.505,10.532-15.486,10.532-25.39c0-4.47,1.811-8.516,4.74-11.445c2.929-2.929,6.975-4.74,11.445-4.74
			c4.47,0,8.516,1.811,11.445,4.74c2.929,2.929,4.74,6.975,4.74,11.445v59.809v59.809c0,18.828-7.659,35.902-20.025,48.268
			C792.916,1142.335,775.843,1149.994,757.015,1149.994z M150.465,1020.145v30.778v30.778c0,9.904,4.029,18.885,10.534,25.39
			c6.505,6.505,15.486,10.534,25.39,10.534h285.313h285.313c9.904,0,18.885-4.029,25.389-10.534
			c6.504-6.505,10.532-15.486,10.532-25.39v-30.776v-30.776c-5.221,3.242-10.909,5.799-16.938,7.546
			c-6.029,1.747-12.399,2.683-18.984,2.683H471.702H186.389c-6.585,0-12.956-0.937-18.985-2.684
			C161.374,1025.947,155.686,1023.389,150.465,1020.145z"/>
	</g>
	<g>
		<path fill="#FFFFFF" d="M621.194,857.086H463.362H305.53c-3.542,0-6.749-1.436-9.07-3.757c-2.321-2.321-3.757-5.528-3.757-9.07
			v-77.037v-77.037c0-3.542,1.436-6.749,3.757-9.07s5.528-3.757,9.07-3.757h157.832h157.832c3.542,0,6.749,1.436,9.07,3.757
			c2.321,2.321,3.757,5.528,3.757,9.07v77.037v77.037c0,3.542-1.436,6.749-3.757,9.07
			C627.943,855.651,624.736,857.086,621.194,857.086z"/>
		<path fill="#2E4C59" d="M625.121,873.273H463.363H301.604c-6.917,0-13.189-2.814-17.731-7.356s-7.356-10.815-7.356-17.732v-80.963
			V686.26c0-6.917,2.814-13.189,7.356-17.731s10.815-7.356,17.731-7.356h161.758h161.758c6.915,0,13.186,2.814,17.729,7.356
			c4.542,4.543,7.356,10.815,7.356,17.731v80.963v80.963c0,6.917-2.814,13.189-7.356,17.732
			C638.307,870.46,632.036,873.273,625.121,873.273z M308.888,840.902h154.473h154.473v-73.679v-73.679H463.361H308.888v73.679
			V840.902z"/>
	</g>
</g>
</svg>
