<?xml version="1.0" encoding="utf-8"?>
<!-- Generator: Adobe Illustrator 19.1.1, SVG Export Plug-In . SVG Version: 6.00 Build 0)  -->
<svg version="1.1" id="Layer_1" xmlns="http://www.w3.org/2000/svg" xmlns:xlink="http://www.w3.org/1999/xlink" x="0px" y="0px"
	 viewBox="0 0 1200 1200" enable-background="new 0 0 1200 1200" xml:space="preserve">
<g>
	<g>
		<path fill="#9AA1A7" d="M775.629,67.166H600.001H424.373c-98.625,0-187.914,39.976-252.546,104.608S67.219,325.695,67.219,424.32
			v68.992v68.992h532.782h532.782v-68.992V424.32c0-98.625-39.976-187.914-104.608-252.546S874.254,67.166,775.629,67.166z"/>
		<path fill="#2E4C59" d="M1132.785,579.472H600.003H67.222c-4.741,0-9.033-1.921-12.139-5.028
			c-3.106-3.106-5.028-7.398-5.028-12.139v-80.652v-80.652c0-96.771,39.365-184.521,102.922-248.079S304.285,50,401.056,50h198.947
			h198.947c96.771,0,184.521,39.365,248.079,102.922c63.557,63.557,102.922,151.308,102.922,248.079v80.652v80.652
			c0,4.741-1.921,9.033-5.028,12.139S1137.526,579.472,1132.785,579.472z M84.389,545.138h515.614h515.614V473.07v-72.069
			c0-87.306-35.514-166.473-92.854-223.813c-57.34-57.34-136.507-92.854-223.813-92.854H600.003H401.056
			c-87.306,0-166.473,35.514-223.813,92.854S84.389,313.695,84.389,401.001v72.069V545.138z"/>
	</g>
	<g opacity="0.35">
		<path fill="#2E4C59" d="M67.325,443.108c-0.008,0.586-0.035,1.169-0.059,1.752c-0.024,0.583-0.047,1.167-0.047,1.755v57.845
			v57.845h532.782h532.782v-57.845v-57.845c0-0.588-0.022-1.172-0.047-1.755s-0.051-1.166-0.059-1.752H600.001H67.325z"/>
		<path fill="#2E4C59" d="M1132.785,579.472H600H67.215c-4.741,0-9.033-1.921-12.139-5.028s-5.028-7.398-5.028-12.139v-57.846
			v-57.846c0-0.441,0.008-0.88,0.022-1.319c0.013-0.438,0.032-0.876,0.052-1.313l0.017-0.535l0.017-0.535
			c0.054-4.702,1.995-8.946,5.098-12.013c3.103-3.067,7.368-4.959,12.069-4.959H600h532.677c4.701,0,8.966,1.892,12.069,4.959
			c3.103,3.067,5.044,7.311,5.098,12.013l0.017,0.535l0.017,0.535c0.02,0.438,0.039,0.875,0.052,1.313
			c0.013,0.438,0.022,0.878,0.022,1.319v57.846v57.846c0,4.741-1.921,9.033-5.028,12.139S1137.526,579.472,1132.785,579.472z
			 M84.382,545.138H600h515.618v-42.433v-42.433H600H84.382v42.433V545.138z"/>
	</g>
	<g>
		<g>
			<path fill="#2E4C59" d="M984.118,694.017c-35.084,106.071-109.84,187.88-202.342,234.4
				c-92.503,46.52-202.753,57.752-308.824,22.668s-187.88-109.84-234.4-202.343S180.8,545.99,215.883,439.919
				s109.84-187.88,202.342-234.4s202.753-57.752,308.824-22.668s187.88,109.84,234.4,202.343
				C1007.97,477.696,1019.202,587.945,984.118,694.017z"/>
			<path fill="#2E4C59" d="M599.681,988.753c-21.904,0-43.983-1.719-66.062-5.25s-44.158-8.873-66.062-16.118
				C357.163,930.868,271.913,852.851,223.39,756.364s-60.319-211.443-23.802-321.837c36.51-110.392,114.521-195.646,211.007-244.172
				s211.444-60.323,321.848-23.801c53.479,17.688,101.911,45.259,143.301,80.988s75.737,79.617,101.044,129.939
				c25.308,50.322,40.059,104.065,44.06,158.598c4.002,54.532-2.746,109.853-20.436,163.33
				c-29.267,88.49-85.209,160.826-155.954,211.039S688.164,988.753,599.681,988.753z M600.292,179.519
				c-81.287,0-159.871,25.801-224.855,71.926S259.068,364.017,232.178,445.309c-33.539,101.407-22.702,207.005,21.871,295.637
				S376.932,901.246,478.34,934.788c101.385,33.534,206.982,22.699,295.62-21.872c88.638-44.571,160.316-122.879,193.862-224.29
				c16.248-49.123,22.444-99.94,18.767-150.033c-3.677-50.093-17.228-99.461-40.474-145.685s-54.798-86.54-92.82-119.361
				s-82.513-58.148-131.636-74.396c-20.114-6.654-40.399-11.562-60.684-14.806C640.691,181.1,620.406,179.519,600.292,179.519z"/>
		</g>
		<path fill="#FFFFFF" d="M897.385,679.066c-0.714,0-1.435-0.056-2.156-0.171c-0.721-0.115-1.442-0.29-2.156-0.526
			c-3.601-1.192-6.379-3.73-7.958-6.87c-1.579-3.14-1.96-6.882-0.766-10.481c25.928-78.396,17.551-160.03-16.907-228.548
			c-34.458-68.518-94.996-123.92-173.39-149.849c-3.601-1.192-6.379-3.73-7.958-6.87s-1.96-6.882-0.766-10.481
			c1.19-3.599,3.727-6.378,6.866-7.959c3.139-1.58,6.881-1.963,10.482-0.769c85.583,28.308,151.673,88.791,189.291,163.593
			c37.618,74.802,46.763,163.922,18.454,249.507c-0.952,2.885-2.769,5.241-5.07,6.876
			C903.051,678.153,900.268,679.066,897.385,679.066z"/>
		<path fill="#FFFFFF" d="M501.636,878.091c-0.714,0-1.435-0.056-2.156-0.171c-0.721-0.115-1.442-0.29-2.156-0.526
			c-85.583-28.308-151.673-88.791-189.291-163.593s-46.763-163.922-18.454-249.507c1.187-3.601,3.725-6.377,6.866-7.956
			c3.141-1.579,6.884-1.96,10.482-0.772c3.601,1.192,6.379,3.73,7.958,6.87s1.96,6.882,0.766,10.481
			c-25.928,78.396-17.551,160.03,16.907,228.548s94.996,123.92,173.39,149.849c3.601,1.192,6.379,3.73,7.958,6.87
			c1.579,3.14,1.96,6.882,0.766,10.481c-0.952,2.885-2.769,5.241-5.07,6.876S504.52,878.091,501.636,878.091z"/>
		<path fill="#FFFFFF" d="M824.231,654.872c-0.714,0-1.435-0.056-2.156-0.171c-0.721-0.115-1.442-0.29-2.156-0.526
			c-3.601-1.192-6.379-3.73-7.958-6.87c-1.579-3.14-1.96-6.882-0.766-10.481c9.328-28.206,12.885-57.385,10.774-86.147
			c-2.112-28.762-9.892-57.109-23.24-83.65c-13.348-26.541-31.464-49.69-53.293-68.535c-21.83-18.845-47.374-33.388-75.578-42.717
			c-3.601-1.192-6.379-3.73-7.958-6.87s-1.96-6.882-0.766-10.481c1.187-3.601,3.723-6.381,6.863-7.962
			c3.14-1.581,6.883-1.962,10.484-0.765c31.688,10.483,60.387,26.821,84.914,47.992c24.526,21.172,44.88,47.178,59.878,76.997
			c14.994,29.819,23.735,61.666,26.107,93.979c2.371,32.314-1.627,65.095-12.112,96.783c-0.952,2.885-2.771,5.241-5.072,6.876
			S827.112,654.872,824.231,654.872z"/>
		<path fill="#FFFFFF" d="M525.837,804.937c-0.714,0-1.435-0.056-2.156-0.171c-0.721-0.115-1.442-0.29-2.156-0.526
			c-65.415-21.638-115.931-67.868-144.685-125.042c-28.754-57.174-35.744-125.292-14.108-190.707
			c1.187-3.599,3.725-6.378,6.866-7.959c3.141-1.58,6.884-1.963,10.482-0.769c3.601,1.192,6.379,3.729,7.958,6.869
			c1.579,3.14,1.96,6.881,0.766,10.482c-19.256,58.226-13.033,118.858,12.561,169.749c25.593,50.89,70.557,92.039,128.784,111.298
			c3.601,1.192,6.379,3.73,7.958,6.87c1.579,3.14,1.96,6.882,0.766,10.481c-0.952,2.885-2.769,5.241-5.07,6.876
			C531.504,804.023,528.721,804.937,525.837,804.937z"/>
		<g>
			<path fill="#FFFFFF" d="M747.651,615.804c-13.486,40.772-42.221,72.219-77.778,90.1c-35.557,17.882-77.935,22.199-118.708,8.713
				c-40.772-13.486-72.219-42.221-90.1-77.778c-17.882-35.557-22.199-77.936-8.713-118.708c13.486-40.772,42.221-72.219,77.778-90.1
				c35.557-17.882,77.935-22.199,118.708-8.713c40.772,13.486,72.219,42.221,90.1,77.778S761.136,575.031,747.651,615.804z"/>
			<path fill="#2E4C59" d="M600.171,739.737c-9.123,0-18.265-0.731-27.355-2.199c-9.09-1.468-18.127-3.674-27.043-6.622
				c-45.2-14.951-80.106-46.894-99.974-86.401c-19.868-39.506-24.7-86.575-9.753-131.775c7.242-21.894,18.531-41.724,33.162-58.671
				c14.63-16.947,32.602-31.01,53.209-41.373c20.6-10.362,42.604-16.403,64.931-18.043c22.328-1.64,44.98,1.122,66.878,8.366
				c21.898,7.242,41.728,18.531,58.676,33.16s31.011,32.599,41.375,53.204c10.36,20.604,16.399,42.608,18.038,64.935
				c1.639,22.328-1.122,44.979-8.361,66.877c-7.242,21.896-18.531,41.727-33.162,58.674c-14.63,16.947-32.602,31.011-53.209,41.373
				c-12.215,6.143-24.924,10.766-37.901,13.854S613.458,739.737,600.171,739.737z M599.863,428.548
				c-10.645,0-21.257,1.244-31.655,3.718c-10.397,2.474-20.58,6.179-30.367,11.101c-16.51,8.302-30.907,19.569-42.627,33.147
				c-11.72,13.578-20.763,29.465-26.563,47.008c-11.98,36.213-8.111,73.923,7.807,105.574s43.884,57.244,80.099,69.222
				c17.542,5.804,35.692,8.018,53.581,6.705c17.889-1.313,35.519-6.153,52.022-14.456c16.51-8.302,30.907-19.569,42.627-33.147
				c11.72-13.578,20.763-29.465,26.563-47.008c5.804-17.542,8.017-35.69,6.704-53.579s-6.151-35.519-14.449-52.027
				c-8.302-16.506-19.571-30.903-33.15-42.623c-13.579-11.72-29.469-20.765-47.011-26.567c-7.138-2.362-14.379-4.129-21.662-5.306
				C614.498,429.134,607.172,428.548,599.863,428.548z"/>
		</g>
		<g opacity="0.2">
			<path fill="#2E4C59" d="M681.692,593.988c-7.461,22.558-23.36,39.957-43.033,49.851c-19.673,9.894-43.12,12.282-65.678,4.821
				c-22.558-7.461-39.957-23.36-49.851-43.033c-9.894-19.673-12.282-43.12-4.821-65.678s23.36-39.957,43.033-49.851
				c19.673-9.894,43.12-12.282,65.678-4.821c22.558,7.461,39.957,23.36,49.851,43.033
				C686.765,547.982,689.154,571.429,681.692,593.988z"/>
			<path fill="#2E4C59" d="M600.104,670.231c-5.455,0-10.92-0.438-16.354-1.316c-5.433-0.878-10.835-2.197-16.163-3.958
				c-27.014-8.935-47.876-28.028-59.751-51.64c-11.875-23.612-14.764-51.745-5.832-78.761c8.942-27.016,28.04-47.875,51.655-59.748
				c23.614-11.873,51.745-14.76,78.753-5.831c27.014,8.935,47.876,28.028,59.751,51.64c11.875,23.612,14.764,51.745,5.832,78.761
				c-4.329,13.086-11.076,24.939-19.821,35.068c-8.744,10.129-19.485,18.535-31.801,24.728c-7.303,3.673-14.9,6.438-22.657,8.284
				S608.044,670.231,600.104,670.231z M600.057,498.084c-14.454,0-28.426,4.588-39.98,12.788
				c-11.554,8.201-20.691,20.015-25.475,34.467c-5.961,18.029-4.034,36.802,3.892,52.56s21.848,28.498,39.877,34.461
				c8.724,2.887,17.759,3.99,26.666,3.337c8.908-0.653,17.689-3.061,25.907-7.197c8.221-4.132,15.39-9.742,21.225-16.502
				c5.835-6.76,10.336-14.67,13.223-23.404c5.965-18.029,4.039-36.802-3.886-52.56s-21.847-28.498-39.876-34.461
				c-3.574-1.182-7.18-2.055-10.786-2.632C607.237,498.365,603.631,498.084,600.057,498.084z"/>
		</g>
		<g>
			<path fill="#2E4C59" d="M648.869,583.131c-4.463,13.494-13.974,23.902-25.742,29.821c-11.768,5.918-25.794,7.347-39.289,2.884
				c-13.495-4.463-23.902-13.974-29.821-25.742c-5.918-11.768-7.347-25.794-2.884-39.289c4.463-13.494,13.974-23.902,25.742-29.821
				c11.768-5.918,25.794-7.347,39.289-2.884c13.495,4.463,23.902,13.974,29.821,25.742
				C651.903,555.61,653.332,569.637,648.869,583.131z"/>
			<path fill="#2E4C59" d="M600.07,635.64c-3.628,0-7.262-0.291-10.876-0.875c-3.614-0.584-7.206-1.461-10.75-2.632
				c-17.965-5.943-31.839-18.64-39.737-34.342c-7.898-15.702-9.819-34.411-3.878-52.377c2.88-8.702,7.368-16.585,13.184-23.322
				c5.816-6.737,12.959-12.328,21.15-16.447c8.191-4.116,16.939-6.514,25.814-7.164c8.875-0.65,17.878,0.447,26.578,3.322
				c8.704,2.878,16.587,7.365,23.323,13.18c6.736,5.815,12.325,12.957,16.443,21.147s6.518,16.935,7.17,25.81
				c0.652,8.875-0.444,17.878-3.321,26.582v-0.002v-0.002c-2.88,8.704-7.368,16.588-13.184,23.325
				c-5.816,6.737-12.959,12.328-21.15,16.447c-4.855,2.441-9.906,4.278-15.064,5.505S605.351,635.64,600.07,635.64z
				 M599.963,532.645c-2.639,0-5.269,0.308-7.847,0.922c-2.578,0.614-5.102,1.532-7.53,2.753c-4.094,2.059-7.663,4.852-10.568,8.219
				c-2.905,3.366-5.147,7.305-6.585,11.654c-2.971,8.981-2.012,18.331,1.935,26.179c3.946,7.848,10.88,14.193,19.859,17.164
				c4.342,1.435,8.84,1.984,13.277,1.66s8.812-1.522,12.909-3.581c4.094-2.059,7.663-4.852,10.568-8.219
				c2.905-3.366,5.147-7.305,6.585-11.654v-0.003v0c1.442-4.349,1.992-8.848,1.666-13.284c-0.325-4.435-1.526-8.807-3.584-12.899
				c-2.059-4.094-4.852-7.664-8.218-10.57c-3.366-2.906-7.306-5.148-11.658-6.587c-1.77-0.585-3.566-1.023-5.372-1.316
				C603.594,532.791,601.777,532.645,599.963,532.645z"/>
		</g>
	</g>
	<g>
		<path fill="#ABE1ED" d="M710.47,562.305c0,30.505-12.364,58.122-32.355,78.114c-19.991,19.991-47.608,32.356-78.114,32.356
			c-30.505,0-58.122-12.365-78.113-32.356c-19.991-19.991-32.356-47.608-32.356-78.114H278.376H67.219V819.46v257.155
			c0,15.525,6.293,29.58,16.467,39.754c10.174,10.174,24.229,16.467,39.754,16.467h476.561h476.561
			c15.525,0,29.58-6.293,39.754-16.467c10.174-10.174,16.467-24.229,16.467-39.754V819.459V562.305H921.626H710.47z"/>
		<path fill="#2E4C59" d="M1076.563,1150H600H123.437c-20.231,0-38.577-8.23-51.864-21.518s-21.517-31.634-21.517-51.867V819.46
			V562.305c0-4.741,1.921-9.033,5.028-12.139c3.106-3.106,7.398-5.028,12.139-5.028h211.155h211.155
			c4.741,0,9.033,1.921,12.139,5.028s5.028,7.398,5.028,12.139c0,25.723,10.464,49.049,27.36,65.943
			c16.895,16.894,40.221,27.358,65.945,27.358s49.048-10.464,65.941-27.358c16.893-16.894,27.356-40.22,27.356-65.943
			c0-4.741,1.921-9.033,5.028-12.139c3.106-3.106,7.398-5.028,12.139-5.028h211.158h211.158c4.741,0,9.033,1.921,12.139,5.028
			s5.028,7.398,5.028,12.139V819.46v257.155c0,20.233-8.23,38.579-21.518,51.867S1096.798,1150,1076.563,1150z M84.389,579.472
			v248.572v248.572c0,10.766,4.379,20.529,11.449,27.6c7.07,7.071,16.832,11.451,27.598,11.451H600h476.563
			c10.766,0,20.53-4.38,27.602-11.451c7.072-7.071,11.453-16.834,11.453-27.6V828.044V579.472H921.053H726.488
			c-4.208,31.145-19.69,58.762-42.189,78.593c-22.5,19.831-52.017,31.875-84.295,31.875c-32.278,0-61.797-12.044-84.298-31.875
			c-22.501-19.831-37.985-47.448-42.193-78.593H278.951H84.389z"/>
	</g>
	<g opacity="0.2">
		<path fill="#2E4C59" d="M67.219,1000.679v37.968v37.968c0,15.525,6.293,29.58,16.467,39.754s24.229,16.467,39.754,16.467H600
			h476.562c15.525,0,29.58-6.293,39.754-16.467c10.174-10.174,16.467-24.229,16.467-39.754v-37.967v-37.967H600.001H67.219z"/>
		<path fill="#2E4C59" d="M1076.563,1150H600H123.437c-20.235,0-38.582-8.23-51.87-21.518s-21.518-31.634-21.518-51.867v-37.968
			v-37.968c0-4.741,1.921-9.033,5.028-12.139s7.398-5.028,12.139-5.028H600h532.785c4.741,0,9.033,1.921,12.139,5.028
			s5.028,7.398,5.028,12.139v37.968v37.968c0,20.233-8.23,38.579-21.518,51.867S1096.798,1150,1076.563,1150z M84.382,1017.846
			v29.385v29.385c0,10.766,4.381,20.529,11.453,27.6c7.072,7.071,16.836,11.451,27.602,11.451H600h476.563
			c10.766,0,20.53-4.38,27.602-11.451c7.072-7.071,11.453-16.834,11.453-27.6v-29.385v-29.385H600H84.382z"/>
	</g>
	<g>
		<g>
			<polyline fill="#2E4C59" points="774.716,799.331 600.001,799.331 425.286,799.331 			"/>
			<path fill="#2E4C59" d="M774.716,816.498H600H425.284c-4.741,0-9.033-1.921-12.139-5.028c-3.106-3.106-5.028-7.398-5.028-12.139
				c0-4.741,1.921-9.033,5.028-12.139c3.106-3.106,7.398-5.028,12.139-5.028H600h174.716c4.741,0,9.033,1.921,12.139,5.028
				s5.028,7.398,5.028,12.139c0,4.741-1.921,9.033-5.028,12.139C783.749,814.577,779.457,816.498,774.716,816.498z"/>
		</g>
		<g>
			<polyline fill="#2E4C59" points="774.716,895.808 600.001,895.808 425.286,895.808 			"/>
			<path fill="#2E4C59" d="M774.716,912.974H600H425.284c-4.741,0-9.033-1.921-12.139-5.028c-3.106-3.106-5.028-7.398-5.028-12.139
				c0-4.741,1.921-9.033,5.028-12.139c3.106-3.107,7.398-5.028,12.139-5.028H600h174.716c4.741,0,9.033,1.921,12.139,5.028
				c3.106,3.106,5.028,7.398,5.028,12.139c0,4.741-1.921,9.033-5.028,12.139S779.457,912.974,774.716,912.974z"/>
		</g>
	</g>
</g>
</svg>
