<?xml version="1.0" encoding="utf-8"?>
<!-- Generator: Adobe Illustrator 19.1.1, SVG Export Plug-In . SVG Version: 6.00 Build 0)  -->
<svg version="1.1" id="Layer_1" xmlns="http://www.w3.org/2000/svg" xmlns:xlink="http://www.w3.org/1999/xlink" x="0px" y="0px"
	 viewBox="0 0 1200 1200" enable-background="new 0 0 1200 1200" xml:space="preserve">
<g>
	<g>
		<path fill="#ABE1ED" d="M1011.538,1135.732H599.999H188.461c-20.687,0-39.415-8.385-52.972-21.942
			c-13.557-13.557-21.942-32.285-21.942-52.972V649.28V237.741c0-20.687,8.385-39.415,21.942-52.972
			c13.557-13.557,32.285-21.942,52.972-21.942h411.538h411.539c20.687,0,39.415,8.385,52.972,21.942
			c13.557,13.557,21.942,32.285,21.942,52.972V649.28v411.538c0,20.687-8.385,39.415-21.942,52.972
			C1050.953,1127.347,1032.225,1135.732,1011.538,1135.732z"/>
		<path fill="#2E4C59" d="M1034.465,1150H599.997H165.529c-18.265,0-34.826-7.43-46.822-19.427
			c-11.996-11.997-19.425-28.56-19.425-46.826V649.279V214.811c0-18.265,7.43-34.827,19.425-46.824
			c11.996-11.996,28.558-19.427,46.822-19.427h434.468h434.468c18.267,0,34.831,7.43,46.827,19.427
			c11.996,11.996,19.426,28.559,19.426,46.824v434.468v434.468c0,18.266-7.43,34.829-19.426,46.826
			C1069.296,1142.57,1052.733,1150,1034.465,1150z M165.529,177.097c-10.397,0-19.825,4.23-26.654,11.059
			c-6.828,6.829-11.057,16.257-11.057,26.655v434.468v434.468c0,10.399,4.229,19.828,11.057,26.657s16.256,11.059,26.654,11.059
			h434.468h434.468c10.397,0,19.827-4.23,26.656-11.059s11.06-16.258,11.06-26.657V649.279V214.811
			c0-10.398-4.23-19.826-11.06-26.655c-6.83-6.829-16.259-11.059-26.656-11.059H599.997H165.529z"/>
	</g>
	<g>
		<polygon fill="#D6BF9F" points="174.07,1075.209 174.07,649.28 174.07,223.351 600,223.351 1025.931,223.351 1025.931,649.28 
			1025.931,1075.209 600,1075.209 		"/>
		<path fill="#2E4C59" d="M1025.932,1089.477H600H174.068c-3.941,0-7.508-1.597-10.09-4.179c-2.582-2.582-4.179-6.149-4.179-10.09
			V649.28V223.352c0-3.941,1.597-7.508,4.179-10.09s6.149-4.179,10.09-4.179H600h425.932c3.941,0,7.508,1.597,10.09,4.179
			s4.179,6.149,4.179,10.09V649.28v425.928c0,3.941-1.597,7.508-4.179,10.09C1033.44,1087.88,1029.873,1089.477,1025.932,1089.477z
			 M188.336,1060.94H600h411.664V649.28V237.62H600H188.336v411.66V1060.94z"/>
	</g>
	<g opacity="0.35">
		<polygon fill="#2E4C59" points="207.083,1037.015 207.083,630.183 207.083,223.351 190.576,223.351 174.07,223.351 174.07,649.28 
			174.07,1075.209 600,1075.209 1025.931,1075.209 1025.931,1056.112 1025.931,1037.015 616.507,1037.015 		"/>
		<path fill="#2E4C59" d="M1025.932,1089.477H600H174.068c-3.941,0-7.508-1.597-10.09-4.179c-2.582-2.582-4.179-6.149-4.179-10.09
			V649.28V223.352c0-3.941,1.597-7.508,4.179-10.09s6.149-4.179,10.09-4.179h16.506h16.506c3.941,0,7.508,1.597,10.09,4.179
			s4.179,6.149,4.179,10.09v399.698v399.698H623.64h402.292c3.941,0,7.508,1.597,10.09,4.179c2.582,2.582,4.179,6.149,4.179,10.09
			v19.096v19.096c0,3.941-1.597,7.508-4.179,10.09C1033.44,1087.88,1029.873,1089.477,1025.932,1089.477z M188.336,1060.94H600
			h411.664v-4.828v-4.828H609.372H207.08c-3.941,0-7.508-1.597-10.09-4.179c-2.582-2.582-4.179-6.149-4.179-10.089V637.318V237.62
			h-2.238h-2.238v411.66V1060.94z"/>
	</g>
	<g opacity="0.35">
		<g>
			<path fill="#2E4C59" d="M390.38,444.248c0,13.139-5.326,25.034-13.936,33.644c-8.61,8.61-20.505,13.936-33.644,13.936
				c-13.139,0-25.034-5.326-33.644-13.936c-8.61-8.61-13.936-20.505-13.936-33.644c0-13.139,5.326-25.034,13.936-33.644
				c8.61-8.61,20.505-13.936,33.644-13.936c13.139,0,25.034,5.326,33.644,13.936C385.055,419.215,390.38,431.11,390.38,444.248z"/>
			<path fill="#2E4C59" d="M342.802,506.096c-17.052,0-32.515-6.936-43.714-18.135s-18.136-26.661-18.136-43.712
				c0-17.052,6.936-32.515,18.136-43.714s26.662-18.136,43.714-18.136c17.05,0,32.511,6.936,43.709,18.136
				s18.135,26.662,18.135,43.714c0,17.051-6.936,32.513-18.135,43.712S359.852,506.096,342.802,506.096z M342.802,410.936
				c-9.185,0-17.514,3.736-23.546,9.769c-6.032,6.032-9.768,14.361-9.768,23.544c0,9.184,3.736,17.511,9.768,23.543
				c6.032,6.032,14.36,9.767,23.546,9.767c9.182,0,17.509-3.736,23.541-9.767c6.031-6.032,9.767-14.359,9.767-23.543
				c0-9.184-3.736-17.512-9.767-23.544C360.311,414.672,351.984,410.936,342.802,410.936z"/>
		</g>
		<g>
			<path fill="#2E4C59" d="M390.38,660.285c0,13.139-5.326,25.034-13.936,33.644c-8.61,8.61-20.505,13.936-33.644,13.936
				c-13.139,0-25.034-5.326-33.644-13.936c-8.61-8.61-13.936-20.505-13.936-33.644c0-13.139,5.326-25.034,13.936-33.644
				c8.61-8.61,20.505-13.936,33.644-13.936c13.139,0,25.034,5.326,33.644,13.936C385.055,635.251,390.38,647.146,390.38,660.285z"/>
			<path fill="#2E4C59" d="M342.802,722.134c-17.052,0-32.515-6.936-43.714-18.136c-11.199-11.199-18.136-26.662-18.136-43.714
				c0-17.051,6.936-32.513,18.136-43.712s26.662-18.135,43.714-18.135c17.05,0,32.511,6.936,43.709,18.135
				s18.135,26.661,18.135,43.712c0,17.052-6.936,32.515-18.135,43.714C375.313,715.197,359.852,722.134,342.802,722.134z
				 M342.802,626.973c-9.185,0-17.514,3.736-23.546,9.767c-6.032,6.032-9.768,14.359-9.768,23.543s3.736,17.512,9.768,23.544
				c6.032,6.032,14.36,9.769,23.546,9.769c9.182,0,17.509-3.736,23.541-9.769c6.031-6.032,9.767-14.361,9.767-23.544
				s-3.736-17.511-9.767-23.543C360.311,630.709,351.984,626.973,342.802,626.973z"/>
		</g>
		<g>
			<path fill="#2E4C59" d="M390.38,876.321c0,13.139-5.326,25.034-13.936,33.644c-8.61,8.61-20.505,13.936-33.644,13.936
				c-13.139,0-25.034-5.326-33.644-13.936c-8.61-8.61-13.936-20.505-13.936-33.644c0-13.139,5.326-25.034,13.936-33.644
				c8.61-8.61,20.505-13.936,33.644-13.936c13.139,0,25.034,5.326,33.644,13.936C385.055,851.287,390.38,863.182,390.38,876.321z"/>
			<path fill="#2E4C59" d="M342.802,938.168c-17.052,0-32.515-6.936-43.714-18.135s-18.136-26.661-18.136-43.712
				s6.936-32.513,18.136-43.712c11.199-11.199,26.662-18.135,43.714-18.135c17.05,0,32.511,6.936,43.709,18.135
				c11.199,11.199,18.135,26.661,18.135,43.712s-6.936,32.513-18.135,43.712S359.852,938.168,342.802,938.168z M342.802,843.01
				c-9.185,0-17.514,3.736-23.546,9.767c-6.032,6.032-9.768,14.359-9.768,23.543s3.736,17.511,9.768,23.543
				c6.032,6.032,14.36,9.767,23.546,9.767c9.182,0,17.509-3.736,23.541-9.767c6.031-6.032,9.767-14.359,9.767-23.543
				s-3.736-17.511-9.767-23.543C360.311,846.746,351.984,843.01,342.802,843.01z"/>
		</g>
	</g>
	<g>
		<g>
			<path fill="#ABE1ED" d="M401.384,433.244c0,13.139-5.326,25.034-13.936,33.644c-8.61,8.61-20.505,13.936-33.644,13.936
				c-13.139,0-25.034-5.326-33.644-13.936c-8.61-8.61-13.936-20.505-13.936-33.644c0-13.139,5.326-25.034,13.936-33.644
				c8.61-8.61,20.505-13.936,33.644-13.936c13.139,0,25.034,5.326,33.644,13.936C396.059,408.211,401.384,420.106,401.384,433.244z"
				/>
			<path fill="#2E4C59" d="M353.804,495.091c-17.052,0-32.515-6.936-43.714-18.135c-11.199-11.199-18.136-26.661-18.136-43.712
				s6.936-32.513,18.136-43.712c11.199-11.199,26.662-18.135,43.714-18.135c17.052,0,32.515,6.936,43.714,18.135
				c11.199,11.199,18.136,26.661,18.136,43.712s-6.936,32.513-18.136,43.712C386.319,488.155,370.857,495.091,353.804,495.091z
				 M353.804,399.934c-9.185,0-17.514,3.736-23.546,9.767c-6.032,6.032-9.768,14.359-9.768,23.543
				c0,9.184,3.736,17.511,9.768,23.543c6.032,6.032,14.36,9.767,23.546,9.767c9.185,0,17.514-3.736,23.546-9.767
				c6.032-6.032,9.768-14.359,9.768-23.543c0-9.184-3.736-17.511-9.768-23.543C371.318,403.67,362.989,399.934,353.804,399.934z"/>
		</g>
		<g>
			<path fill="#FFFFFF" d="M401.384,649.28c0,13.139-5.326,25.034-13.936,33.644c-8.61,8.61-20.505,13.936-33.644,13.936
				c-13.139,0-25.034-5.326-33.644-13.936c-8.61-8.61-13.936-20.505-13.936-33.644c0-13.139,5.326-25.034,13.936-33.644
				c8.61-8.61,20.505-13.936,33.644-13.936c13.139,0,25.034,5.326,33.644,13.936C396.059,624.247,401.384,636.142,401.384,649.28z"
				/>
			<path fill="#2E4C59" d="M353.804,711.129c-17.052,0-32.515-6.936-43.714-18.135s-18.136-26.661-18.136-43.712
				c0-17.052,6.936-32.515,18.136-43.714s26.662-18.136,43.714-18.136c17.052,0,32.515,6.936,43.714,18.136
				s18.136,26.662,18.136,43.714c0,17.051-6.936,32.513-18.136,43.712S370.857,711.129,353.804,711.129z M353.804,615.968
				c-9.185,0-17.514,3.736-23.546,9.769c-6.032,6.032-9.768,14.361-9.768,23.544c0,9.184,3.736,17.511,9.768,23.543
				c6.032,6.032,14.36,9.767,23.546,9.767c9.185,0,17.514-3.736,23.546-9.767c6.032-6.032,9.768-14.359,9.768-23.543
				c0-9.184-3.736-17.512-9.768-23.544C371.318,619.705,362.989,615.968,353.804,615.968z"/>
		</g>
		<g>
			<path fill="#FDE9A4" d="M401.384,865.316c0,13.139-5.326,25.034-13.936,33.644c-8.61,8.61-20.505,13.936-33.644,13.936
				c-13.139,0-25.034-5.326-33.644-13.936c-8.61-8.61-13.936-20.505-13.936-33.644s5.326-25.034,13.936-33.644
				c8.61-8.61,20.505-13.936,33.644-13.936c13.139,0,25.034,5.326,33.644,13.936C396.059,840.283,401.384,852.178,401.384,865.316z"
				/>
			<path fill="#2E4C59" d="M353.804,927.163c-17.052,0-32.515-6.936-43.714-18.135s-18.136-26.661-18.136-43.712
				s6.936-32.513,18.136-43.712s26.662-18.135,43.714-18.135c17.052,0,32.515,6.936,43.714,18.135s18.136,26.661,18.136,43.712
				s-6.936,32.513-18.136,43.712S370.857,927.163,353.804,927.163z M353.804,832.005c-9.185,0-17.514,3.736-23.546,9.767
				c-6.032,6.032-9.768,14.359-9.768,23.543s3.736,17.511,9.768,23.543c6.032,6.032,14.36,9.767,23.546,9.767
				c9.185,0,17.514-3.736,23.546-9.767c6.032-6.032,9.768-14.359,9.768-23.543s-3.736-17.511-9.768-23.543
				C371.318,835.741,362.989,832.005,353.804,832.005z"/>
		</g>
	</g>
	<path fill="#2E4C59" d="M924.187,447.513H714.191H504.196c-3.941,0-7.508-1.597-10.09-4.179c-2.582-2.582-4.179-6.149-4.179-10.09
		s1.597-7.508,4.179-10.09c2.582-2.582,6.149-4.179,10.09-4.179h209.995h209.995c3.94,0,7.508,1.597,10.09,4.179
		c2.582,2.582,4.179,6.149,4.179,10.09s-1.597,7.508-4.179,10.09C931.694,445.916,928.127,447.513,924.187,447.513z"/>
	<path fill="#2E4C59" d="M924.187,660.808H714.191H504.196c-3.941,0-7.508-1.597-10.09-4.179c-2.582-2.582-4.179-6.149-4.179-10.09
		c0-3.94,1.597-7.508,4.179-10.09c2.582-2.582,6.149-4.179,10.09-4.179h209.995h209.995c3.94,0,7.508,1.597,10.09,4.179
		s4.179,6.149,4.179,10.09c0,3.941-1.597,7.508-4.179,10.09C931.694,659.211,928.127,660.808,924.187,660.808z"/>
	<path fill="#2E4C59" d="M924.187,879.607H714.191H504.196c-3.941,0-7.508-1.597-10.09-4.179c-2.582-2.582-4.179-6.149-4.179-10.09
		c0-3.94,1.597-7.508,4.179-10.09c2.582-2.582,6.149-4.179,10.09-4.179h209.995h209.995c3.94,0,7.508,1.597,10.09,4.179
		s4.179,6.149,4.179,10.09c0,3.941-1.597,7.508-4.179,10.09C931.694,878.01,928.127,879.607,924.187,879.607z"/>
	<path fill="#2E4C59" d="M504.201,177.097c-2.051,0-4.095-0.44-5.979-1.307c-1.884-0.866-3.607-2.159-5.018-3.863
		c-2.514-3.036-3.557-6.803-3.214-10.438s2.074-7.14,5.109-9.652l47.902-39.648l47.902-39.648c2.725-2.26,6.077-3.347,9.405-3.274
		c3.328,0.073,6.633,1.305,9.267,3.684l43.822,39.648l43.822,39.648c2.921,2.643,4.494,6.221,4.676,9.868s-1.028,7.364-3.672,10.286
		c-2.642,2.921-6.219,4.494-9.866,4.676s-7.365-1.026-10.288-3.667l-39.244-35.505L599.582,102.4l-43.145,35.71l-43.145,35.71
		c-1.329,1.102-2.801,1.921-4.34,2.465C507.412,176.829,505.804,177.097,504.201,177.097z"/>
	<path fill="#2E4C59" d="M600,117.07c-9.247,0-17.631-3.761-23.703-9.833c-6.072-6.072-9.833-14.456-9.833-23.703
		c0-9.245,3.761-17.629,9.833-23.701S590.753,50,600,50s17.631,3.761,23.703,9.833s9.833,14.455,9.833,23.701
		c0,9.247-3.761,17.631-9.833,23.703C617.631,113.309,609.247,117.07,600,117.07z M600,78.537c-1.379,0-2.629,0.56-3.534,1.465
		c-0.905,0.905-1.465,2.154-1.465,3.532c0,1.378,0.56,2.628,1.465,3.533c0.905,0.905,2.155,1.466,3.534,1.466
		s2.629-0.561,3.534-1.466c0.905-0.905,1.465-2.155,1.465-3.533c0-1.378-0.56-2.627-1.465-3.532
		C602.629,79.097,601.379,78.537,600,78.537z"/>
</g>
</svg>
