<?xml version="1.0" encoding="utf-8"?>
<!-- Generator: Adobe Illustrator 19.1.1, SVG Export Plug-In . SVG Version: 6.00 Build 0)  -->
<svg version="1.1" id="Layer_1" xmlns="http://www.w3.org/2000/svg" xmlns:xlink="http://www.w3.org/1999/xlink" x="0px" y="0px"
	 viewBox="0 0 1200 1200" enable-background="new 0 0 1200 1200" xml:space="preserve">
<g>
	<g>
		<g>
			<path fill="#2E4C59" d="M827.008,716.508c-2.063,0-4.12-0.433-6.023-1.287c-1.904-0.854-3.654-2.13-5.104-3.816l-34.527-40.145
				l-34.527-40.145c-2.641-3.071-3.787-6.922-3.505-10.666c0.282-3.744,1.993-7.38,5.064-10.021
				c3.068-2.641,6.92-3.788,10.664-3.507c3.744,0.281,7.381,1.991,10.02,5.062l34.527,40.145l34.527,40.145
				c2.641,3.071,3.787,6.922,3.505,10.666c-0.282,3.744-1.992,7.38-5.064,10.021c-1.384,1.19-2.926,2.077-4.547,2.666
				C830.399,716.216,828.701,716.508,827.008,716.508z"/>
			<path fill="#2E4C59" d="M442.064,268.946c-2.063,0-4.118-0.433-6.021-1.287c-1.903-0.854-3.653-2.13-5.106-3.816l-34.53-40.145
				l-34.53-40.145c-2.641-3.071-3.787-6.922-3.505-10.666c0.282-3.744,1.993-7.38,5.064-10.021c3.068-2.643,6.917-3.79,10.66-3.509
				c3.743,0.281,7.38,1.992,10.024,5.064l34.53,40.145l34.53,40.145c2.641,3.071,3.787,6.922,3.505,10.666
				c-0.282,3.744-1.993,7.38-5.064,10.021c-1.384,1.19-2.926,2.077-4.547,2.666C445.454,268.655,443.757,268.946,442.064,268.946z"
				/>
		</g>
		<g>
			<path fill="#2E4C59" d="M921.032,452.58h-48.831H823.37c-4.051,0-7.718-1.642-10.372-4.296s-4.296-6.321-4.296-10.372
				s1.642-7.718,4.296-10.372c2.654-2.654,6.321-4.296,10.372-4.296h48.831h48.831c4.051,0,7.718,1.642,10.372,4.296
				c2.654,2.654,4.296,6.321,4.296,10.372s-1.642,7.718-4.296,10.372C928.75,450.939,925.083,452.58,921.032,452.58z"/>
			<path fill="#2E4C59" d="M376.63,452.58h-48.829h-48.829c-4.051,0-7.718-1.642-10.372-4.296
				c-2.654-2.654-4.296-6.321-4.296-10.372s1.642-7.718,4.296-10.372c2.654-2.654,6.321-4.296,10.372-4.296h48.829h48.829
				c4.051,0,7.718,1.642,10.372,4.296c2.654,2.654,4.296,6.321,4.296,10.372s-1.642,7.718-4.296,10.372
				C384.348,450.939,380.681,452.58,376.63,452.58z"/>
		</g>
		<g>
			<path fill="#2E4C59" d="M757.942,268.946c-1.693,0-3.391-0.292-5.011-0.881c-1.62-0.589-3.163-1.476-4.547-2.666
				c-3.071-2.641-4.781-6.278-5.064-10.021c-0.282-3.744,0.864-7.595,3.505-10.666l34.527-40.145l34.527-40.145
				c2.639-3.07,6.275-4.779,10.02-5.061c3.744-0.282,7.596,0.864,10.664,3.506c3.071,2.641,4.781,6.278,5.064,10.021
				c0.282,3.744-0.864,7.595-3.505,10.666l-34.527,40.145l-34.527,40.145c-1.45,1.686-3.2,2.962-5.104,3.816
				C762.062,268.514,760.005,268.946,757.942,268.946z"/>
			<path fill="#2E4C59" d="M372.992,716.508c-1.693,0-3.391-0.292-5.011-0.881c-1.62-0.589-3.163-1.476-4.547-2.666
				c-3.071-2.641-4.781-6.278-5.064-10.021c-0.282-3.744,0.864-7.595,3.505-10.666l34.53-40.145l34.53-40.145
				c2.639-3.068,6.275-4.777,10.02-5.059c3.744-0.282,7.596,0.863,10.664,3.503c3.071,2.641,4.781,6.278,5.064,10.021
				c0.282,3.744-0.864,7.595-3.505,10.666l-34.53,40.145l-34.53,40.145c-1.45,1.686-3.2,2.962-5.104,3.816
				S375.055,716.508,372.992,716.508z"/>
		</g>
		<g>
			<path fill="#2E4C59" d="M600.003,192.882c-4.051,0-7.718-1.642-10.372-4.296c-2.654-2.654-4.296-6.321-4.296-10.372v-56.773
				V64.668c0-4.051,1.642-7.718,4.296-10.372S595.952,50,600.003,50s7.718,1.642,10.372,4.296s4.296,6.321,4.296,10.372v56.773
				v56.773c0,4.051-1.642,7.718-4.296,10.372C607.721,191.24,604.054,192.882,600.003,192.882z"/>
			<path fill="#2E4C59" d="M600.003,825.828c-4.051,0-7.718-1.642-10.372-4.296c-2.654-2.654-4.296-6.321-4.296-10.372v-56.773
				v-56.773c0-4.051,1.642-7.718,4.296-10.372c2.654-2.654,6.321-4.296,10.372-4.296s7.718,1.642,10.372,4.296
				c2.654,2.654,4.296,6.321,4.296,10.372v56.773v56.773c0,4.051-1.642,7.718-4.296,10.372
				C607.721,824.186,604.054,825.828,600.003,825.828z"/>
		</g>
		<g>
			<path fill="#2E4C59" d="M721.559,798.042c-3.025,0-5.953-0.943-8.39-2.639s-4.384-4.148-5.447-7.164l-18.49-52.546l-18.49-52.546
				c-1.344-3.82-1.011-7.824,0.612-11.209c1.623-3.385,4.536-6.151,8.355-7.496c3.822-1.342,7.825-1.011,11.21,0.612
				c3.385,1.623,6.151,4.536,7.497,8.358l18.49,52.546l18.49,52.546c1.344,3.82,1.011,7.824-0.612,11.209s-4.536,6.151-8.355,7.496
				c-0.805,0.282-1.619,0.491-2.433,0.628S722.366,798.042,721.559,798.042z"/>
			<path fill="#2E4C59" d="M515.427,212.219c-3.025,0-5.953-0.943-8.39-2.639c-2.437-1.697-4.384-4.148-5.447-7.164L483.1,149.87
				l-18.49-52.546c-1.344-3.82-1.011-7.824,0.612-11.209c1.623-3.385,4.536-6.151,8.355-7.496c3.819-1.342,7.822-1.011,11.208,0.612
				c3.386,1.623,6.153,4.536,7.499,8.358l18.49,52.546l18.49,52.546c1.344,3.82,1.011,7.824-0.612,11.209s-4.536,6.151-8.355,7.496
				c-0.805,0.282-1.619,0.491-2.433,0.628C517.05,212.152,516.235,212.219,515.427,212.219z"/>
		</g>
		<g>
			<path fill="#2E4C59" d="M896.045,596.926c-1.077,0-2.164-0.12-3.241-0.365s-2.142-0.617-3.176-1.122l-45.033-21.955
				l-45.033-21.955c-3.641-1.775-6.218-4.857-7.441-8.406c-1.223-3.549-1.091-7.565,0.685-11.206
				c1.771-3.638,4.85-6.215,8.399-7.439s7.567-1.093,11.214,0.683l45.033,21.955l45.033,21.955c3.641,1.775,6.218,4.857,7.441,8.407
				c1.223,3.549,1.091,7.565-0.685,11.206c-1.269,2.606-3.21,4.666-5.513,6.075C901.425,596.168,898.761,596.926,896.045,596.926z"
				/>
			<path fill="#2E4C59" d="M394.003,352.153c-1.077,0-2.164-0.12-3.241-0.365c-1.076-0.246-2.142-0.617-3.176-1.122l-45.033-21.956
				l-45.033-21.956c-3.641-1.775-6.218-4.857-7.441-8.407c-1.223-3.549-1.091-7.565,0.685-11.206c1.77-3.641,4.852-6.22,8.401-7.443
				s7.568-1.091,11.212,0.688l45.033,21.956l45.033,21.956c3.641,1.775,6.218,4.857,7.441,8.407
				c1.223,3.549,1.091,7.565-0.685,11.206c-1.269,2.606-3.21,4.666-5.513,6.075S396.719,352.153,394.003,352.153z"/>
		</g>
		<g>
			<path fill="#2E4C59" d="M806.753,354.253c-2.742,0-5.427-0.772-7.742-2.204s-4.259-3.525-5.516-6.167
				c-1.739-3.657-1.831-7.673-0.574-11.211s3.863-6.596,7.518-8.336l45.193-21.496l45.193-21.496
				c3.658-1.743,7.675-1.835,11.212-0.577c3.537,1.258,6.596,3.867,8.337,7.524c1.739,3.657,1.831,7.673,0.574,11.211
				s-3.862,6.596-7.518,8.336l-45.193,21.496l-45.193,21.496c-1.017,0.483-2.063,0.839-3.118,1.074
				C808.872,354.138,807.808,354.253,806.753,354.253z"/>
			<path fill="#2E4C59" d="M302.883,593.909c-2.742,0-5.427-0.772-7.742-2.204s-4.259-3.525-5.516-6.167
				c-1.739-3.657-1.831-7.673-0.574-11.211c1.257-3.537,3.863-6.596,7.518-8.336l45.196-21.496l45.196-21.496
				c3.661-1.742,7.678-1.834,11.214-0.577c3.537,1.258,6.593,3.865,8.335,7.524c1.739,3.657,1.831,7.673,0.574,11.211
				c-1.257,3.537-3.863,6.596-7.518,8.336l-45.196,21.496l-45.196,21.496c-1.017,0.483-2.063,0.839-3.118,1.074
				S303.938,593.909,302.883,593.909z"/>
		</g>
		<g>
			<path fill="#2E4C59" d="M686.384,213.09c-0.828,0-1.662-0.07-2.494-0.215c-0.832-0.144-1.663-0.363-2.485-0.659
				c-3.81-1.374-6.702-4.162-8.298-7.559c-1.596-3.397-1.895-7.404-0.52-11.214l18.885-52.357l18.885-52.357
				c1.372-3.812,4.164-6.702,7.564-8.296c3.4-1.595,7.408-1.894,11.212-0.525c3.81,1.374,6.702,4.162,8.298,7.559
				c1.596,3.397,1.895,7.404,0.52,11.214l-18.885,52.357l-18.885,52.357c-1.077,2.988-3.025,5.412-5.455,7.088
				S689.386,213.09,686.384,213.09z"/>
			<path fill="#2E4C59" d="M475.852,796.792c-0.828,0-1.662-0.07-2.494-0.215c-0.832-0.144-1.663-0.363-2.485-0.659
				c-3.81-1.374-6.702-4.162-8.298-7.559c-1.596-3.397-1.895-7.404-0.52-11.214l18.885-52.357l18.885-52.357
				c1.375-3.812,4.165-6.701,7.564-8.295c3.398-1.594,7.405-1.894,11.212-0.526c3.81,1.374,6.702,4.162,8.298,7.559
				c1.596,3.397,1.895,7.404,0.52,11.214l-18.885,52.357l-18.885,52.357c-1.077,2.988-3.025,5.412-5.455,7.088
				C481.765,795.863,478.854,796.792,475.852,796.792z"/>
		</g>
	</g>
	<g>
		<path fill="#ABE1ED" d="M890.823,450.46c0,91.718-32.551,174.752-85.179,234.858c-52.628,60.105-125.333,97.281-205.641,97.281
			s-153.013-37.176-205.641-97.281s-85.179-143.14-85.179-234.858s32.551-174.752,85.179-234.857s125.333-97.281,205.641-97.281
			s153.013,37.176,205.641,97.281C858.272,275.707,890.823,358.742,890.823,450.46z"/>
		<path fill="#2E4C59" d="M600.003,797.265c-84.224,0-160.596-38.894-215.913-101.692s-89.577-149.499-89.577-245.113
			c0-95.616,34.261-182.318,89.577-245.116s131.689-101.692,215.913-101.692s160.596,38.894,215.913,101.692
			s89.577,149.5,89.577,245.116c0,95.614-34.261,182.316-89.577,245.113S684.227,797.265,600.003,797.265z M600.003,132.989
			c-76.136,0-145.175,35.604-195.18,93.09s-80.975,136.854-80.975,224.381s30.97,166.894,80.975,224.38
			s119.043,93.089,195.18,93.089s145.175-35.604,195.18-93.089c50.005-57.485,80.975-136.853,80.975-224.38
			s-30.971-166.895-80.975-224.381C745.178,168.593,676.139,132.989,600.003,132.989z"/>
	</g>
	<g>
		<path fill="#ABE1ED" d="M791.764,450.46c0,91.718-21.464,174.752-56.166,234.858c-34.702,60.105-82.642,97.281-135.596,97.281
			s-100.894-37.176-135.596-97.281S408.24,542.177,408.24,450.46s21.464-174.752,56.166-234.857s82.642-97.281,135.596-97.281
			s100.894,37.176,135.596,97.281C770.3,275.707,791.764,358.742,791.764,450.46z"/>
		<path fill="#2E4C59" d="M600.003,797.265c-28.342,0-55.68-9.288-80.801-27.009c-25.121-17.721-48.026-43.875-67.501-77.607
			c-18.742-32.463-33.274-70.197-43.12-111.222s-15.008-85.341-15.008-130.966s5.161-89.942,15.008-130.968
			s24.378-78.761,43.12-111.224c19.475-33.731,42.38-59.885,67.501-77.606c25.121-17.721,52.459-27.01,80.801-27.01
			s55.68,9.289,80.801,27.01c25.121,17.721,48.026,43.875,67.501,77.606c18.742,32.463,33.274,70.198,43.12,111.224
			s15.008,85.342,15.008,130.968s-5.161,89.941-15.008,130.966s-24.378,78.759-43.12,111.222
			c-19.475,33.732-42.38,59.886-67.501,77.607C655.683,787.977,628.345,797.265,600.003,797.265z M600.003,132.989
			c-48.826,0-93.099,35.604-125.166,93.09s-51.928,136.854-51.928,224.381s19.861,166.894,51.928,224.38
			s76.34,93.089,125.166,93.089s93.099-35.604,125.166-93.089s51.928-136.853,51.928-224.38s-19.861-166.895-51.928-224.381
			S648.829,132.989,600.003,132.989z"/>
	</g>
	<g>
		<path fill="#ABE1ED" d="M682.861,450.46c0,91.718-9.274,174.752-24.269,234.858c-14.995,60.105-35.709,97.281-58.59,97.281
			s-43.596-37.176-58.59-97.281c-14.995-60.105-24.269-143.14-24.269-234.858s9.274-174.752,24.269-234.857
			c14.995-60.105,35.709-97.281,58.59-97.281s43.596,37.176,58.59,97.281C673.587,275.707,682.861,358.742,682.861,450.46z"/>
		<path fill="#2E4C59" d="M600.003,797.265c-32.015,0-56.397-43.616-72.777-108.775s-24.754-151.86-24.754-238.03
			s8.375-172.872,24.754-238.032s40.762-108.776,72.777-108.776c32.012,0,56.393,43.617,72.772,108.776
			s24.754,151.861,24.754,238.032s-8.375,172.872-24.754,238.03S632.015,797.265,600.003,797.265z M600.003,132.989
			c-11.901,0-28.949,27.259-43.023,80.573c-14.074,53.313-25.172,132.681-25.172,236.899s11.098,183.585,25.172,236.897
			c14.074,53.313,31.122,80.571,43.023,80.571c11.898,0,28.945-27.258,43.018-80.571s25.171-132.68,25.171-236.897
			s-11.098-183.585-25.171-236.899S611.901,132.989,600.003,132.989z"/>
	</g>
	<g opacity="0.35">
		<path fill="#2E4C59" d="M460.238,563.308c-36.68-21.843-65.895-50.9-89.041-84.57c-23.145-33.671-40.22-71.955-52.618-112.254
			c-3.06,13.413-5.41,27.153-6.994,41.167s-2.404,28.302-2.404,42.809c0,91.717,32.551,174.752,85.18,234.857
			s125.334,97.281,205.641,97.281c46.103,0,89.685-12.266,128.401-34.088c38.716-21.822,72.567-53.201,99.208-91.426
			c-64.466,1.637-127.996-4.946-189.566-20.369C576.474,621.292,516.864,597.03,460.238,563.308z"/>
		<path fill="#2E4C59" d="M600.003,797.265c-84.224,0-160.596-38.894-215.913-101.692s-89.577-149.499-89.577-245.113
			c0-14.743,0.821-29.451,2.452-44.025c1.631-14.574,4.072-29.013,7.312-43.215c0.739-3.237,2.52-6.025,4.945-8.033
			c2.425-2.009,5.495-3.238,8.812-3.36c3.343-0.135,6.496,0.864,9.057,2.69s4.531,4.479,5.508,7.652
			c13.502,43.891,31.621,81.695,54.198,113.191s49.613,56.685,80.949,75.345l0,0l0,0c53.885,32.089,111.077,55.846,171.139,71.167
			c60.062,15.321,122.992,22.206,188.354,20.551c2.876-0.056,5.544,0.655,7.819,1.989c2.275,1.333,4.159,3.288,5.468,5.721
			c1.312,2.435,1.882,5.136,1.729,7.795s-1.03,5.276-2.611,7.544c-29.187,41.878-65.617,74.827-106.489,97.306
			S646.964,797.265,600.003,797.265z M324.731,425.038c-0.295,4.223-0.516,8.455-0.663,12.693s-0.22,8.482-0.22,12.73
			c0,87.527,30.97,166.894,80.975,224.38s119.043,93.089,195.18,93.089c37.584,0,74.049-8.662,107.602-24.993
			c33.553-16.331,64.194-40.33,90.13-71.006c-62.419-0.852-122.611-9.339-180.228-25.373
			c-57.616-16.033-112.657-39.612-164.775-70.649l0,0l0,0c-27.589-16.43-52.109-37.3-73.472-62.486
			C357.897,488.237,339.691,458.734,324.731,425.038z"/>
	</g>
	<g>
		<g>
			<path fill="#EAEEEF" d="M908.094,811.16H600.002H291.91c-9.556,0-18.207-3.873-24.469-10.136
				c-6.262-6.262-10.136-14.914-10.136-24.469v-38.236v-38.236c0-9.556,3.873-18.207,10.136-24.469
				c6.262-6.262,14.914-10.136,24.469-10.136h308.092h308.092c9.556,0,18.207,3.873,24.469,10.136
				c6.262,6.262,10.136,14.914,10.136,24.469v38.236v38.236c0,9.556-3.873,18.207-10.136,24.469
				C926.301,807.287,917.65,811.16,908.094,811.16z"/>
			<path fill="#2E4C59" d="M918.683,825.828H600H281.317c-10.666,0-20.336-4.338-27.34-11.342s-11.341-16.674-11.341-27.339v-48.827
				v-48.827c0-10.664,4.337-20.335,11.341-27.339s16.674-11.342,27.34-11.342H600h318.683c10.666,0,20.336,4.338,27.34,11.342
				s11.341,16.674,11.341,27.339v48.827v48.827c0,10.664-4.337,20.335-11.341,27.339S929.349,825.828,918.683,825.828z
				 M281.317,680.147c-2.576,0-4.912,1.048-6.604,2.74c-1.692,1.692-2.741,4.028-2.741,6.605v48.827v48.827
				c0,2.577,1.049,4.913,2.741,6.605c1.692,1.692,4.029,2.74,6.604,2.74H600h318.683c2.576,0,4.912-1.048,6.604-2.74
				c1.692-1.692,2.741-4.028,2.741-6.605v-48.827v-48.827c0-2.577-1.049-4.913-2.741-6.605c-1.692-1.692-4.029-2.74-6.604-2.74H600
				H281.317z"/>
		</g>
		<g>
			<path fill="#EAEEEF" d="M813.437,1108.495H600.002H386.567c-10.235,0-20.103-4.184-27.791-11.001s-13.196-16.264-14.711-26.79
				L325.39,940.932L306.715,811.16h293.287h293.287l-18.675,129.772l-18.675,129.772c-1.515,10.526-7.023,19.974-14.711,26.79
				S823.672,1108.495,813.437,1108.495z"/>
			<path fill="#2E4C59" d="M813.434,1123.162H600H386.566c-13.955,0-27.193-5.531-37.452-14.593
				c-10.258-9.062-17.536-21.653-19.571-35.774l-18.673-129.774l-18.673-129.773c-0.304-2.106-0.142-4.225,0.444-6.22
				c0.586-1.995,1.596-3.866,2.988-5.474c1.392-1.607,3.1-2.873,4.991-3.736c1.892-0.864,3.967-1.326,6.096-1.326h293.286h293.286
				c2.129,0,4.204,0.462,6.096,1.326c1.892,0.864,3.599,2.129,4.991,3.736c1.392,1.609,2.402,3.479,2.988,5.474
				c0.586,1.995,0.748,4.114,0.444,6.22L889.132,943.02l-18.676,129.772c-2.034,14.122-9.312,26.715-19.571,35.777
				C840.628,1117.631,827.389,1123.162,813.434,1123.162z M323.648,825.828l17.467,121.394l17.467,121.394
				c0.983,6.833,4.678,13.135,9.778,17.73c5.1,4.595,11.605,7.481,18.205,7.481H600h213.434c6.601,0,13.105-2.886,18.205-7.481
				c5.1-4.595,8.796-10.898,9.778-17.732l17.47-121.392l17.47-121.392H600.003H323.648z"/>
		</g>
		<g opacity="0.35">
			<polygon fill="#2E4C59" points="876.529,927.626 884.909,869.393 893.289,811.16 600.002,811.16 306.715,811.16 315.095,869.393 
				323.475,927.626 600.002,927.626 			"/>
			<path fill="#2E4C59" d="M876.53,942.295H600.003H323.476c-3.647,0-7.017-1.34-9.606-3.582c-2.588-2.242-4.395-5.387-4.913-8.997
				l-8.38-58.234l-8.38-58.234c-0.304-2.106-0.142-4.225,0.444-6.22c0.586-1.995,1.596-3.866,2.988-5.474
				c1.392-1.607,3.1-2.873,4.991-3.736c1.892-0.864,3.967-1.326,6.096-1.326h293.286h293.286c2.129,0,4.204,0.462,6.096,1.326
				c1.892,0.864,3.599,2.129,4.991,3.736c1.392,1.609,2.402,3.479,2.988,5.474c0.586,1.995,0.748,4.114,0.444,6.22l-8.38,58.234
				l-8.38,58.234c-0.519,3.61-2.325,6.755-4.913,8.997C883.547,940.955,880.177,942.295,876.53,942.295z M336.184,912.959h263.818
				h263.818l6.268-43.566l6.268-43.566H600.003H323.648l6.268,43.566L336.184,912.959z"/>
		</g>
	</g>
	<g>
		<path fill="#9AA1A7" d="M872.36,1081.659H600.002H327.644c-6.84,0-13.033,2.773-17.515,7.255
			c-4.483,4.483-7.255,10.675-7.255,17.515v2.066v2.066c0,6.84,2.772,13.033,7.255,17.515c4.483,4.483,10.675,7.255,17.515,7.255
			h272.358H872.36c6.84,0,13.033-2.772,17.515-7.255c4.483-4.483,7.255-10.675,7.255-17.515v-2.066v-2.066
			c0-6.84-2.773-13.033-7.255-17.515C885.393,1084.432,879.2,1081.659,872.36,1081.659z"/>
		<path fill="#2E4C59" d="M870.296,1150H600.003H329.71c-11.442,0-21.819-4.655-29.335-12.17
			c-7.516-7.516-12.171-17.892-12.171-29.336c0-11.442,4.655-21.818,12.171-29.333c7.516-7.515,17.892-12.17,29.335-12.17h270.293
			h270.293c11.442,0,21.817,4.655,29.332,12.17c7.515,7.515,12.168,17.891,12.168,29.333c0,11.444-4.654,21.82-12.168,29.336
			C892.113,1145.345,881.738,1150,870.296,1150z M329.71,1096.327c-3.355,0-6.397,1.364-8.601,3.567
			c-2.204,2.203-3.569,5.245-3.569,8.6s1.365,6.397,3.569,8.601c2.204,2.204,5.246,3.569,8.601,3.569h270.293h270.293
			c3.355,0,6.396-1.365,8.598-3.569c2.202-2.204,3.566-5.246,3.566-8.601s-1.364-6.396-3.566-8.6
			c-2.202-2.203-5.243-3.567-8.598-3.567H600.003H329.71z"/>
	</g>
</g>
</svg>
