<?xml version="1.0" encoding="utf-8"?>
<!-- Generator: Adobe Illustrator 19.1.1, SVG Export Plug-In . SVG Version: 6.00 Build 0)  -->
<svg version="1.1" id="Layer_1" xmlns="http://www.w3.org/2000/svg" xmlns:xlink="http://www.w3.org/1999/xlink" x="0px" y="0px"
	 viewBox="0 0 1200 1200" enable-background="new 0 0 1200 1200" xml:space="preserve">
<g>
	<g>
		<path fill="#FFFFFF" d="M1089.008,955.923H600H110.992c-13.166,0-25.086-5.337-33.714-13.965
			c-8.628-8.628-13.965-20.548-13.965-33.714V599.999V291.754c0-13.166,5.337-25.086,13.965-33.714s20.548-13.965,33.714-13.965H600
			h489.008c13.166,0,25.086,5.337,33.714,13.965s13.965,20.548,13.965,33.714v308.246v308.246c0,13.166-5.337,25.086-13.965,33.714
			C1114.094,950.587,1102.174,955.923,1089.008,955.923z"/>
		<path fill="#2E4C59" d="M1103.603,969.241H600H96.397c-12.793,0-24.392-5.204-32.793-13.606S50,935.631,50,922.838V600V277.162
			c0-12.793,5.203-24.394,13.604-32.796c8.401-8.402,20-13.606,32.793-13.606H600h503.603c12.793,0,24.392,5.204,32.793,13.606
			c8.401,8.402,13.604,20.003,13.604,32.796V600v322.838c0,12.793-5.203,24.394-13.604,32.796
			C1127.995,964.036,1116.396,969.241,1103.603,969.241z M96.397,257.391c-5.449,0-10.39,2.217-13.969,5.797
			c-3.579,3.58-5.796,8.523-5.796,13.974V600v322.838c0,5.451,2.217,10.394,5.796,13.974c3.579,3.58,8.521,5.797,13.969,5.797H600
			h503.603c5.448,0,10.39-2.217,13.969-5.797c3.579-3.58,5.796-8.523,5.796-13.974V600V277.162c0-5.451-2.217-10.394-5.796-13.974
			c-3.579-3.58-8.521-5.797-13.969-5.797H600H96.397z"/>
	</g>
	<g>
		<path fill="#FDE9A4" d="M1136.687,357.552v-40.196V277.16c0-9.136-3.703-17.407-9.69-23.394c-5.987-5.987-14.258-9.69-23.395-9.69
			H600H96.398c-9.136,0-17.407,3.703-23.394,9.69c-5.987,5.987-9.69,14.258-9.69,23.394v40.196v40.196H600H1136.687z"/>
		<path fill="#2E4C59" d="M1136.684,370.867H600H63.316c-3.677,0-7.006-1.49-9.416-3.9c-2.41-2.41-3.9-5.739-3.9-9.416v-40.194
			v-40.194c0-12.793,5.203-24.394,13.604-32.796c8.401-8.402,20-13.606,32.793-13.606H600h503.603
			c12.793,0,24.392,5.204,32.793,13.606c8.401,8.402,13.604,20.003,13.604,32.796v40.194v40.194c0,3.677-1.49,7.006-3.9,9.416
			C1143.691,369.376,1140.362,370.867,1136.684,370.867z M76.632,344.235H600h523.368v-33.537v-33.537
			c0-5.451-2.217-10.394-5.796-13.974c-3.579-3.58-8.521-5.797-13.969-5.797H600H96.397c-5.449,0-10.39,2.217-13.969,5.797
			c-3.579,3.58-5.796,8.523-5.796,13.974v33.537V344.235z"/>
	</g>
	<g opacity="0.15">
		<polygon fill="#2E4C59" points="1136.687,761.109 600,761.109 63.313,761.109 63.313,605.758 63.313,450.407 600,450.407 
			1136.687,450.407 1136.687,605.758 		"/>
		<path fill="#2E4C59" d="M1136.684,774.424H600H63.316c-3.677,0-7.006-1.49-9.416-3.9s-3.9-5.739-3.9-9.416v-155.35v-155.35
			c0-3.677,1.49-7.006,3.9-9.416s5.739-3.9,9.416-3.9H600h536.684c3.677,0,7.006,1.49,9.416,3.9c2.41,2.41,3.9,5.739,3.9,9.416
			v155.35v155.35c0,3.677-1.49,7.006-3.9,9.416C1143.691,772.934,1140.362,774.424,1136.684,774.424z M76.632,747.792H600h523.368
			V605.758V463.724H600H76.632v142.034V747.792z"/>
	</g>
	<g opacity="0.15">
		<path fill="#2E4C59" d="M1112.27,943.092H600H87.731c-6.743,0-12.847-2.733-17.266-7.152s-7.152-10.523-7.152-17.266v-2.037
			v-2.037c0-6.743,2.733-12.847,7.152-17.266s10.523-7.152,17.266-7.152H600l512.269,0c6.743,0,12.847,2.733,17.266,7.152
			c4.419,4.419,7.152,10.523,7.152,17.266v2.037v2.037c0,6.743-2.733,12.847-7.152,17.266
			C1125.116,940.359,1119.012,943.092,1112.27,943.092z"/>
		<path fill="#2E4C59" d="M1110.235,956.408H600H89.765c-10.962,0-20.903-4.46-28.104-11.662C54.46,937.545,50,927.603,50,916.638
			c0-10.965,4.46-20.907,11.661-28.109c7.201-7.201,17.142-11.662,28.104-11.662H600h510.235c10.962,0,20.903,4.46,28.104,11.662
			c7.201,7.201,11.661,17.144,11.661,28.109c0,10.965-4.46,20.907-11.661,28.109
			C1131.138,951.948,1121.197,956.408,1110.235,956.408z M89.765,903.499c-3.62,0-6.904,1.473-9.282,3.852s-3.852,5.664-3.852,9.287
			c0,3.623,1.473,6.908,3.852,9.287s5.662,3.852,9.282,3.852H600h510.235c3.62,0,6.904-1.473,9.282-3.852
			c2.378-2.379,3.852-5.664,3.852-9.287c0-3.623-1.473-6.908-3.852-9.287c-2.378-2.379-5.662-3.852-9.282-3.852H600H89.765z"/>
	</g>
	<g>
		<polygon fill="#2E4C59" points="945.588,761.109 600.196,761.109 254.804,761.109 254.804,605.758 254.804,450.407 
			600.196,450.407 945.588,450.407 945.588,605.758 		"/>
		<path fill="#2E4C59" d="M945.587,774.424H600.195H254.803c-3.677,0-7.006-1.49-9.416-3.9s-3.9-5.739-3.9-9.416v-155.35v-155.35
			c0-3.677,1.49-7.006,3.9-9.416s5.739-3.9,9.416-3.9h345.392h345.392c3.677,0,7.006,1.49,9.416,3.9c2.41,2.41,3.9,5.739,3.9,9.416
			v155.35v155.35c0,3.677-1.49,7.006-3.9,9.416C952.593,772.934,949.264,774.424,945.587,774.424z M268.119,747.792h332.076h332.076
			V605.758V463.724H600.195H268.119v142.034V747.792z"/>
	</g>
	<g>
		<polyline fill="#2E4C59" points="252.944,831.595 602.779,831.595 952.614,831.595 		"/>
		<path fill="#2E4C59" d="M952.614,844.909H602.78H252.946c-3.677,0-7.006-1.49-9.416-3.9s-3.9-5.739-3.9-9.416
			c0-3.677,1.49-7.006,3.9-9.416s5.739-3.9,9.416-3.9H602.78h349.834c3.677,0,7.006,1.49,9.416,3.9s3.9,5.739,3.9,9.416
			c0,3.677-1.49,7.006-3.9,9.416S956.291,844.909,952.614,844.909z"/>
	</g>
	<g>
		<polyline fill="#2E4C59" points="252.944,890.185 602.779,890.185 952.614,890.185 		"/>
		<path fill="#2E4C59" d="M952.614,903.499H602.78H252.946c-3.677,0-7.006-1.49-9.416-3.9s-3.9-5.739-3.9-9.416
			c0-3.677,1.49-7.006,3.9-9.416s5.739-3.9,9.416-3.9H602.78h349.834c3.677,0,7.006,1.49,9.416,3.9s3.9,5.739,3.9,9.416
			c0,3.677-1.49,7.006-3.9,9.416S956.291,903.499,952.614,903.499z"/>
	</g>
	<g>
		<polyline fill="#2E4C59" points="1079.487,300.814 1059.861,300.814 1040.235,300.814 		"/>
		<path fill="#2E4C59" d="M1079.489,314.129h-19.628h-19.628c-3.677,0-7.006-1.49-9.416-3.9c-2.41-2.41-3.9-5.739-3.9-9.416
			c0-3.677,1.49-7.006,3.9-9.416c2.41-2.41,5.739-3.9,9.416-3.9h19.628h19.628c3.677,0,7.006,1.49,9.416,3.9
			c2.41,2.41,3.9,5.739,3.9,9.416c0,3.677-1.49,7.006-3.9,9.416C1086.495,312.639,1083.166,314.129,1079.489,314.129z"/>
	</g>
	<g>
		<polyline fill="#2E4C59" points="984.84,300.814 965.214,300.814 945.588,300.814 		"/>
		<path fill="#2E4C59" d="M984.842,314.129h-19.628h-19.628c-3.677,0-7.006-1.49-9.416-3.9c-2.41-2.41-3.9-5.739-3.9-9.416
			c0-3.677,1.49-7.006,3.9-9.416s5.739-3.9,9.416-3.9h19.628h19.628c3.677,0,7.006,1.49,9.416,3.9c2.41,2.41,3.9,5.739,3.9,9.416
			c0,3.677-1.49,7.006-3.9,9.416C991.849,312.639,988.52,314.129,984.842,314.129z"/>
	</g>
	<path fill="#FDE9A4" d="M566.149,681.853c-0.752,0-1.505-0.091-2.242-0.274s-1.459-0.457-2.148-0.824
		c-1.516-0.811-2.749-2.006-3.603-3.429s-1.328-3.073-1.328-4.794v-66.774v-66.774c0-1.722,0.475-3.372,1.328-4.794
		s2.086-2.618,3.603-3.429c1.521-0.809,3.202-1.166,4.858-1.083c1.657,0.083,3.29,0.607,4.718,1.562l49.833,33.388L671,598.016
		c1.293,0.866,2.326,2.025,3.037,3.356c0.711,1.331,1.098,2.834,1.098,4.389c0,1.555-0.388,3.058-1.098,4.389
		c-0.711,1.331-1.744,2.49-3.037,3.356l-49.833,33.386l-49.833,33.386c-0.78,0.523-1.623,0.917-2.497,1.18
		C567.963,681.721,567.056,681.853,566.149,681.853z M575.47,556.451v49.307v49.307l36.798-24.652l36.798-24.652l-36.798-24.655
		L575.47,556.451z"/>
	<path fill="#FDE9A4" d="M600.198,729.062c-33.997,0-64.823-13.828-87.151-36.155c-22.327-22.327-36.156-53.152-36.156-87.146
		c0-33.997,13.828-64.823,36.156-87.151s53.154-36.156,87.151-36.156c33.994,0,64.82,13.828,87.146,36.156
		c22.327,22.327,36.155,53.154,36.155,87.151c0,33.994-13.828,64.82-36.155,87.146C665.017,715.234,634.192,729.062,600.198,729.062
		z M600.198,501.096c-28.855,0-55.021,11.738-73.974,30.691s-30.691,45.118-30.691,73.974c0,28.855,11.738,55.02,30.691,73.971
		c18.952,18.951,45.118,30.688,73.974,30.688c28.855,0,55.02-11.737,73.971-30.688c18.951-18.951,30.688-45.116,30.688-73.971
		c0-28.855-11.737-55.021-30.688-73.974C655.218,512.835,629.053,501.096,600.198,501.096z"/>
</g>
</svg>
