<?xml version="1.0" encoding="utf-8"?>
<!-- Generator: Adobe Illustrator 19.1.1, SVG Export Plug-In . SVG Version: 6.00 Build 0)  -->
<svg version="1.1" id="Layer_1" xmlns="http://www.w3.org/2000/svg" xmlns:xlink="http://www.w3.org/1999/xlink" x="0px" y="0px"
	 viewBox="0 0 1200 1200" enable-background="new 0 0 1200 1200" xml:space="preserve">
<g>
	<g>
		<g>
			<path fill="#EAEEEF" d="M527.163,1016.004H379.714H232.265c-17.3,0-32.962-7.012-44.299-18.349
				c-11.337-11.337-18.349-26.999-18.349-44.299V644.902V336.448c0-17.3,7.012-32.962,18.349-44.299
				c11.337-11.337,26.999-18.349,44.299-18.349h147.449h147.449c17.3,0,32.962,7.012,44.299,18.349
				c11.337,11.337,18.349,26.999,18.349,44.299v308.454v308.453c0,17.3-7.012,32.962-18.349,44.299
				C560.125,1008.992,544.463,1016.004,527.163,1016.004z"/>
			<path fill="#2E4C59" d="M546.341,1029.061H379.715H213.09c-15.587,0-29.72-6.34-39.956-16.576
				c-10.236-10.236-16.576-24.369-16.576-39.956V644.901V317.272c0-15.587,6.34-29.72,16.576-39.956s24.369-16.576,39.956-16.576
				h166.625h166.625c15.587,0,29.72,6.34,39.956,16.576c10.236,10.236,16.576,24.369,16.576,39.956v327.629V972.53
				c0,15.587-6.339,29.719-16.576,39.956C576.06,1022.721,561.927,1029.061,546.341,1029.061z M213.09,286.858
				c-8.384,0-15.987,3.411-21.495,8.919c-5.507,5.507-8.919,13.111-8.919,21.495v327.629V972.53c0,8.384,3.411,15.987,8.919,21.494
				c5.507,5.507,13.111,8.919,21.495,8.919h166.625h166.625c8.384,0,15.987-3.411,21.495-8.919
				c5.507-5.507,8.919-13.111,8.919-21.494V644.901V317.272c0-8.384-3.411-15.987-8.919-21.495
				c-5.507-5.507-13.111-8.919-21.495-8.919H379.715H213.09z"/>
		</g>
		<g opacity="0.2">
			<path fill="#2E4C59" d="M169.616,976.025v1.841v1.841c0,10.023,4.063,19.097,10.631,25.665s15.642,10.631,25.665,10.631h173.801
				h173.801c10.023,0,19.097-4.063,25.665-10.631s10.631-15.642,10.631-25.665v-1.841v-1.841H379.714H169.616z"/>
			<path fill="#2E4C59" d="M553.513,1029.061h-173.8h-173.8c-13.607,0-25.946-5.535-34.883-14.471s-14.471-21.275-14.471-34.883
				v-1.842v-1.842c0-3.607,1.462-6.871,3.825-9.234c2.363-2.363,5.628-3.825,9.234-3.825h210.098h210.098
				c3.607,0,6.871,1.461,9.234,3.825c2.363,2.363,3.825,5.628,3.825,9.234v1.842v1.842c0,13.607-5.536,25.946-14.474,34.883
				C579.46,1023.526,567.12,1029.061,553.513,1029.061z M184.651,989.083c1.806,4.078,4.752,7.543,8.431,9.989
				c3.679,2.445,8.092,3.871,12.831,3.871h173.8h173.8c4.739,0,9.151-1.426,12.831-3.871s6.627-5.91,8.435-9.989H379.715H184.651z"
				/>
		</g>
		<g opacity="0.2">
			<polygon fill="#2E4C59" points="539.1,626.208 379.714,626.208 220.327,626.208 220.327,496.004 220.327,365.8 379.714,365.8 
				539.1,365.8 539.1,496.004 			"/>
			<path fill="#2E4C59" d="M539.102,639.269H379.715H220.329c-3.607,0-6.871-1.462-9.234-3.825
				c-2.363-2.363-3.825-5.628-3.825-9.234V496.005V365.799c0-3.607,1.462-6.871,3.825-9.234c2.363-2.363,5.628-3.825,9.234-3.825
				h159.387h159.387c3.607,0,6.871,1.461,9.234,3.825c2.363,2.363,3.825,5.628,3.825,9.234v130.205V626.21
				c0,3.607-1.461,6.871-3.825,9.234C545.973,637.807,542.709,639.269,539.102,639.269z M233.388,613.151h146.328h146.328V496.005
				V378.858H379.715H233.388v117.146V613.151z"/>
		</g>
		<g>
			<polygon fill="#2E4C59" points="539.1,591.318 379.714,591.318 220.327,591.318 220.327,461.113 220.327,330.909 
				379.714,330.909 539.1,330.909 539.1,461.113 			"/>
			<path fill="#2E4C59" d="M539.102,604.377H379.715H220.329c-3.607,0-6.871-1.461-9.234-3.825
				c-2.363-2.363-3.825-5.628-3.825-9.234V461.112V330.907c0-3.607,1.462-6.871,3.825-9.234c2.363-2.363,5.628-3.825,9.234-3.825
				h159.387h159.387c3.607,0,6.871,1.461,9.234,3.825c2.363,2.363,3.825,5.628,3.825,9.234v130.205v130.205
				c0,3.607-1.461,6.871-3.825,9.234C545.973,602.915,542.709,604.377,539.102,604.377z M233.388,578.259h146.328h146.328V461.112
				V343.966H379.715H233.388v117.146V578.259z"/>
		</g>
	</g>
	<path fill="#2E4C59" d="M912.126,1150H695.443H478.76c-30.908,0-58.934-12.573-79.233-32.873
		c-20.299-20.3-32.871-48.327-32.871-79.236v-10.945v-10.945c0-3.607,1.461-6.871,3.825-9.234c2.363-2.363,5.628-3.825,9.234-3.825
		s6.871,1.461,9.234,3.825c2.363,2.363,3.825,5.628,3.825,9.234v10.945v10.945c0,23.708,9.644,45.206,25.214,60.776
		c15.57,15.571,37.066,25.215,60.772,25.215h216.683h216.683c29.003,0,55.302-11.798,74.35-30.846s30.846-45.348,30.846-74.35
		V695.096V371.508c0-14.436-5.871-27.526-15.352-37.007c-9.481-9.481-22.57-15.352-37.007-15.352
		c-14.436,0-27.527,5.871-37.009,15.352s-15.355,22.57-15.355,37.007v268.215v268.215c0,31.857-12.958,60.744-33.881,81.666
		c-20.923,20.922-49.809,33.881-81.666,33.881s-60.745-12.958-81.669-33.881c-20.924-20.923-33.883-49.809-33.883-81.666V544.014
		V180.091c0-11.029-4.487-21.03-11.73-28.273c-7.244-7.244-17.245-11.73-28.273-11.73H516.407H391.315
		c-3.607,0-6.871-1.462-9.234-3.825c-2.363-2.363-3.825-5.628-3.825-9.234s1.461-6.871,3.825-9.234
		c2.363-2.363,5.628-3.825,9.234-3.825h125.091h125.091c18.229,0,34.76,7.416,46.733,19.389
		c11.973,11.973,19.389,28.504,19.389,46.733v363.924v363.924c0,24.657,10.03,47.014,26.225,63.207
		c16.194,16.193,38.553,26.222,63.209,26.222s47.014-10.029,63.207-26.222c16.193-16.193,26.222-38.55,26.222-63.207V639.723
		V371.508c0-21.637,8.802-41.256,23.013-55.466c14.211-14.21,33.832-23.011,55.468-23.011c21.637,0,41.256,8.801,55.466,23.011
		c14.21,14.21,23.011,33.829,23.011,55.466v323.589v323.589c0,36.203-14.727,69.032-38.505,92.81
		C981.158,1135.273,948.33,1150,912.126,1150z"/>
	<g>
		<g>
			<path fill="#EAEEEF" d="M353.825,169.912h-45.738h-45.738c-10.353,0-19.725-4.196-26.509-10.981s-10.981-16.157-10.981-26.509
				v-3.127v-3.127c0-10.353,4.196-19.725,10.981-26.509s16.157-10.981,26.509-10.981h45.738h45.738
				c10.353,0,19.725,4.196,26.509,10.981s10.981,16.157,10.981,26.509v3.127v3.127c0,10.353-4.196,19.725-10.981,26.509
				S364.178,169.912,353.825,169.912z"/>
			<path fill="#2E4C59" d="M350.7,182.973h-42.613h-42.613c-14.799,0-28.217-6.021-37.936-15.741
				c-9.719-9.72-15.738-23.14-15.738-37.939s6.019-28.217,15.738-37.936s23.138-15.738,37.936-15.738h42.613H350.7
				c14.799,0,28.217,6.019,37.936,15.738c9.719,9.719,15.738,23.138,15.738,37.936s-6.019,28.219-15.738,37.939
				C378.917,176.952,365.498,182.973,350.7,182.973z M265.474,101.736c-7.598,0-14.487,3.09-19.477,8.08
				c-4.99,4.99-8.08,11.879-8.08,19.477c0,7.598,3.09,14.489,8.08,19.48c4.99,4.991,11.879,8.082,19.477,8.082h42.613H350.7
				c7.598,0,14.487-3.091,19.477-8.082c4.99-4.991,8.08-11.881,8.08-19.48c0-7.598-3.09-14.487-8.08-19.477
				c-4.99-4.99-11.879-8.08-19.477-8.08h-42.613H265.474z"/>
		</g>
		<g opacity="0.2">
			<path fill="#2E4C59" d="M225.309,135.022c1.395,9.856,6.316,18.579,13.448,24.838c7.133,6.258,16.477,10.053,26.719,10.053
				h42.611h42.611c10.241,0,19.586-3.794,26.719-10.053c7.133-6.258,12.054-14.981,13.448-24.838h-82.778H225.309z"/>
			<path fill="#2E4C59" d="M350.7,182.973h-42.613h-42.613c-13.273,0-25.617-4.957-35.108-13.201
				c-9.491-8.244-16.129-19.773-17.991-32.919c-0.265-1.872-0.117-3.757,0.407-5.531c0.524-1.774,1.425-3.437,2.664-4.865
				c1.24-1.426,2.758-2.549,4.441-3.316s3.527-1.178,5.42-1.178h82.78h82.78c1.893,0,3.738,0.411,5.42,1.178
				c1.682,0.767,3.201,1.891,4.441,3.316c1.24,1.428,2.14,3.091,2.664,4.865c0.524,1.774,0.672,3.659,0.407,5.531
				c-1.862,13.146-8.5,24.676-17.991,32.919C376.317,178.016,363.973,182.973,350.7,182.973z M245.391,148.081
				c2.533,2.709,5.597,4.902,9.007,6.419s7.164,2.355,11.077,2.355h42.613H350.7c3.913,0,7.667-0.839,11.077-2.355
				c3.409-1.516,6.474-3.71,9.007-6.419h-62.696H245.391z"/>
		</g>
		<g>
			<path fill="#EAEEEF" d="M297.547,127.026c0,17.664-7.16,33.655-18.735,45.231c-11.576,11.576-27.567,18.735-45.231,18.735
				s-33.655-7.16-45.231-18.735s-18.735-27.567-18.735-45.231s7.16-33.655,18.735-45.231s27.567-18.735,45.231-18.735
				s33.655,7.16,45.231,18.735C290.388,93.371,297.547,109.362,297.547,127.026z"/>
			<path fill="#2E4C59" d="M233.582,204.051c-21.236,0-40.492-8.638-54.439-22.584s-22.584-33.202-22.584-54.439
				s8.638-40.493,22.584-54.441S212.345,50,233.582,50s40.492,8.639,54.439,22.587s22.584,33.205,22.584,54.441
				s-8.638,40.492-22.584,54.439S254.818,204.051,233.582,204.051z M233.582,76.118c-14.033,0-26.76,5.71-35.977,14.928
				c-9.218,9.218-14.927,21.946-14.927,35.982c0,14.033,5.71,26.76,14.927,35.977c9.218,9.218,21.944,14.927,35.977,14.927
				s26.76-5.71,35.977-14.927c9.218-9.218,14.927-21.944,14.927-35.977c0-14.036-5.71-26.763-14.927-35.982
				C260.341,81.828,247.615,76.118,233.582,76.118z"/>
		</g>
		<g>
			<path fill="#9AA1A7" d="M256.063,127.026c0,6.208-2.516,11.829-6.585,15.897c-4.068,4.068-9.689,6.585-15.897,6.585
				c-6.208,0-11.829-2.516-15.897-6.585c-4.068-4.068-6.585-9.689-6.585-15.897s2.516-11.829,6.585-15.897
				c4.068-4.068,9.689-6.585,15.897-6.585c6.208,0,11.829,2.516,15.897,6.585C253.547,115.197,256.063,120.818,256.063,127.026z"/>
			<path fill="#2E4C59" d="M233.582,162.568c-9.799,0-18.684-3.985-25.12-10.42s-10.42-15.32-10.42-25.12s3.985-18.686,10.42-25.122
				s15.32-10.423,25.12-10.423c9.799,0,18.684,3.987,25.12,10.423c6.435,6.436,10.42,15.323,10.42,25.122s-3.985,18.684-10.42,25.12
				C252.266,158.583,243.381,162.568,233.582,162.568z M233.582,117.601c-2.596,0-4.952,1.057-6.658,2.764s-2.764,4.064-2.764,6.663
				c0,2.597,1.057,4.952,2.764,6.658s4.062,2.764,6.658,2.764c2.597,0,4.952-1.057,6.658-2.764s2.764-4.062,2.764-6.658
				c0-2.599-1.057-4.956-2.764-6.663S236.178,117.601,233.582,117.601z"/>
		</g>
	</g>
	<path fill="#2E4C59" d="M899.542,925.849c-32.109,0-61.224-13.062-82.312-34.151c-21.088-21.089-34.148-50.205-34.148-82.315
		V544.665V279.946c0-3.607,1.461-6.871,3.825-9.234c2.363-2.363,5.628-3.825,9.234-3.825c3.607,0,6.871,1.461,9.234,3.825
		c2.363,2.363,3.825,5.628,3.825,9.234v264.719v264.719c0,24.909,10.132,47.496,26.491,63.855
		c16.359,16.359,38.944,26.492,63.851,26.492c3.607,0,6.871,1.461,9.234,3.825c2.363,2.363,3.825,5.628,3.825,9.234
		s-1.462,6.871-3.825,9.234C906.413,924.387,903.148,925.849,899.542,925.849z"/>
	<g>
		<g>
			<path fill="#EAEEEF" d="M753.254,247.27v-45.738v-45.738c0-10.353,4.196-19.725,10.981-26.509s16.157-10.981,26.509-10.981h3.127
				h3.127c10.353,0,19.725,4.196,26.509,10.981s10.981,16.157,10.981,26.509v45.738v45.738c0,10.353-4.196,19.725-10.981,26.509
				c-6.784,6.784-16.157,10.981-26.509,10.981h-3.127h-3.127c-10.353,0-19.725-4.196-26.509-10.981
				C757.45,266.995,753.254,257.622,753.254,247.27z"/>
			<path fill="#2E4C59" d="M793.871,297.821c-14.799,0-28.217-6.021-37.936-15.741c-9.719-9.72-15.738-23.14-15.738-37.939v-42.61
				v-42.61c0-14.799,6.019-28.217,15.738-37.936c9.719-9.719,23.138-15.738,37.936-15.738c14.799,0,28.217,6.019,37.936,15.738
				s15.738,23.138,15.738,37.936v42.61v42.61c0,14.799-6.019,28.219-15.738,37.939C822.088,291.8,808.669,297.821,793.871,297.821z
				 M793.871,131.364c-7.598,0-14.487,3.09-19.477,8.08c-4.99,4.99-8.08,11.879-8.08,19.477v42.61v42.61
				c0,7.598,3.09,14.489,8.08,19.48c4.99,4.991,11.879,8.082,19.477,8.082c7.598,0,14.487-3.091,19.477-8.082
				c4.99-4.991,8.08-11.881,8.08-19.48v-42.61v-42.61c0-7.598-3.09-14.487-8.08-19.477
				C808.358,134.454,801.469,131.364,793.871,131.364z"/>
		</g>
		<g opacity="0.2">
			<path fill="#2E4C59" d="M788.144,118.753c-9.856,1.395-18.579,6.316-24.838,13.448c-6.258,7.133-10.053,16.477-10.053,26.719
				v42.611v42.611c0,10.241,3.794,19.586,10.053,26.719s14.981,12.054,24.838,13.448v-82.778V118.753z"/>
			<path fill="#2E4C59" d="M788.142,297.367c-0.303,0-0.608-0.01-0.913-0.031c-0.305-0.021-0.61-0.053-0.913-0.096
				c-13.146-1.857-24.676-8.492-32.919-17.983c-8.244-9.491-13.201-21.837-13.201-35.115v-42.61v-42.61
				c0-13.273,4.956-25.617,13.198-35.108s19.771-16.129,32.917-17.991c1.887-0.265,3.772-0.117,5.542,0.407
				c1.77,0.524,3.425,1.425,4.854,2.664c1.426,1.24,2.549,2.758,3.316,4.441c0.767,1.682,1.178,3.527,1.178,5.42v82.777v82.777
				c0,1.89-0.409,3.734-1.176,5.416c-0.766,1.682-1.89,3.202-3.318,4.444c-1.196,1.038-2.556,1.838-4.007,2.378
				S789.706,297.367,788.142,297.367z M775.083,138.837c-2.706,2.535-4.898,5.601-6.414,9.011c-1.516,3.41-2.355,7.163-2.355,11.073
				v42.61v42.61c0,3.913,0.839,7.667,2.355,11.077s3.708,6.476,6.414,9.011v-62.696V138.837z"/>
		</g>
		<g>
			<path fill="#EAEEEF" d="M796.14,190.992c-17.664,0-33.655-7.16-45.231-18.735c-11.576-11.576-18.735-27.567-18.735-45.231
				s7.16-33.655,18.735-45.231C762.485,70.22,778.476,63.06,796.14,63.06s33.655,7.16,45.231,18.735
				c11.576,11.576,18.735,27.567,18.735,45.231s-7.16,33.655-18.735,45.231C829.795,183.832,813.803,190.992,796.14,190.992z"/>
			<path fill="#2E4C59" d="M796.141,204.051c-21.236,0-40.493-8.638-54.441-22.584c-13.948-13.947-22.587-33.202-22.587-54.439
				s8.639-40.493,22.587-54.441C755.647,58.639,774.904,50,796.141,50c21.236,0,40.492,8.639,54.439,22.587
				s22.584,33.205,22.584,54.441s-8.638,40.492-22.584,54.439S817.377,204.051,796.141,204.051z M796.141,76.118
				c-14.036,0-26.763,5.71-35.982,14.928c-9.219,9.218-14.928,21.946-14.928,35.982c0,14.033,5.71,26.76,14.928,35.977
				c9.218,9.218,21.946,14.927,35.982,14.927c14.033,0,26.76-5.71,35.977-14.927c9.218-9.218,14.927-21.944,14.927-35.977
				c0-14.036-5.709-26.763-14.927-35.982C822.9,81.828,810.174,76.118,796.141,76.118z"/>
		</g>
		<g>
			<path fill="#9AA1A7" d="M796.14,149.508c-6.208,0-11.829-2.516-15.898-6.585c-4.068-4.069-6.585-9.689-6.585-15.897
				c0-6.208,2.516-11.829,6.585-15.897c4.069-4.069,9.689-6.585,15.898-6.585s11.829,2.516,15.898,6.585
				c4.068,4.069,6.585,9.689,6.585,15.897c0,6.208-2.516,11.829-6.585,15.897C807.969,146.992,802.348,149.508,796.14,149.508z"/>
			<path fill="#2E4C59" d="M796.141,162.568c-9.799,0-18.686-3.985-25.122-10.42c-6.436-6.435-10.423-15.32-10.423-25.12
				s3.987-18.686,10.423-25.122c6.436-6.436,15.323-10.423,25.122-10.423c9.799,0,18.684,3.987,25.12,10.423
				c6.435,6.436,10.42,15.323,10.42,25.122s-3.985,18.684-10.42,25.12C814.825,158.583,805.94,162.568,796.141,162.568z
				 M796.141,117.601c-2.599,0-4.956,1.057-6.663,2.764c-1.707,1.707-2.764,4.064-2.764,6.663c0,2.597,1.057,4.952,2.764,6.658
				c1.707,1.706,4.064,2.764,6.663,2.764c2.596,0,4.952-1.057,6.658-2.764c1.706-1.706,2.764-4.062,2.764-6.658
				c0-2.599-1.057-4.956-2.764-6.663C801.093,118.658,798.737,117.601,796.141,117.601z"/>
		</g>
	</g>
	<g opacity="0.2">
		<path fill="#2E4C59" d="M504.409,804.481c0,34.434-13.957,65.607-36.522,88.173s-53.739,36.522-88.173,36.522
			s-65.607-13.957-88.173-36.522s-36.522-53.739-36.522-88.173s13.957-65.607,36.522-88.173s53.739-36.522,88.173-36.522
			s65.607,13.957,88.173,36.522S504.409,770.047,504.409,804.481z"/>
		<path fill="#2E4C59" d="M379.715,942.234c-37.981,0-72.42-15.449-97.365-40.392c-24.944-24.944-40.393-59.382-40.393-97.36
			c0-37.978,15.449-72.416,40.393-97.36c24.944-24.944,59.384-40.393,97.365-40.393c37.978,0,72.416,15.449,97.36,40.393
			s40.392,59.382,40.392,97.36c0,37.978-15.449,72.417-40.392,97.36S417.694,942.234,379.715,942.234z M379.715,692.847
			c-30.778,0-58.688,12.52-78.903,32.734s-32.736,48.123-32.736,78.901c0,30.778,12.521,58.687,32.736,78.901
			s48.125,32.734,78.903,32.734s58.687-12.52,78.901-32.734c20.214-20.214,32.734-48.123,32.734-78.901
			c0-30.778-12.52-58.687-32.734-78.901C438.402,705.366,410.493,692.847,379.715,692.847z"/>
	</g>
	<g>
		<path fill="#EAEEEF" d="M462.669,804.481c0,22.908-9.285,43.647-24.297,58.659c-15.012,15.012-35.751,24.297-58.659,24.297
			s-43.647-9.285-58.659-24.297c-15.012-15.012-24.297-35.751-24.297-58.659s9.285-43.647,24.297-58.659
			c15.012-15.012,35.751-24.297,58.659-24.297s43.647,9.285,58.659,24.297C453.384,760.834,462.669,781.573,462.669,804.481z"/>
		<path fill="#2E4C59" d="M379.715,900.496c-26.47,0-50.474-10.769-67.86-28.155c-17.386-17.386-28.155-41.39-28.155-67.86
			c0-26.47,10.769-50.474,28.155-67.86c17.386-17.386,41.39-28.155,67.86-28.155c26.47,0,50.474,10.769,67.86,28.155
			c17.386,17.386,28.155,41.39,28.155,67.86c0,26.47-10.769,50.474-28.155,67.86S406.185,900.496,379.715,900.496z M379.715,734.585
			c-19.27,0-36.744,7.839-49.401,20.496c-12.657,12.657-20.496,30.131-20.496,49.401c0,19.27,7.839,36.744,20.496,49.401
			c12.657,12.657,30.131,20.496,49.401,20.496s36.744-7.839,49.401-20.496s20.496-30.131,20.496-49.401
			c0-19.27-7.839-36.744-20.496-49.401S398.985,734.585,379.715,734.585z"/>
	</g>
	<g>
		<path fill="#EAEEEF" d="M423.331,804.481c0,12.044-4.882,22.949-12.775,30.842s-18.797,12.775-30.842,12.775
			s-22.949-4.882-30.842-12.775s-12.775-18.797-12.775-30.842s4.882-22.949,12.775-30.842s18.797-12.775,30.842-12.775
			s22.949,4.882,30.842,12.775S423.331,792.436,423.331,804.481z"/>
		<path fill="#2E4C59" d="M379.715,861.155c-15.628,0-29.797-6.356-40.06-16.618c-10.263-10.262-16.619-24.431-16.619-40.056
			s6.356-29.793,16.619-40.056c10.263-10.262,24.433-16.618,40.06-16.618c15.625,0,29.793,6.356,40.056,16.618
			c10.262,10.262,16.618,24.431,16.618,40.056s-6.356,29.794-16.618,40.056C409.509,854.799,395.34,861.155,379.715,861.155z
			 M379.715,773.925c-8.425,0-16.065,3.427-21.599,8.96s-8.962,13.172-8.962,21.596s3.428,16.064,8.962,21.597
			c5.534,5.533,13.174,8.96,21.599,8.96c8.425,0,16.064-3.427,21.597-8.96c5.533-5.533,8.96-13.172,8.96-21.597
			s-3.427-16.064-8.96-21.596C395.779,777.352,388.14,773.925,379.715,773.925z"/>
	</g>
	<path fill="#FFFFFF" d="M350.062,524.931c-0.737,0-1.476-0.089-2.199-0.268c-0.723-0.179-1.431-0.448-2.107-0.808
		c-1.487-0.796-2.696-1.968-3.533-3.363c-0.837-1.395-1.303-3.013-1.303-4.702v-54.677v-54.677c0-1.689,0.465-3.307,1.303-4.702
		c0.837-1.395,2.046-2.567,3.533-3.363c1.495-0.793,3.144-1.144,4.768-1.062c1.625,0.082,3.225,0.596,4.623,1.532l40.804,27.34
		l40.804,27.34c1.268,0.849,2.282,1.986,2.978,3.291c0.697,1.305,1.077,2.78,1.077,4.305c0,1.525-0.38,3-1.077,4.305
		c-0.697,1.305-1.711,2.442-2.978,3.291l-40.804,27.337l-40.804,27.337c-0.765,0.513-1.592,0.899-2.449,1.157
		C351.841,524.801,350.952,524.931,350.062,524.931z M359.203,423.565v37.547v37.547l28.023-18.772l28.023-18.772l-28.023-18.775
		L359.203,423.565z"/>
</g>
</svg>
