<?xml version="1.0" encoding="utf-8"?>
<!-- Generator: Adobe Illustrator 19.1.1, SVG Export Plug-In . SVG Version: 6.00 Build 0)  -->
<svg version="1.1" id="Layer_1" xmlns="http://www.w3.org/2000/svg" xmlns:xlink="http://www.w3.org/1999/xlink" x="0px" y="0px"
	 viewBox="0 0 1200 1200" enable-background="new 0 0 1200 1200" xml:space="preserve">
<g>
	<g>
		<g>
			<path fill="#ABE1ED" d="M1090.973,747.882H699.522H308.071c-12.455,0-23.731-5.048-31.893-13.211
				c-8.162-8.162-13.211-19.438-13.211-31.893V447.165V191.552c0-12.455,5.048-23.731,13.211-31.893s19.438-13.211,31.893-13.211
				h391.451h391.451c12.455,0,23.731,5.048,31.893,13.211s13.211,19.438,13.211,31.893v255.613v255.613
				c0,12.455-5.048,23.731-13.211,31.893C1114.704,742.833,1103.428,747.882,1090.973,747.882z"/>
			<path fill="#2E4C59" d="M1104.777,761.802H699.521H294.266c-12.467,0-23.771-5.071-31.959-13.259
				c-8.188-8.188-13.259-19.492-13.259-31.959V447.165V177.746c0-12.467,5.071-23.772,13.259-31.96
				c8.188-8.188,19.492-13.26,31.959-13.26h405.256h405.256c12.467,0,23.772,5.072,31.961,13.26
				c8.189,8.188,13.261,19.493,13.261,31.96v269.419v269.419c0,12.467-5.072,23.771-13.261,31.959
				C1128.55,756.731,1117.244,761.802,1104.777,761.802z M294.266,160.369c-4.791,0-9.135,1.949-12.28,5.095
				c-3.146,3.147-5.094,7.491-5.094,12.282v269.419v269.419c0,4.79,1.948,9.133,5.094,12.279c3.146,3.146,7.49,5.095,12.28,5.095
				h405.256h405.256c4.791,0,9.136-1.949,12.283-5.095c3.147-3.146,5.097-7.49,5.097-12.279V447.165V177.746
				c0-4.791-1.949-9.135-5.097-12.282c-3.147-3.147-7.492-5.095-12.283-5.095H699.521H294.266z"/>
		</g>
		<g opacity="0.2">
			<path fill="#2E4C59" d="M961.257,747.882H634.664H308.071c-12.455,0-23.731-5.048-31.893-13.211
				c-8.162-8.162-13.211-19.438-13.211-31.893v-212.85v-212.85c0-12.455,5.048-23.731,13.211-31.893
				c8.162-8.162,19.438-13.211,31.893-13.211h326.593h326.593c12.455,0,23.731,5.048,31.893,13.211
				c8.162,8.162,13.211,19.438,13.211,31.893v212.85v212.85c0,12.455-5.048,23.731-13.211,31.893
				C984.988,742.833,973.712,747.882,961.257,747.882z"/>
			<path fill="#2E4C59" d="M975.064,761.802H634.665H294.266c-12.467,0-23.771-5.071-31.959-13.259
				c-8.188-8.188-13.259-19.492-13.259-31.959V489.929V263.273c0-12.467,5.071-23.772,13.259-31.96
				c8.188-8.188,19.492-13.26,31.959-13.26h340.399h340.399c12.467,0,23.771,5.072,31.959,13.26
				c8.188,8.188,13.259,19.493,13.259,31.96v226.656v226.656c0,12.467-5.071,23.771-13.259,31.959
				C998.835,756.731,987.531,761.802,975.064,761.802z M294.266,245.896c-4.791,0-9.135,1.949-12.28,5.095
				c-3.146,3.147-5.094,7.491-5.094,12.282v226.656v226.656c0,4.79,1.948,9.133,5.094,12.279c3.146,3.146,7.49,5.095,12.28,5.095
				h340.399h340.399c4.791,0,9.135-1.949,12.28-5.095c3.146-3.146,5.094-7.49,5.094-12.279V489.929V263.273
				c0-4.791-1.948-9.135-5.094-12.282c-3.146-3.147-7.49-5.095-12.28-5.095H634.665H294.266z"/>
		</g>
		<g>
			<path fill="#FDE9A4" d="M895.971,901.41H551.152H206.334l-71.206,76.072l-71.206,76.072V697.295V341.037
				c0-11.339,4.596-21.604,12.026-29.034c7.431-7.431,17.696-12.026,29.034-12.026h395.494h395.494
				c11.339,0,21.604,4.596,29.034,12.026c7.431,7.431,12.026,17.696,12.026,29.034v259.656v259.656
				c0,11.339-4.596,21.604-12.026,29.034C917.575,896.814,907.309,901.41,895.971,901.41z"/>
			<path fill="#2E4C59" d="M63.916,1067.474c-0.856,0-1.718-0.079-2.574-0.241c-0.855-0.161-1.703-0.405-2.533-0.732
				c-2.659-1.05-4.862-2.858-6.399-5.118c-1.538-2.26-2.41-4.972-2.41-7.83V697.295V341.037c0-15.159,6.167-28.904,16.123-38.86
				s23.702-16.122,38.861-16.122h395.495h395.495c15.159,0,28.903,6.166,38.858,16.122c9.955,9.956,16.12,23.701,16.12,38.86
				v259.657V860.35c0,15.159-6.165,28.904-16.12,38.86c-9.955,9.956-23.7,16.122-38.858,16.122H554.171H212.369l-69.142,73.868
				l-69.142,73.868c-1.343,1.434-2.941,2.536-4.675,3.279C67.676,1067.089,65.806,1067.474,63.916,1067.474z M104.984,313.898
				c-7.483,0-14.268,3.043-19.183,7.957c-4.915,4.914-7.959,11.699-7.959,19.181v338.636v338.636l59.163-63.206l59.163-63.206
				c1.316-1.406,2.894-2.508,4.625-3.258c1.731-0.75,3.614-1.149,5.539-1.149h344.82h344.82c7.483,0,14.267-3.043,19.18-7.957
				s7.956-11.699,7.956-19.181V600.693V341.037c0-7.483-3.043-14.267-7.956-19.181s-11.697-7.957-19.18-7.957H500.479H104.984z"/>
		</g>
	</g>
	<g>
		<path fill="#2E4C59" d="M792.765,474.018H500.476H208.187c-3.845,0-7.325-1.558-9.844-4.077c-2.519-2.519-4.077-6-4.077-9.844
			s1.558-7.325,4.077-9.844s6-4.077,9.844-4.077h292.289h292.289c3.845,0,7.325,1.558,9.844,4.077s4.077,6,4.077,9.844
			s-1.558,7.325-4.077,9.844C800.09,472.46,796.609,474.018,792.765,474.018z"/>
		<path fill="#2E4C59" d="M792.765,616.18H500.476H208.187c-3.845,0-7.325-1.558-9.844-4.077s-4.077-6-4.077-9.844
			c0-3.845,1.558-7.325,4.077-9.844s6-4.077,9.844-4.077h292.289h292.289c3.845,0,7.325,1.558,9.844,4.077s4.077,6,4.077,9.844
			c0,3.845-1.558,7.325-4.077,9.844S796.609,616.18,792.765,616.18z"/>
		<path fill="#2E4C59" d="M792.765,758.338H500.476H208.187c-3.845,0-7.325-1.558-9.844-4.077s-4.077-6-4.077-9.844
			s1.558-7.325,4.077-9.844c2.519-2.519,6-4.077,9.844-4.077h292.289h292.289c3.845,0,7.325,1.558,9.844,4.077
			c2.519,2.519,4.077,6,4.077,9.844s-1.558,7.325-4.077,9.844S796.609,758.338,792.765,758.338z"/>
	</g>
</g>
</svg>
