<?xml version="1.0" encoding="utf-8"?>
<!-- Generator: Adobe Illustrator 19.1.1, SVG Export Plug-In . SVG Version: 6.00 Build 0)  -->
<svg version="1.1" id="Layer_1" xmlns="http://www.w3.org/2000/svg" xmlns:xlink="http://www.w3.org/1999/xlink" x="0px" y="0px"
	 viewBox="0 0 1200 1200" enable-background="new 0 0 1200 1200" xml:space="preserve">
<g>
	<g>
		<g>
			<polygon fill="#ABE1ED" points="1029.54,997.523 774.556,997.523 519.572,997.523 519.572,628.353 519.572,259.183 
				826.637,259.183 1133.702,259.183 1133.702,581.152 1133.702,903.121 1081.621,950.322 			"/>
			<path fill="#2E4C59" d="M1029.539,1013.82H774.555H519.572c-4.501,0-8.576-1.824-11.525-4.773
				c-2.949-2.949-4.773-7.024-4.773-11.525v-369.17v-369.17c0-4.501,1.824-8.576,4.773-11.525c2.949-2.949,7.024-4.773,11.525-4.773
				h307.065h307.065c4.501,0,8.576,1.824,11.525,4.773c2.949,2.949,4.773,7.024,4.773,11.525v321.97v321.97
				c0,2.3-0.486,4.547-1.399,6.604c-0.912,2.058-2.251,3.927-3.956,5.473l-52.082,47.2l-52.081,47.2
				c-1.499,1.358-3.224,2.413-5.079,3.129S1031.562,1013.82,1029.539,1013.82z M535.871,981.224h243.691h243.691l47.076-42.664
				l47.076-42.664V585.688V275.48H826.637H535.871v352.872V981.224z"/>
		</g>
		<g>
			<g>
				<polyline fill="#EAEEEF" points="1029.539,738.248 820.264,738.248 610.989,738.248 				"/>
				<path fill="#2E4C59" d="M1029.539,754.546H820.264H610.989c-4.501,0-8.576-1.824-11.525-4.773
					c-2.949-2.949-4.773-7.024-4.773-11.525s1.824-8.576,4.773-11.525s7.024-4.773,11.525-4.773h209.275h209.275
					c4.501,0,8.576,1.824,11.525,4.773c2.949,2.949,4.773,7.024,4.773,11.525s-1.824,8.576-4.773,11.525
					C1038.114,752.722,1034.04,754.546,1029.539,754.546z"/>
			</g>
			<g>
				<polyline fill="#EAEEEF" points="1029.539,830.142 820.264,830.142 610.989,830.142 				"/>
				<path fill="#2E4C59" d="M1029.539,846.441H820.264H610.989c-4.501,0-8.576-1.824-11.525-4.773
					c-2.949-2.949-4.773-7.024-4.773-11.525c0-4.501,1.824-8.576,4.773-11.525c2.949-2.949,7.024-4.773,11.525-4.773h209.275
					h209.275c4.501,0,8.576,1.824,11.525,4.773c2.949,2.949,4.773,7.024,4.773,11.525c0,4.501-1.824,8.576-4.773,11.525
					C1038.114,844.617,1034.04,846.441,1029.539,846.441z"/>
			</g>
			<g>
				<polyline fill="#EAEEEF" points="1029.539,922.036 820.264,922.036 610.989,922.036 				"/>
				<path fill="#2E4C59" d="M1029.539,938.336H820.264H610.989c-4.501,0-8.576-1.824-11.525-4.773
					c-2.949-2.949-4.773-7.024-4.773-11.525c0-4.501,1.824-8.576,4.773-11.525c2.949-2.949,7.024-4.773,11.525-4.773h209.275
					h209.275c4.501,0,8.576,1.824,11.525,4.773c2.949,2.949,4.773,7.024,4.773,11.525c0,4.501-1.824,8.576-4.773,11.525
					C1038.114,936.512,1034.04,938.336,1029.539,938.336z"/>
			</g>
		</g>
		<g opacity="0.2">
			<path fill="#2E4C59" d="M1133.702,830.142H947.087H760.472c0,0-16.971,41.845-55.568,83.69s-98.823,83.69-185.332,83.69v-369.17
				v-369.17h307.065h307.065v285.48V830.142z"/>
			<path fill="#2E4C59" d="M519.572,1013.82c-4.501,0-8.576-1.824-11.525-4.773c-2.949-2.949-4.773-7.024-4.773-11.525v-369.17
				v-369.17c0-4.501,1.824-8.576,4.773-11.525c2.949-2.949,7.024-4.773,11.525-4.773h307.065h307.065
				c4.501,0,8.576,1.824,11.525,4.773c2.949,2.949,4.773,7.024,4.773,11.525v285.48v285.481c0,4.501-1.824,8.576-4.773,11.525
				c-2.949,2.949-7.024,4.773-11.525,4.773H952.263H770.825c-9.427,18.866-33.187,60.711-74.117,97.839
				S597.679,1013.82,519.572,1013.82z M535.871,275.48v352.598v352.598c74.159-5.02,126.38-43.805,160.138-81.525
				s49.053-74.374,49.36-75.134c1.248-3.075,3.365-5.618,5.999-7.393c2.635-1.775,5.787-2.781,9.105-2.781h178.465h178.465V544.662
				V275.48H826.637H535.871z"/>
		</g>
		<g>
			<polygon fill="#FDE9A4" points="1038.085,768.823 731.02,768.823 423.955,768.823 423.955,427.46 423.955,86.096 731.02,86.096 
				1038.085,86.096 1038.085,427.46 			"/>
			<path fill="#2E4C59" d="M1038.086,785.122H731.021H423.956c-4.501,0-8.576-1.824-11.525-4.773
				c-2.949-2.949-4.773-7.024-4.773-11.525V427.46V86.097c0-4.501,1.824-8.576,4.773-11.525c2.949-2.949,7.024-4.773,11.525-4.773
				h307.065h307.065c4.501,0,8.576,1.824,11.525,4.773c2.949,2.949,4.773,7.024,4.773,11.525V427.46v341.363
				c0,4.501-1.824,8.576-4.773,11.525C1046.661,783.298,1042.587,785.122,1038.086,785.122z M440.255,752.525h290.766h290.766
				V427.46V102.396H731.021H440.255V427.46V752.525z"/>
		</g>
		<g>
			<g>
				<polyline fill="#EAEEEF" points="940.295,193.471 731.02,193.471 521.745,193.471 				"/>
				<path fill="#2E4C59" d="M940.296,209.771H731.021H521.746c-4.501,0-8.576-1.824-11.525-4.773
					c-2.949-2.949-4.773-7.024-4.773-11.525s1.824-8.576,4.773-11.525c2.949-2.949,7.024-4.773,11.525-4.773h209.275h209.275
					c4.501,0,8.576,1.824,11.525,4.773c2.949,2.949,4.773,7.024,4.773,11.525s-1.824,8.576-4.773,11.525
					C948.871,207.947,944.797,209.771,940.296,209.771z"/>
			</g>
			<g>
				<polyline fill="#EAEEEF" points="940.295,303.946 731.02,303.946 521.745,303.946 				"/>
				<path fill="#2E4C59" d="M940.296,320.243H731.021H521.746c-4.501,0-8.576-1.824-11.525-4.773
					c-2.949-2.949-4.773-7.024-4.773-11.525c0-4.501,1.824-8.576,4.773-11.525c2.949-2.949,7.024-4.773,11.525-4.773h209.275
					h209.275c4.501,0,8.576,1.824,11.525,4.773s4.773,7.024,4.773,11.525c0,4.501-1.824,8.576-4.773,11.525
					C948.871,318.419,944.797,320.243,940.296,320.243z"/>
			</g>
			<g>
				<polyline fill="#EAEEEF" points="940.295,414.421 731.02,414.421 521.745,414.421 				"/>
				<path fill="#2E4C59" d="M940.296,430.718H731.021H521.746c-4.501,0-8.576-1.824-11.525-4.773
					c-2.949-2.949-4.773-7.024-4.773-11.525c0-4.501,1.824-8.576,4.773-11.525c2.949-2.949,7.024-4.773,11.525-4.773h209.275
					h209.275c4.501,0,8.576,1.824,11.525,4.773c2.949,2.949,4.773,7.024,4.773,11.525c0,4.501-1.824,8.576-4.773,11.525
					C948.871,428.894,944.797,430.718,940.296,430.718z"/>
			</g>
		</g>
		<g>
			<g>
				<path fill="#EAEEEF" d="M833.578,768.823c-58.294,58.294-134.697,87.44-211.1,87.44s-152.806-29.147-211.1-87.44
					c-58.294-58.294-87.44-134.697-87.44-211.1s29.147-152.806,87.44-211.1s134.697-87.44,211.1-87.44s152.806,29.147,211.1,87.44
					s87.44,134.697,87.44,211.1S891.872,710.529,833.578,768.823z"/>
				<path fill="#2E4C59" d="M622.478,872.413c-40.311,0-80.623-7.672-118.528-23.016s-73.405-38.361-104.094-69.051
					c-61.378-61.377-92.067-142-92.067-222.624s30.689-161.247,92.067-222.624c61.38-61.38,142.005-92.068,222.628-92.067
					s161.245,30.691,222.619,92.067c61.377,61.377,92.065,142,92.065,222.624S906.48,718.97,845.103,780.347l0,0l0,0
					c-30.688,30.69-66.188,53.707-104.094,69.051S662.791,872.413,622.478,872.413z M622.481,275.614
					c-36.143,0-72.279,6.876-106.259,20.63s-65.803,34.388-93.319,61.902c-55.023,55.024-82.534,127.301-82.534,199.577
					S367.88,702.275,422.903,757.3c55.024,55.023,127.302,82.535,199.579,82.535c72.277,0,144.553-27.511,199.574-82.535
					s82.532-127.301,82.532-199.577s-27.511-144.552-82.532-199.577c-27.508-27.508-59.335-48.141-93.319-61.898
					C694.754,282.493,658.614,275.614,622.481,275.614z"/>
			</g>
			<g>
				<path fill="#FDE9A4" d="M792.72,727.965c-47.011,47.011-108.626,70.516-170.242,70.516s-123.231-23.505-170.242-70.516
					c-47.011-47.011-70.516-108.626-70.516-170.242s23.505-123.231,70.516-170.242s108.626-70.516,170.242-70.516
					s123.231,23.505,170.242,70.516s70.516,108.626,70.516,170.242S839.731,680.954,792.72,727.965z"/>
				<path fill="#2E4C59" d="M622.478,814.659c-32.913,0-65.827-6.264-96.776-18.792c-30.949-12.528-59.933-31.321-84.989-56.378
					c-50.113-50.113-75.169-115.939-75.169-181.766s25.056-131.654,75.169-181.766c50.111-50.114,115.938-75.171,181.765-75.171
					s131.654,25.057,181.765,75.171c50.114,50.113,75.171,115.94,75.171,181.766s-25.057,131.654-75.171,181.766
					c-25.056,25.057-54.04,43.85-84.989,56.378C688.305,808.395,655.391,814.659,622.478,814.659z M622.478,333.368
					c-28.74,0-57.479,5.47-84.504,16.409c-27.024,10.939-52.334,27.348-74.214,49.227c-43.757,43.759-65.636,101.239-65.636,158.719
					s21.879,114.961,65.636,158.719c43.76,43.759,101.241,65.638,158.72,65.638c57.479,0,114.958-21.879,158.715-65.638
					c43.759-43.759,65.638-101.239,65.638-158.719s-21.879-114.961-65.638-158.719c-21.88-21.879-47.19-38.288-74.214-49.227
					C679.957,338.837,651.218,333.368,622.478,333.368z"/>
			</g>
			<g>
				<path fill="#D6BF9F" d="M82.72,1102.637l-2.578-2.578l-2.578-2.578c-8.536-8.536-12.804-19.724-12.804-30.912
					c0-11.188,4.268-22.376,12.804-30.912l86.303-86.303l86.303-86.303c8.536-8.536,19.724-12.804,30.912-12.804
					c11.188,0,22.376,4.268,30.912,12.804l2.578,2.578l2.578,2.578c8.536,8.536,12.804,19.724,12.804,30.912
					c0,11.188-4.268,22.376-12.804,30.912l-86.303,86.303l-86.303,86.303c-8.536,8.536-19.724,12.804-30.912,12.804
					S91.256,1111.173,82.72,1102.637z"/>
				<path fill="#2E4C59" d="M113.632,1130.201c-8.151,0-16.302-1.552-23.967-4.655c-7.665-3.103-14.843-7.758-21.047-13.964
					C56.206,1099.172,50,1082.87,50,1066.569s6.206-32.603,18.617-45.013l83.725-83.725l83.725-83.725
					c12.408-12.412,28.71-18.617,45.012-18.617c16.302,0,32.605,6.205,45.017,18.613c12.412,12.412,18.617,28.714,18.617,45.016
					s-6.206,32.603-18.617,45.013l-83.725,83.725l-83.725,83.725c-6.204,6.206-13.382,10.86-21.047,13.964
					C129.934,1128.649,121.783,1130.201,113.632,1130.201z M281.082,868.071c-3.978,0-7.955,0.757-11.695,2.271
					c-3.74,1.514-7.244,3.785-10.272,6.814l-83.725,83.723l-83.725,83.723c-6.055,6.056-9.082,14.011-9.082,21.966
					s3.027,15.91,9.082,21.966c6.058,6.055,14.013,9.082,21.968,9.082s15.91-3.027,21.968-9.082l83.725-83.725l83.725-83.725
					c2.933-2.933,5.208-6.351,6.749-10.072c1.541-3.721,2.349-7.747,2.349-11.896c0-4.148-0.808-8.172-2.349-11.893
					c-1.541-3.721-3.816-7.138-6.749-10.071c-3.029-3.026-6.532-5.296-10.272-6.81C289.037,868.829,285.059,868.071,281.082,868.071
					z"/>
			</g>
			<g opacity="0.35">
				<path fill="#2E4C59" d="M82.72,1102.637l-2.578-2.578l-2.578-2.578c-8.536-8.536-12.804-19.724-12.804-30.912
					c0-11.188,4.268-22.376,12.804-30.912l27.696-27.696l27.696-27.696c8.536-8.536,19.724-12.804,30.912-12.804
					s22.376,4.268,30.912,12.804l2.578,2.578l2.578,2.578c8.536,8.536,12.804,19.724,12.804,30.912s-4.268,22.376-12.804,30.912
					l-27.696,27.696l-27.696,27.696c-8.536,8.536-19.724,12.804-30.912,12.804S91.256,1111.173,82.72,1102.637z"/>
				<path fill="#2E4C59" d="M113.632,1130.201c-8.151,0-16.302-1.552-23.967-4.655c-7.665-3.103-14.843-7.758-21.047-13.964
					C56.206,1099.172,50,1082.87,50,1066.569s6.206-32.603,18.617-45.013l25.118-25.118l25.118-25.118
					c12.41-12.412,28.713-18.616,45.015-18.615s32.604,6.207,45.011,18.615c6.013,6.012,10.675,13.014,13.834,20.639
					c3.159,7.625,4.814,15.873,4.814,24.376c0,8.503-1.655,16.75-4.814,24.375c-3.159,7.625-7.821,14.628-13.834,20.639
					l-25.116,25.116l-25.116,25.116c-6.204,6.206-13.382,10.86-21.047,13.964C129.934,1128.649,121.783,1130.201,113.632,1130.201z
					 M163.867,985.286c-3.978,0-7.955,0.757-11.695,2.271c-3.74,1.514-7.244,3.785-10.272,6.814l-25.118,25.116l-25.118,25.116
					c-6.055,6.056-9.082,14.011-9.082,21.966s3.027,15.91,9.082,21.966c6.058,6.055,14.013,9.082,21.968,9.082
					s15.91-3.027,21.968-9.082l25.114-25.118l25.114-25.118c2.935-2.935,5.21-6.352,6.752-10.073
					c1.541-3.72,2.349-7.744,2.349-11.892c0-4.149-0.808-8.174-2.349-11.895c-1.541-3.721-3.816-7.138-6.749-10.073
					c-3.027-3.027-6.53-5.298-10.27-6.811C171.822,986.042,167.845,985.286,163.867,985.286z"/>
			</g>
			<g>
				<polyline fill="#EAEEEF" points="411.379,768.823 362.975,817.226 314.571,865.63 				"/>
				<path fill="#2E4C59" d="M314.573,881.928c-2.085,0-4.171-0.398-6.133-1.194c-1.962-0.796-3.8-1.99-5.39-3.581
					c-3.183-3.182-4.775-7.353-4.775-11.523s1.592-8.342,4.775-11.523l48.403-48.403l48.403-48.403
					c3.18-3.183,7.352-4.775,11.523-4.775c4.172,0,8.343,1.592,11.523,4.775c3.183,3.182,4.775,7.353,4.775,11.523
					s-1.592,8.342-4.775,11.523l-48.403,48.403l-48.403,48.403c-1.59,1.592-3.428,2.785-5.39,3.581
					C318.744,881.53,316.658,881.928,314.573,881.928z"/>
			</g>
		</g>
		<g>
			<path fill="#2E4C59" d="M513.907,656.698l13.134-0.979l13.134-0.979l63.464-166.948l63.464-166.948h13.871h13.871l62.851,166.948
				l62.851,166.948l13.38,0.979l13.38,0.979v10.803v10.803h-44.07h-44.07v-10.803v-10.803l15.59-1.225l15.59-1.225l-14.731-40.019
				l-14.731-40.019h-80.282h-80.282l-14.854,40.019l-14.854,40.019l15.59,1.225l15.59,1.225v10.803v10.803h-43.945h-43.945v-10.803
				V656.698z M610.144,547.941h70.584h70.584l-34.739-94.522l-34.739-94.522h-0.737h-0.737l-35.109,94.522L610.144,547.941z"/>
		</g>
		<g opacity="0.2">
			<polygon fill="#2E4C59" points="917.965,515.033 917.965,641.928 917.965,768.823 875.771,768.823 833.578,768.823 
				875.771,641.928 			"/>
			<path fill="#2E4C59" d="M917.965,785.122h-42.193H833.58c-2.618,0-5.157-0.629-7.424-1.79c-2.267-1.16-4.262-2.851-5.793-4.975
				c-1.533-2.123-2.508-4.55-2.894-7.066c-0.386-2.517-0.181-5.124,0.647-7.608l42.193-126.895l42.193-126.895
				c1.261-3.794,3.801-6.858,7.014-8.81s7.1-2.791,11.054-2.137c3.947,0.638,7.371,2.661,9.808,5.524
				c2.437,2.863,3.887,6.566,3.887,10.564v126.895v126.895c0,4.501-1.824,8.576-4.773,11.525
				C926.541,783.298,922.466,785.122,917.965,785.122z M856.175,752.525h22.746h22.746v-68.409v-68.409l-22.746,68.409
				L856.175,752.525z"/>
		</g>
		
			<linearGradient id="SVGID_1_" gradientUnits="userSpaceOnUse" x1="212.7446" y1="382.2098" x2="632.4258" y2="382.2098" gradientTransform="matrix(0.2821 0.9594 -0.9594 0.2821 869.9294 44.4681)">
			<stop  offset="0.0769" style="stop-color:#FFFFFF"/>
			<stop  offset="1" style="stop-color:#FFFFFF;stop-opacity:0"/>
		</linearGradient>
		<path fill="url(#SVGID_1_)" d="M521.992,741.939c-50.87-27.749-85.676-73.489-100.828-125.01s-10.649-108.822,17.099-159.692
			s73.489-85.676,125.01-100.828c51.521-15.152,108.822-10.649,159.692,17.099c50.87,27.749,85.676,73.489,100.828,125.01
			c15.152,51.521,10.649,108.822-17.099,159.692s-73.489,85.676-125.01,100.828C630.163,774.19,572.861,769.688,521.992,741.939z"/>
	</g>
	<g>
		<polygon fill="#ABE1ED" points="1133.702,903.121 1081.62,898.4 1029.538,893.679 1029.539,945.601 1029.54,997.523 
			1081.621,950.322 		"/>
		<path fill="#2E4C59" d="M1029.536,1013.82c-1.116,0-2.236-0.115-3.343-0.347s-2.199-0.581-3.259-1.051
			c-2.946-1.307-5.369-3.42-7.056-6.013c-1.687-2.593-2.637-5.665-2.637-8.888V945.6v-51.922c0-2.289,0.482-4.525,1.386-6.575
			c0.904-2.05,2.231-3.914,3.921-5.458c1.69-1.545,3.674-2.701,5.8-3.417c2.127-0.716,4.397-0.993,6.662-0.781l52.082,4.722
			l52.082,4.722c3.221,0.291,6.204,1.522,8.638,3.448c2.434,1.925,4.319,4.544,5.346,7.611c1.026,3.069,1.097,6.295,0.312,9.297
			c-0.785,3.002-2.426,5.78-4.823,7.953l-52.082,47.2l-52.081,47.2c-1.528,1.385-3.272,2.44-5.131,3.149
			C1033.493,1013.458,1031.52,1013.82,1029.536,1013.82z M1045.837,911.52v24.618v24.618l24.693-22.378l24.693-22.378l-24.693-2.239
			L1045.837,911.52z"/>
	</g>
	<g opacity="0.2">
		<polygon fill="#2E4C59" points="1133.702,903.121 1081.62,898.4 1029.538,893.679 1029.539,945.601 1029.54,997.523 
			1081.621,950.322 		"/>
		<path fill="#2E4C59" d="M1029.536,1013.82c-1.116,0-2.236-0.115-3.343-0.347s-2.199-0.581-3.259-1.051
			c-2.946-1.307-5.369-3.42-7.056-6.013c-1.687-2.593-2.637-5.665-2.637-8.888V945.6v-51.922c0-2.289,0.482-4.525,1.386-6.575
			c0.904-2.05,2.231-3.914,3.921-5.458c1.69-1.545,3.674-2.701,5.8-3.417c2.127-0.716,4.397-0.993,6.662-0.781l52.082,4.722
			l52.082,4.722c3.221,0.291,6.204,1.522,8.638,3.448c2.434,1.925,4.319,4.544,5.346,7.611c1.026,3.069,1.097,6.295,0.312,9.297
			c-0.785,3.002-2.426,5.78-4.823,7.953l-52.082,47.2l-52.081,47.2c-1.528,1.385-3.272,2.44-5.131,3.149
			C1033.493,1013.458,1031.52,1013.82,1029.536,1013.82z M1045.837,911.52v24.618v24.618l24.693-22.378l24.693-22.378l-24.693-2.239
			L1045.837,911.52z"/>
	</g>
</g>
</svg>
