<?xml version="1.0" encoding="utf-8"?>
<!-- Generator: Adobe Illustrator 19.1.1, SVG Export Plug-In . SVG Version: 6.00 Build 0)  -->
<svg version="1.1" id="Layer_1" xmlns="http://www.w3.org/2000/svg" xmlns:xlink="http://www.w3.org/1999/xlink" x="0px" y="0px"
	 viewBox="0 0 1200 1200" enable-background="new 0 0 1200 1200" xml:space="preserve">
<g>
	<g>
		<path fill="#FDE9A4" d="M925.48,1135.167H600h-325.48c-17.315,0-32.991-7.018-44.339-18.366
			c-11.347-11.347-18.366-27.023-18.366-44.339V600V127.538c0-17.315,7.018-32.991,18.366-44.339
			c11.347-11.347,27.023-18.366,44.339-18.366H600h325.48c17.315,0,32.991,7.018,44.339,18.366s18.366,27.023,18.366,44.339V600
			v472.462c0,17.315-7.018,32.991-18.366,44.339C958.472,1128.148,942.796,1135.167,925.48,1135.167z"/>
		<path fill="#2E4C59" d="M944.674,1150H600.001H255.329c-16.086,0-30.673-6.543-41.238-17.108
			c-10.565-10.565-17.108-25.151-17.108-41.238V600V108.346c0-16.086,6.543-30.673,17.108-41.238S239.243,50,255.329,50h344.672
			h344.672c16.085,0,30.671,6.543,41.235,17.108s17.108,25.151,17.108,41.238V600v491.654c0,16.087-6.543,30.673-17.108,41.238
			C975.345,1143.457,960.759,1150,944.674,1150z M255.329,79.667c-7.906,0-15.076,3.217-20.269,8.41s-8.41,12.363-8.41,20.269V600
			v491.654c0,7.906,3.217,15.076,8.41,20.269s12.363,8.41,20.269,8.41h344.672h344.672c7.906,0,15.075-3.217,20.268-8.41
			s8.408-12.363,8.408-20.269V600V108.346c0-7.906-3.216-15.076-8.408-20.269s-12.361-8.41-20.268-8.41H600.001H255.329z"/>
	</g>
	<g>
		<path fill="#9AA1A7" d="M826.799,1135.167H600H373.202c0-44.566-18.064-84.912-47.269-114.117
			c-29.205-29.205-69.552-47.269-114.117-47.269V600V226.219c44.565,0,84.912-18.064,114.117-47.269s47.269-69.552,47.269-114.117
			H600h226.798c0,44.565,18.064,84.912,47.269,114.117c29.205,29.205,69.552,47.269,114.117,47.269V600v373.781
			c-44.565,0-84.912,18.064-114.117,47.269C844.863,1050.255,826.799,1090.601,826.799,1135.167z"/>
		<path fill="#2E4C59" d="M834.023,1150H600.001H365.98c-4.097,0-7.805-1.66-10.489-4.344c-2.684-2.684-4.344-6.393-4.344-10.489
			c0-38.413-15.626-73.246-40.855-98.475c-25.229-25.229-60.062-40.855-98.475-40.855c-4.097,0-7.805-1.66-10.489-4.344
			c-2.684-2.684-4.344-6.393-4.344-10.489V600V218.997c0-4.097,1.66-7.805,4.344-10.489s6.393-4.344,10.489-4.344
			c38.413,0,73.246-15.626,98.475-40.855c25.229-25.229,40.855-60.062,40.855-98.475c0-4.097,1.66-7.805,4.344-10.489
			C358.175,51.66,361.884,50,365.98,50h234.021h234.021c4.097,0,7.805,1.66,10.489,4.344c2.684,2.684,4.344,6.393,4.344,10.489
			c0,38.413,15.626,73.246,40.855,98.475s60.061,40.855,98.473,40.855c4.097,0,7.805,1.66,10.489,4.344
			c2.684,2.684,4.344,6.393,4.344,10.489V600v381.003c0,4.097-1.66,7.805-4.344,10.489c-2.684,2.684-6.393,4.344-10.489,4.344
			c-38.412,0-73.244,15.626-98.473,40.855c-25.229,25.229-40.855,60.062-40.855,98.475c0,4.097-1.66,7.805-4.344,10.489
			C841.828,1148.34,838.119,1150,834.023,1150z M380.168,1120.333h219.834h219.834c3.555-40.686,21.591-77.288,48.91-104.607
			c27.319-27.319,63.92-45.355,104.605-48.91V600V233.185c-40.685-3.555-77.286-21.591-104.605-48.91
			c-27.319-27.319-45.355-63.921-48.91-104.607H600.001H380.168c-3.555,40.686-21.591,77.288-48.91,104.607
			s-63.921,45.355-104.607,48.91V600v366.815c40.686,3.555,77.288,21.591,104.607,48.91S376.613,1079.647,380.168,1120.333z"/>
	</g>
	<g opacity="0.35">
		<path fill="#2E4C59" d="M422.354,1061.677l-7.982-14.963l-7.982-14.962c-10.372-19.445-23.439-37.049-38.774-52.384
			s-32.938-28.402-52.384-38.774l-14.962-7.982l-14.962-7.982V600.001V275.37l14.962-7.982l14.962-7.982
			c19.445-10.372,37.049-23.439,52.384-38.774s28.402-32.938,38.774-52.384l7.982-14.962l7.982-14.962h177.647h177.647l7.982,14.962
			l7.982,14.962c10.372,19.445,23.439,37.049,38.774,52.384c15.335,15.335,32.938,28.402,52.384,38.774l14.962,7.982l14.962,7.982
			v324.631v324.631l-14.962,7.982l-14.962,7.982c-19.445,10.372-37.049,23.439-52.384,38.774
			c-15.335,15.335-28.402,32.938-38.774,52.384l-7.982,14.962l-7.982,14.963H600.001H422.354z"/>
		<path fill="#2E4C59" d="M777.647,1076.511H600H422.353c-2.739,0-5.367-0.755-7.632-2.114s-4.167-3.322-5.455-5.738l-7.982-14.962
			l-7.982-14.962c-9.678-18.143-21.869-34.567-36.177-48.875c-14.308-14.308-30.732-26.5-48.875-36.179l-14.961-7.979l-14.961-7.979
			c-2.418-1.289-4.381-3.192-5.74-5.457c-1.359-2.265-2.114-4.893-2.114-7.632V600.001V275.37c0-2.739,0.755-5.367,2.113-7.632
			c1.359-2.265,3.322-4.167,5.738-5.455l14.962-7.982l14.962-7.982c18.142-9.677,34.566-21.868,48.874-36.176
			c14.308-14.308,26.499-30.733,36.175-48.876l7.983-14.962l7.983-14.962c1.288-2.416,3.19-4.379,5.455-5.738
			c2.265-1.359,4.893-2.113,7.632-2.113H600h177.647c2.739,0,5.367,0.755,7.632,2.113c2.265,1.359,4.167,3.322,5.455,5.738
			l7.982,14.962l7.982,14.962c9.678,18.143,21.87,34.567,36.178,48.875s30.733,26.498,48.877,36.174l14.962,7.983l14.962,7.983
			c2.416,1.288,4.379,3.19,5.738,5.455c1.359,2.265,2.113,4.893,2.113,7.632v324.631v324.631c0,2.739-0.755,5.367-2.114,7.632
			c-1.359,2.265-3.323,4.168-5.74,5.457l-14.962,7.98l-14.962,7.98c-18.143,9.678-34.568,21.87-48.876,36.178
			c-14.308,14.308-26.498,30.732-36.173,48.874l-7.983,14.962l-7.983,14.962c-1.288,2.416-3.19,4.379-5.455,5.738
			C783.014,1075.756,780.386,1076.511,777.647,1076.511z M431.253,1046.844H600h168.747l5.888-11.037l5.888-11.037
			c11.066-20.747,25.007-39.528,41.369-55.89c16.362-16.362,35.145-30.305,55.895-41.373l11.037-5.887l11.037-5.887V600.001V284.27
			l-11.037-5.888l-11.037-5.888c-20.748-11.066-39.53-25.007-55.893-41.369c-16.362-16.362-30.305-35.144-41.374-55.892
			l-5.887-11.037l-5.887-11.037H600H431.253l-5.888,11.037l-5.888,11.037c-11.067,20.748-25.009,39.53-41.371,55.892
			s-35.143,30.304-55.89,41.371l-11.037,5.887l-11.037,5.887v315.731v315.731l11.037,5.886l11.037,5.886
			c20.748,11.069,39.53,25.012,55.892,41.375c16.362,16.363,30.304,35.145,41.371,55.892l5.887,11.037L431.253,1046.844z"/>
	</g>
	<g opacity="0.35">
		<path fill="#2E4C59" d="M600,582.877c-65.62,0-125.028,26.598-168.031,69.601c-43.003,43.003-69.601,102.411-69.601,168.031
			c0,65.62,26.598,125.028,69.601,168.031c43.003,43.003,102.411,69.601,168.031,69.601s125.028-26.598,168.031-69.601
			c43.003-43.003,69.601-102.411,69.601-168.031c0-65.62-26.598-125.028-69.601-168.031
			C725.029,609.475,665.621,582.877,600,582.877z"/>
		<path fill="#2E4C59" d="M600.001,1072.973c-69.606,0-132.723-28.314-178.438-74.029s-74.029-108.831-74.029-178.435
			s28.314-132.72,74.029-178.435s108.832-74.029,178.438-74.029c69.604,0,132.72,28.314,178.435,74.029
			s74.029,108.831,74.029,178.435s-28.314,132.72-74.029,178.435S669.606,1072.973,600.001,1072.973z M600.001,597.711
			c-61.426,0-117.126,24.987-157.469,65.33s-65.331,96.042-65.331,157.468s24.987,117.125,65.331,157.468
			c40.344,40.343,96.044,65.33,157.469,65.33s117.125-24.987,157.468-65.33c40.343-40.343,65.33-96.042,65.33-157.468
			s-24.987-117.125-65.33-157.468S661.427,597.711,600.001,597.711z"/>
	</g>
	<g opacity="0.35">
		<path fill="#2E4C59" d="M600,232.277c-36.554,0-69.647,14.816-93.602,38.771s-38.771,57.048-38.771,93.602
			c0,36.554,14.816,69.647,38.771,93.602s57.048,38.771,93.602,38.771s69.647-14.816,93.602-38.771
			c23.955-23.955,38.771-57.048,38.771-93.602c0-36.554-14.816-69.647-38.771-93.602C669.648,247.093,636.554,232.277,600,232.277z"
			/>
		<path fill="#2E4C59" d="M600.001,511.857c-40.585,0-77.387-16.509-104.043-43.165c-26.656-26.656-43.165-63.458-43.165-104.042
			s16.509-77.386,43.165-104.041c26.656-26.655,63.458-43.164,104.043-43.164c40.585,0,77.386,16.509,104.041,43.164
			s43.164,63.456,43.164,104.041s-16.509,77.387-43.164,104.042S640.586,511.857,600.001,511.857z M600.001,247.111
			c-32.406,0-61.791,13.182-83.075,34.465c-21.284,21.283-34.466,50.668-34.466,83.072c0,32.406,13.182,61.791,34.466,83.075
			c21.284,21.284,50.669,34.466,83.075,34.466c32.405,0,61.789-13.182,83.072-34.466s34.465-50.669,34.465-83.075
			c0-32.405-13.182-61.789-34.465-83.072S632.406,247.111,600.001,247.111z"/>
	</g>
	<g>
		<g>
			<path fill="#2E4C59" d="M837.633,783.089c0,65.62-26.598,125.028-69.601,168.031c-43.003,43.003-102.411,69.601-168.031,69.601
				s-125.028-26.598-168.031-69.601c-43.003-43.003-69.601-102.411-69.601-168.031s26.598-125.028,69.601-168.031
				S534.38,545.457,600,545.457s125.028,26.598,168.031,69.601S837.633,717.468,837.633,783.089z"/>
			<path fill="#2E4C59" d="M600.001,1035.553c-69.606,0-132.723-28.314-178.438-74.029
				c-45.715-45.715-74.029-108.831-74.029-178.435c0-69.606,28.314-132.723,74.029-178.438
				c45.715-45.715,108.832-74.029,178.438-74.029c69.604,0,132.72,28.314,178.435,74.029
				c45.715,45.715,74.029,108.832,74.029,178.438c0,69.604-28.314,132.72-74.029,178.435
				C732.722,1007.24,669.606,1035.553,600.001,1035.553z M600.001,560.289c-61.426,0-117.126,24.987-157.469,65.331
				c-40.344,40.344-65.331,96.044-65.331,157.469s24.987,117.125,65.331,157.468c40.344,40.343,96.044,65.33,157.469,65.33
				s117.125-24.987,157.468-65.33c40.343-40.343,65.33-96.042,65.33-157.468s-24.987-117.126-65.33-157.469
				C717.126,585.276,661.427,560.289,600.001,560.289z"/>
		</g>
		<g>
			<path fill="#FDE9A4" d="M786.253,783.089c0,51.432-20.847,97.995-54.552,131.7c-33.705,33.705-80.268,54.552-131.7,54.552
				c-51.432,0-97.995-20.847-131.7-54.552c-33.705-33.705-54.552-80.268-54.552-131.7s20.847-97.995,54.552-131.7
				s80.268-54.552,131.7-54.552c51.432,0,97.995,20.847,131.7,54.552C765.406,685.094,786.253,731.656,786.253,783.089z"/>
			<path fill="#2E4C59" d="M600.001,984.175c-55.44,0-105.712-22.552-142.123-58.963c-36.412-36.412-58.963-86.683-58.963-142.123
				c0-55.44,22.551-105.712,58.963-142.123c36.412-36.412,86.683-58.963,142.123-58.963c55.439,0,105.709,22.552,142.121,58.963
				c36.411,36.411,58.963,86.683,58.963,142.123c0,55.44-22.552,105.712-58.963,142.123
				C705.711,961.624,655.44,984.175,600.001,984.175z M600.001,611.67c-47.26,0-90.115,19.225-121.155,50.265
				c-31.04,31.04-50.265,73.895-50.265,121.155s19.225,90.115,50.265,121.155c31.04,31.04,73.895,50.265,121.155,50.265
				s90.114-19.225,121.153-50.265c31.039-31.04,50.263-73.895,50.263-121.155s-19.224-90.115-50.263-121.155
				C690.115,630.895,647.261,611.67,600.001,611.67z"/>
		</g>
		<g opacity="0.2">
			<path fill="#2E4C59" d="M726.721,783.089c0,34.993-14.184,66.673-37.116,89.605S634.993,909.809,600,909.809
				c-34.993,0-66.673-14.184-89.605-37.116s-37.116-54.612-37.116-89.605c0-34.993,14.184-66.673,37.116-89.605
				s54.612-37.116,89.605-37.116c34.993,0,66.673,14.184,89.605,37.116S726.721,748.096,726.721,783.089z"/>
			<path fill="#2E4C59" d="M600.001,924.641c-39.026,0-74.415-15.875-100.047-41.507c-25.632-25.632-41.508-61.02-41.508-100.046
				c0-39.026,15.876-74.415,41.508-100.047c25.632-25.632,61.021-41.508,100.047-41.508c39.026,0,74.414,15.876,100.046,41.508
				s41.507,61.021,41.507,100.047c0,39.026-15.875,74.414-41.507,100.046C674.416,908.766,639.028,924.641,600.001,924.641z
				 M600.001,671.201c-30.848,0-58.82,12.548-79.08,32.809c-20.26,20.26-32.809,48.232-32.809,79.08s12.548,58.819,32.809,79.078
				c20.26,20.26,48.232,32.807,79.08,32.807s58.819-12.548,79.078-32.807c20.259-20.259,32.807-48.231,32.807-79.078
				s-12.548-58.82-32.807-79.08C658.82,683.749,630.849,671.201,600.001,671.201z"/>
		</g>
		<g>
			<path fill="#2E4C59" d="M674.818,783.089c0,20.66-8.374,39.365-21.914,52.904c-13.539,13.539-32.244,21.914-52.904,21.914
				c-20.66,0-39.365-8.374-52.904-21.914c-13.539-13.539-21.914-32.244-21.914-52.904s8.374-39.365,21.914-52.904
				S579.34,708.271,600,708.271c20.66,0,39.365,8.374,52.904,21.914C666.444,743.724,674.818,762.428,674.818,783.089z"/>
			<path fill="#2E4C59" d="M600.001,872.739c-24.717,0-47.13-10.054-63.364-26.287s-26.288-38.646-26.288-63.363
				c0-24.717,10.055-47.13,26.288-63.364s38.647-26.289,63.364-26.289c24.717,0,47.13,10.055,63.363,26.289
				s26.287,38.647,26.287,63.364c0,24.717-10.054,47.13-26.287,63.363S624.719,872.739,600.001,872.739z M600.001,723.103
				c-16.538,0-31.535,6.727-42.397,17.589s-17.589,25.858-17.589,42.397c0,16.537,6.727,31.533,17.589,42.394
				s25.858,17.589,42.397,17.589c16.537,0,31.533-6.727,42.394-17.589s17.589-25.857,17.589-42.394
				c0-16.538-6.727-31.535-17.589-42.397S616.538,723.103,600.001,723.103z"/>
		</g>
	</g>
	<g>
		<g>
			<path fill="#2E4C59" d="M272.118,142.695c-4.097,0-7.805-1.66-10.489-4.344c-2.684-2.684-4.344-6.393-4.344-10.489v-2.826v-2.826
				c0-4.097,1.66-7.805,4.344-10.489c2.684-2.684,6.393-4.344,10.489-4.344s7.805,1.66,10.489,4.344
				c2.684,2.684,4.344,6.393,4.344,10.489v2.826v2.826c0,4.097-1.66,7.805-4.344,10.489
				C279.923,141.035,276.215,142.695,272.118,142.695z"/>
			<path fill="#2E4C59" d="M927.885,142.695c-4.097,0-7.805-1.66-10.489-4.344c-2.684-2.684-4.344-6.393-4.344-10.489v-2.826v-2.826
				c0-4.097,1.66-7.805,4.344-10.489c2.684-2.684,6.393-4.344,10.489-4.344c4.097,0,7.805,1.66,10.489,4.344
				s4.344,6.393,4.344,10.489v2.826v2.826c0,4.097-1.66,7.805-4.344,10.489S931.981,142.695,927.885,142.695z"/>
		</g>
		<g>
			<path fill="#2E4C59" d="M272.118,1092.625c-4.097,0-7.805-1.66-10.489-4.344c-2.684-2.684-4.344-6.393-4.344-10.489v-2.826
				v-2.826c0-4.097,1.66-7.805,4.344-10.489c2.684-2.684,6.393-4.344,10.489-4.344s7.805,1.66,10.489,4.344
				c2.684,2.684,4.344,6.393,4.344,10.489v2.826v2.826c0,4.097-1.66,7.805-4.344,10.489
				C279.923,1090.965,276.215,1092.625,272.118,1092.625z"/>
			<path fill="#2E4C59" d="M927.885,1092.625c-4.097,0-7.805-1.66-10.489-4.344c-2.684-2.684-4.344-6.393-4.344-10.489v-2.826
				v-2.826c0-4.097,1.66-7.805,4.344-10.489c2.684-2.684,6.393-4.344,10.489-4.344c4.097,0,7.805,1.66,10.489,4.344
				s4.344,6.393,4.344,10.489v2.826v2.826c0,4.097-1.66,7.805-4.344,10.489C935.69,1090.965,931.981,1092.625,927.885,1092.625z"/>
		</g>
	</g>
	<g>
		<g>
			<path fill="#2E4C59" d="M732.374,330.281c0,36.554-14.816,69.647-38.771,93.602c-23.955,23.955-57.048,38.771-93.602,38.771
				s-69.647-14.816-93.602-38.771c-23.955-23.955-38.771-57.048-38.771-93.602s14.816-69.647,38.771-93.602
				c23.955-23.955,57.048-38.771,93.602-38.771s69.647,14.816,93.602,38.771S732.374,293.727,732.374,330.281z"/>
			<path fill="#2E4C59" d="M600.001,477.488c-40.585,0-77.387-16.509-104.043-43.165c-26.656-26.656-43.165-63.458-43.165-104.042
				s16.509-77.387,43.165-104.043c26.656-26.656,63.458-43.165,104.043-43.165c40.585,0,77.386,16.509,104.041,43.165
				s43.164,63.458,43.164,104.043s-16.509,77.387-43.164,104.042S640.586,477.488,600.001,477.488z M600.001,212.739
				c-32.406,0-61.791,13.182-83.075,34.466c-21.284,21.284-34.466,50.669-34.466,83.075s13.182,61.791,34.466,83.075
				c21.284,21.284,50.669,34.466,83.075,34.466c32.405,0,61.789-13.182,83.072-34.466s34.465-50.669,34.465-83.075
				s-13.182-61.791-34.465-83.075S632.406,212.739,600.001,212.739z"/>
		</g>
		<g>
			<path fill="#FDE9A4" d="M715.622,330.281c0,31.928-12.941,60.834-33.865,81.757c-20.923,20.923-49.829,33.865-81.757,33.865
				c-31.928,0-60.834-12.941-81.757-33.865c-20.923-20.923-33.865-49.829-33.865-81.757s12.941-60.834,33.865-81.757
				s49.829-33.865,81.757-33.865c31.928,0,60.834,12.941,81.757,33.865S715.622,298.353,715.622,330.281z"/>
			<path fill="#2E4C59" d="M600.001,460.736c-35.967,0-68.581-14.631-92.203-38.253c-23.622-23.622-38.253-56.236-38.253-92.203
				s14.631-68.58,38.253-92.202s56.236-38.252,92.203-38.252s68.58,14.63,92.202,38.252s38.252,56.235,38.252,92.202
				s-14.63,68.581-38.252,92.203C668.582,446.106,635.968,460.736,600.001,460.736z M600.001,229.494
				c-27.788,0-52.985,11.303-71.236,29.553s-29.554,43.447-29.554,71.233c0,27.788,11.303,52.985,29.554,71.236
				s43.448,29.554,71.236,29.554c27.787,0,52.983-11.303,71.233-29.554s29.553-43.448,29.553-71.236
				c0-27.787-11.303-52.983-29.553-71.233S627.788,229.494,600.001,229.494z"/>
		</g>
		<g opacity="0.2">
			<path fill="#2E4C59" d="M658.754,330.281c0,16.224-6.576,30.913-17.209,41.545c-10.632,10.632-25.321,17.209-41.545,17.209
				c-16.224,0-30.913-6.576-41.545-17.209c-10.632-10.632-17.209-25.321-17.209-41.545c0-16.224,6.576-30.913,17.209-41.545
				c10.632-10.632,25.321-17.209,41.545-17.209c16.224,0,30.913,6.576,41.545,17.209
				C652.178,299.368,658.754,314.056,658.754,330.281z"/>
			<path fill="#2E4C59" d="M600.001,403.868c-20.289,0-38.686-8.253-52.011-21.577s-21.577-31.722-21.577-52.011
				c0-20.289,8.253-38.686,21.577-52.011s31.722-21.577,52.011-21.577c20.287,0,38.684,8.253,52.008,21.577
				s21.577,31.722,21.577,52.011c0,20.289-8.253,38.686-21.577,52.011S620.289,403.868,600.001,403.868z M600.001,286.359
				c-12.109,0-23.089,4.926-31.042,12.879c-7.953,7.953-12.879,18.933-12.879,31.042c0,12.109,4.926,23.089,12.879,31.042
				s18.933,12.879,31.042,12.879c12.109,0,23.088-4.926,31.041-12.879s12.878-18.933,12.878-31.042
				c0-12.109-4.925-23.089-12.878-31.042C623.09,291.285,612.11,286.359,600.001,286.359z"/>
		</g>
		<g>
			<path fill="#2E4C59" d="M630.328,330.281c0,8.375-3.395,15.956-8.883,21.445s-13.07,8.883-21.445,8.883
				c-8.375,0-15.956-3.395-21.445-8.883s-8.883-13.07-8.883-21.445c0-8.375,3.394-15.956,8.883-21.445s13.07-8.883,21.445-8.883
				c8.375,0,15.956,3.395,21.445,8.883S630.328,321.906,630.328,330.281z"/>
			<path fill="#2E4C59" d="M600.001,375.441c-12.451,0-23.741-5.065-31.918-13.243c-8.178-8.178-13.243-19.468-13.243-31.918
				c0-12.451,5.065-23.741,13.243-31.918c8.178-8.178,19.468-13.243,31.918-13.243s23.741,5.065,31.918,13.243
				c8.178,8.178,13.243,19.468,13.243,31.918c0,12.451-5.065,23.741-13.243,31.918C623.742,370.376,612.452,375.441,600.001,375.441
				z M600.001,314.786c-4.272,0-8.145,1.738-10.951,4.543s-4.543,6.679-4.543,10.951c0,4.272,1.738,8.145,4.543,10.951
				s6.679,4.543,10.951,4.543s8.145-1.738,10.951-4.543s4.543-6.679,4.543-10.951c0-4.272-1.738-8.145-4.543-10.951
				S604.273,314.786,600.001,314.786z"/>
		</g>
	</g>
</g>
</svg>
