<?xml version="1.0" encoding="utf-8"?>
<!-- Generator: Adobe Illustrator 19.1.1, SVG Export Plug-In . SVG Version: 6.00 Build 0)  -->
<svg version="1.1" id="Layer_1" xmlns="http://www.w3.org/2000/svg" xmlns:xlink="http://www.w3.org/1999/xlink" x="0px" y="0px"
	 viewBox="0 0 1200 1200" enable-background="new 0 0 1200 1200" xml:space="preserve">
<g>
	<path fill="#2E4C59" d="M966.886,866.266h-48.001h-48.001c-3.887,0-7.406-1.575-9.953-4.122c-2.547-2.547-4.122-6.066-4.122-9.953
		V585.9V319.609c0-3.887,1.575-7.406,4.122-9.953s6.066-4.122,9.953-4.122h48.001h48.001c29.358,0,55.978,11.942,75.26,31.224
		c19.281,19.281,31.224,45.902,31.224,75.26V585.9v173.883c0,29.358-11.942,55.978-31.224,75.26
		C1022.864,854.324,996.243,866.266,966.886,866.266z M884.96,838.115h40.963h40.963c21.597,0,41.18-8.785,55.364-22.969
		c14.184-14.184,22.969-33.767,22.969-55.364V585.9V412.017c0-21.597-8.785-41.18-22.969-55.364
		c-14.184-14.184-33.767-22.969-55.364-22.969h-40.963H884.96V585.9V838.115z"/>
	<g>
		<path fill="#9AA1A7" d="M845.31,1135.923H543.698H242.087c-27.995,0-53.34-11.347-71.687-29.694s-29.694-43.691-29.694-71.687
			v-8.456v-8.456c0-27.995,11.347-53.34,29.694-71.687s43.691-29.694,71.687-29.694h301.611H845.31
			c27.995,0,53.34,11.347,71.687,29.694s29.694,43.691,29.694,71.687v8.456v8.456c0,27.995-11.347,53.34-29.694,71.687
			S873.305,1135.923,845.31,1135.923z"/>
		<path fill="#2E4C59" d="M855.561,1150H543.697H231.833c-29.004,0-55.305-11.799-74.354-30.85s-30.848-45.353-30.848-74.358
			v-18.708v-18.708c0-29.006,11.798-55.306,30.848-74.355s45.35-30.847,74.354-30.847h311.864h311.864
			c29.006,0,55.307,11.798,74.357,30.847c19.05,19.049,30.848,45.35,30.848,74.355v18.708v18.708
			c0,29.006-11.798,55.308-30.848,74.358C910.868,1138.201,884.567,1150,855.561,1150z M231.833,930.326
			c-21.244,0-40.507,8.642-54.459,22.594c-13.952,13.952-22.593,33.215-22.593,54.457v18.708v18.708
			c0,21.245,8.641,40.509,22.593,54.462c13.952,13.953,33.215,22.595,54.459,22.595h311.864h311.864
			c21.244,0,40.507-8.642,54.46-22.595c13.953-13.953,22.594-33.217,22.594-54.462v-18.708v-18.708
			c0-21.242-8.642-40.505-22.594-54.457c-13.953-13.952-33.216-22.594-54.46-22.594H543.697H231.833z"/>
	</g>
	<g>
		<path fill="#EAEEEF" d="M862.578,1094.497H543.698H224.819c-23.227,0-44.255-9.415-59.476-24.636
			c-15.221-15.221-24.636-36.249-24.636-59.476v-7.015v-7.015c0-23.227,9.415-44.255,24.636-59.476s36.249-24.636,59.476-24.636
			h318.879h318.879c23.227,0,44.255,9.415,59.476,24.636s24.636,36.249,24.636,59.476v7.015v7.015
			c0,23.227-9.415,44.255-24.636,59.476C906.833,1085.083,885.805,1094.497,862.578,1094.497z"/>
		<path fill="#2E4C59" d="M855.561,1108.571H543.697H231.833c-29.004,0-55.305-11.798-74.354-30.847
			c-19.049-19.049-30.848-45.35-30.848-74.355c0-29.006,11.798-55.306,30.848-74.355s45.35-30.847,74.354-30.847h311.864h311.864
			c29.006,0,55.307,11.798,74.357,30.847c19.05,19.049,30.848,45.35,30.848,74.355c0,29.006-11.798,55.306-30.848,74.355
			C910.868,1096.773,884.567,1108.571,855.561,1108.571z M231.833,926.317c-21.244,0-40.507,8.642-54.459,22.594
			c-13.952,13.952-22.593,33.215-22.593,54.457c0,21.242,8.641,40.505,22.593,54.457c13.952,13.952,33.215,22.594,54.459,22.594
			h311.864h311.864c21.244,0,40.507-8.642,54.46-22.594c13.953-13.952,22.594-33.215,22.594-54.457
			c0-21.242-8.642-40.505-22.594-54.457c-13.953-13.952-33.216-22.594-54.46-22.594H543.697H231.833z"/>
	</g>
	<g opacity="0.2">
		<path fill="#2E4C59" d="M193.991,940.393v21.026v21.026c0,20.499,8.309,39.056,21.742,52.489
			c13.433,13.433,31.991,21.742,52.49,21.742h269.846h269.846c20.498,0,39.056-8.308,52.49-21.742
			c13.433-13.433,21.742-31.991,21.742-52.489v-21.026v-21.026H538.068H193.991z"/>
		<path fill="#2E4C59" d="M807.914,1070.749H538.068H268.223c-24.346,0-46.423-9.904-62.413-25.894s-25.894-38.067-25.894-62.413
			v-21.025v-21.025c0-3.887,1.575-7.406,4.122-9.953c2.547-2.547,6.066-4.122,9.953-4.122h344.076h344.076
			c3.887,0,7.406,1.575,9.953,4.122c2.547,2.547,4.122,6.066,4.122,9.953v21.025v21.025c0,24.346-9.904,46.423-25.894,62.413
			S832.26,1070.749,807.914,1070.749z M208.067,954.468v13.987v13.987c0,16.585,6.746,31.624,17.639,42.517
			c10.893,10.893,25.932,17.639,42.517,17.639h269.845h269.845c16.585,0,31.624-6.746,42.517-17.639
			c10.893-10.893,17.639-25.932,17.639-42.517v-13.987v-13.987H538.068H208.067z"/>
	</g>
	<g>
		<path fill="#ABE1ED" d="M775.171,1017.265H538.068H300.965c-29.54,0-56.284-11.974-75.643-31.332
			c-19.359-19.359-31.332-46.102-31.332-75.643V554.075V197.86c0-18.183,7.37-34.644,19.286-46.56s28.377-19.286,46.56-19.286
			h278.232H816.3c18.183,0,34.644,7.37,46.56,19.286s19.286,28.377,19.286,46.56v356.215V910.29
			c0,29.54-11.974,56.284-31.332,75.643C831.455,1005.291,804.711,1017.265,775.171,1017.265z"/>
		<path fill="#2E4C59" d="M807.914,1031.338H538.068H268.223c-24.346,0-46.423-9.904-62.413-25.894s-25.894-38.067-25.894-62.413
			V560.369V177.706c0-16.478,6.703-31.419,17.525-42.241c10.822-10.822,25.763-17.524,42.24-17.524h298.387h298.387
			c16.477,0,31.418,6.702,42.24,17.524s17.525,25.763,17.525,42.241v382.663v382.663c0,24.346-9.904,46.423-25.894,62.413
			S832.26,1031.338,807.914,1031.338z M239.682,146.092c-8.716,0-16.62,3.545-22.344,9.269c-5.725,5.724-9.27,13.628-9.27,22.345
			v382.663v382.663c0,16.585,6.746,31.624,17.639,42.517s25.932,17.639,42.517,17.639h269.845h269.845
			c16.585,0,31.624-6.746,42.517-17.639s17.639-25.932,17.639-42.517V560.369V177.706c0-8.717-3.546-16.621-9.27-22.345
			c-5.725-5.724-13.628-9.269-22.344-9.269H538.068H239.682z"/>
	</g>
	<g opacity="0.2">
		<path fill="#2E4C59" d="M836.455,132.014h-61.239h-61.239v442.625v442.625h46.969h46.969c20.498,0,39.056-8.308,52.49-21.742
			s21.742-31.991,21.742-52.489V560.369V177.705c0-12.617-5.114-24.04-13.383-32.309S849.072,132.014,836.455,132.014z"/>
		<path fill="#2E4C59" d="M807.914,1031.338h-46.968h-46.968c-3.887,0-7.406-1.575-9.953-4.122
			c-2.547-2.547-4.122-6.066-4.122-9.953V574.64V132.016c0-3.887,1.575-7.406,4.122-9.953s6.066-4.122,9.953-4.122h61.239h61.239
			c16.477,0,31.418,6.702,42.24,17.524s17.525,25.763,17.525,42.241v382.663v382.663c0,24.346-9.904,46.423-25.894,62.413
			S832.26,1031.338,807.914,1031.338z M728.053,1003.187h39.931h39.931c16.585,0,31.624-6.746,42.517-17.639
			s17.639-25.932,17.639-42.517V560.369V177.706c0-8.717-3.546-16.621-9.27-22.345c-5.725-5.724-13.628-9.269-22.344-9.269h-54.201
			h-54.201V574.64V1003.187z"/>
	</g>
	<g opacity="0.2">
		<path fill="#2E4C59" d="M241.045,132.014h-0.682h-0.682c-12.617,0-24.04,5.114-32.309,13.383s-13.383,19.691-13.383,32.309
			v382.664v382.664c0,15.697,4.879,30.24,13.201,42.216s20.085,21.384,33.854,26.81V572.037V132.014z"/>
		<path fill="#2E4C59" d="M241.045,1026.137c-0.871,0-1.745-0.081-2.609-0.244c-0.864-0.163-1.718-0.408-2.551-0.735
			c-17-6.7-30.993-18.108-40.735-32.404s-15.234-31.477-15.234-49.723V560.369V177.706c0-16.478,6.703-31.419,17.525-42.241
			c10.822-10.822,25.763-17.524,42.24-17.524h0.682h0.682c3.887,0,7.406,1.575,9.953,4.122c2.547,2.547,4.122,6.066,4.122,9.953
			v440.023v440.023c0,2.328-0.576,4.581-1.633,6.58s-2.596,3.743-4.522,5.054c-1.185,0.808-2.469,1.419-3.804,1.827
			C243.825,1025.931,242.438,1026.137,241.045,1026.137z M226.97,148.758c-5.56,2.452-10.286,6.46-13.621,11.47
			s-5.281,11.02-5.281,17.478v382.663v382.663c0,8.511,1.757,16.683,4.998,24.116c3.241,7.434,7.967,14.129,13.905,19.688V567.797
			V148.758z"/>
	</g>
	<g>
		<path fill="#9AA1A7" d="M839.972,223.397H538.068H236.164c-11.646,0-22.189-4.72-29.821-12.352s-12.352-18.175-12.352-29.821
			v-3.518v-3.518c0-11.646,4.72-22.189,12.352-29.821s18.175-12.352,29.821-12.352h301.904h301.904
			c11.646,0,22.189,4.72,29.821,12.352s12.352,18.175,12.352,29.821v3.518v3.518c0,11.646-4.72,22.189-12.352,29.821
			S851.618,223.397,839.972,223.397z"/>
		<path fill="#2E4C59" d="M836.455,237.472H538.068H239.682c-16.477,0-31.418-6.702-42.24-17.524
			c-10.822-10.822-17.525-25.763-17.525-42.241s6.703-31.419,17.525-42.241c10.822-10.822,25.763-17.524,42.24-17.524h298.387
			h298.387c16.477,0,31.418,6.702,42.24,17.524s17.525,25.763,17.525,42.241s-6.703,31.419-17.525,42.241
			S852.932,237.472,836.455,237.472z M239.682,146.092c-8.716,0-16.62,3.545-22.344,9.269c-5.725,5.724-9.27,13.628-9.27,22.345
			s3.546,16.621,9.27,22.345c5.725,5.724,13.628,9.269,22.344,9.269h298.387h298.387c8.716,0,16.62-3.545,22.344-9.269
			c5.725-5.724,9.27-13.628,9.27-22.345s-3.546-16.621-9.27-22.345c-5.725-5.724-13.628-9.269-22.344-9.269H538.068H239.682z"/>
	</g>
	<g opacity="0.2">
		<path fill="#2E4C59" d="M195.396,188.769c2.477,9.939,8.195,18.596,15.971,24.768c7.776,6.172,17.609,9.859,28.315,9.859h298.386
			h298.386c10.706,0,20.539-3.687,28.315-9.859c7.776-6.172,13.494-14.829,15.971-24.768H538.068H195.396z"/>
		<path fill="#2E4C59" d="M836.455,237.472H538.068H239.682c-13.737,0-26.562-4.657-36.784-12.648
			c-10.221-7.991-17.838-19.316-21.159-32.652c-0.524-2.103-0.549-4.268-0.11-6.333c0.439-2.065,1.343-4.031,2.678-5.735
			c1.333-1.707,3.023-3.06,4.92-3.985c1.898-0.926,4.003-1.425,6.17-1.425h342.672H880.74c2.166,0,4.272,0.499,6.17,1.425
			c1.898,0.926,3.587,2.278,4.92,3.985c1.335,1.707,2.238,3.673,2.678,5.737c0.439,2.065,0.414,4.228-0.11,6.331
			c-3.322,13.336-10.941,24.661-21.162,32.652C863.014,232.815,850.189,237.472,836.455,237.472z M220.512,202.844
			c2.679,2.048,5.686,3.667,8.917,4.774c3.23,1.107,6.683,1.702,10.253,1.702h298.387h298.387c3.568,0,7.021-0.595,10.25-1.702
			c3.23-1.107,6.237-2.726,8.916-4.774H538.067H220.512z"/>
	</g>
	<path fill="#2E4C59" d="M301.886,414.915c-3.887,0-7.406-1.575-9.953-4.122c-2.547-2.547-4.122-6.066-4.122-9.953V274.293V147.747
		c0-26.949,10.962-51.386,28.661-69.085S358.608,50,385.557,50c26.949,0,51.387,10.962,69.087,28.661
		c17.7,17.699,28.663,42.136,28.663,69.085v31.983v31.983c0,3.887-1.575,7.406-4.122,9.953c-2.547,2.547-6.066,4.122-9.953,4.122
		c-3.887,0-7.406-1.575-9.953-4.122c-2.547-2.547-4.122-6.066-4.122-9.953V179.73v-31.983c0-19.189-7.805-36.588-20.408-49.19
		c-12.603-12.602-30.002-20.407-49.191-20.407c-19.187,0-36.586,7.805-49.188,20.407s-20.408,30.001-20.408,49.19v126.546v126.546
		c0,3.887-1.575,7.406-4.122,9.953C309.292,413.339,305.773,414.915,301.886,414.915z"/>
	<g>
		<polygon fill="#FFFFFF" points="423.891,734.842 298.62,734.842 173.35,734.842 173.35,603.966 173.35,473.091 237.617,436.964 
			301.885,400.837 362.888,436.964 423.891,473.091 423.891,603.966 		"/>
		<path fill="#2E4C59" d="M423.89,748.918H298.62H173.349c-3.887,0-7.406-1.575-9.953-4.122c-2.547-2.547-4.122-6.066-4.122-9.953
			V603.967V473.091c0-2.543,0.686-4.987,1.926-7.107c1.24-2.12,3.035-3.917,5.252-5.165l64.268-36.126l64.268-36.126
			c2.195-1.232,4.632-1.831,7.06-1.803s4.848,0.684,7.01,1.962l61.002,36.126l61.002,36.126c2.139,1.267,3.865,3.053,5.056,5.143
			c1.191,2.09,1.847,4.484,1.847,6.97v130.876v130.876c0,3.887-1.575,7.406-4.122,9.953
			C431.296,747.343,427.778,748.918,423.89,748.918z M187.424,720.768H298.62h111.195V600.94V481.113L355.758,449.1l-54.057-32.013
			l-57.139,32.12l-57.139,32.12v119.72V720.768z"/>
	</g>
	<g opacity="0.2">
		<polygon fill="#2E4C59" points="295.939,634.957 295.939,519.568 295.939,404.179 234.644,438.635 173.349,473.091 
			173.349,603.966 173.349,734.842 298.62,734.842 423.891,734.842 423.891,684.9 423.891,634.957 359.915,634.957 		"/>
		<path fill="#2E4C59" d="M423.89,748.918H298.62H173.349c-3.887,0-7.406-1.575-9.953-4.122c-2.547-2.547-4.122-6.066-4.122-9.953
			V603.967V473.091c0-2.543,0.686-4.987,1.926-7.107c1.24-2.12,3.035-3.917,5.252-5.165l61.295-34.457l61.295-34.457
			c2.177-1.223,4.599-1.823,7.016-1.801c2.417,0.021,4.829,0.663,6.988,1.922c2.158,1.265,3.9,3.053,5.103,5.15
			c1.203,2.097,1.866,4.502,1.866,7.001v108.353v108.353h56.938h56.938c3.887,0,7.406,1.575,9.953,4.122
			c2.547,2.547,4.122,6.066,4.122,9.953V684.9v49.943c0,3.887-1.575,7.406-4.122,9.953
			C431.296,747.343,427.778,748.918,423.89,748.918z M187.424,720.768H298.62h111.195V684.9v-35.867h-56.938h-56.938
			c-3.887,0-7.406-1.575-9.953-4.122c-2.547-2.547-4.122-6.066-4.122-9.953v-103.36v-103.36l-47.22,26.545l-47.22,26.545v119.72
			V720.768z"/>
	</g>
</g>
</svg>
