<?xml version="1.0" encoding="utf-8"?>
<!-- Generator: Adobe Illustrator 19.1.1, SVG Export Plug-In . SVG Version: 6.00 Build 0)  -->
<svg version="1.1" id="Layer_1" xmlns="http://www.w3.org/2000/svg" xmlns:xlink="http://www.w3.org/1999/xlink" x="0px" y="0px"
	 viewBox="0 0 1200 1200" enable-background="new 0 0 1200 1200" xml:space="preserve">
<g>
	<g>
		<path fill="#9AA1A7" d="M1027.437,785.06L678.359,889.624L329.281,994.187c-36.42,10.909-73.814,6.024-104.831-10.694
			c-31.016-16.718-55.655-45.268-66.565-81.688l-30.6-102.155l-30.6-102.155c-10.909-36.42-6.024-73.814,10.694-104.831
			s45.268-55.655,81.688-66.565l349.078-104.564l349.078-104.564c36.42-10.909,73.814-6.024,104.831,10.694
			c31.016,16.718,55.655,45.268,66.565,81.688l30.6,102.155l30.6,102.155c10.909,36.42,6.024,73.814-10.694,104.831
			C1092.408,749.512,1063.857,774.15,1027.437,785.06z"/>
		<path fill="#2E4C59" d="M261.354,1024.412c-8.956,0-17.867-1.11-26.566-3.311s-17.185-5.495-25.289-9.863
			c-12.886-6.945-24.033-16.192-33.008-27.208c-8.976-11.016-15.779-23.8-19.978-37.821l-42.694-142.525L71.125,661.159
			c-8.67-28.946-4.757-58.72,8.56-83.426c13.317-24.706,36.037-44.342,64.98-53.012l389.446-116.656l389.446-116.656
			c28.959-8.665,58.736-4.752,83.439,8.563s44.334,36.033,53.001,64.98l42.691,142.523l42.691,142.523
			c8.67,28.946,4.758,58.721-8.557,83.427s-36.034,44.343-64.977,53.013l0,0l0,0L682.397,903.095l-389.449,116.656
			c-5.201,1.557-10.459,2.722-15.737,3.498S266.635,1024.412,261.354,1024.412z M954.97,314.914c-3.864,0-7.757,0.277-11.655,0.844
			c-3.898,0.568-7.8,1.427-11.683,2.591L542.185,435.006L152.739,551.662c-21.52,6.446-38.411,21.043-48.311,39.409
			c-9.9,18.366-12.81,40.5-6.367,62.019l42.694,142.525l42.694,142.525c3.123,10.424,8.181,19.928,14.854,28.117
			c6.673,8.189,14.96,15.063,24.539,20.226c9.582,5.163,19.882,8.305,30.39,9.377c10.509,1.071,21.226,0.072,31.643-3.049
			l389.449-116.656l389.449-116.656c21.517-6.445,38.407-21.043,48.306-39.41c9.9-18.366,12.809-40.501,6.366-62.021
			l-42.691-142.523l-42.691-142.523c-5.284-17.634-16.042-32.16-29.862-42.278C989.381,320.624,972.499,314.914,954.97,314.914z"/>
	</g>
	<g>
		<path fill="#EAEEEF" d="M1010.972,730.092L661.894,834.656L312.816,939.22c-36.42,10.909-73.814,6.024-104.831-10.694
			s-55.655-45.268-66.565-81.688l-30.6-102.155l-30.6-102.155c-10.909-36.42-6.024-73.814,10.694-104.831
			s45.268-55.655,81.688-66.565l349.078-104.564L870.76,262.005c36.42-10.909,73.814-6.024,104.831,10.694
			c31.016,16.718,55.655,45.268,66.565,81.688l30.6,102.155l30.6,102.155c10.909,36.42,6.024,73.814-10.694,104.831
			C1075.943,694.544,1047.392,719.183,1010.972,730.092z"/>
		<path fill="#2E4C59" d="M244.888,969.442c-8.956,0-17.867-1.109-26.566-3.311s-17.185-5.495-25.289-9.863
			c-12.886-6.945-24.033-16.191-33.008-27.207s-15.779-23.8-19.978-37.822L97.355,748.716L54.664,606.193
			c-4.202-14.021-5.547-28.441-4.106-42.577c1.441-14.136,5.669-27.987,12.614-40.871c6.945-12.885,16.191-24.033,27.205-33.008
			s23.799-15.78,37.821-19.981l389.446-116.656l389.446-116.656c28.959-8.663,58.735-4.749,83.437,8.567
			c24.703,13.316,44.333,36.033,53.003,64.976l42.691,142.523l42.691,142.523c4.202,14.021,5.547,28.441,4.106,42.577
			c-1.441,14.136-5.669,27.987-12.614,40.871c-6.945,12.885-16.192,24.033-27.207,33.008s-23.799,15.78-37.819,19.981l0,0l0,0
			L665.933,848.126L276.486,964.782c-5.204,1.557-10.463,2.722-15.742,3.498C255.466,969.056,250.169,969.442,244.888,969.442z
			 M938.498,259.948c-3.861,0-7.753,0.277-11.65,0.844c-3.897,0.568-7.799,1.427-11.683,2.591L525.719,380.04L136.272,496.696
			c-10.425,3.123-19.93,8.181-28.119,14.854s-15.063,14.959-20.226,24.536c-5.163,9.579-8.306,19.876-9.378,30.385
			s-0.072,21.229,3.05,31.654l42.691,142.523l42.691,142.523c3.123,10.424,8.181,19.928,14.854,28.117
			c6.673,8.189,14.96,15.063,24.539,20.226c9.582,5.163,19.882,8.308,30.391,9.381c10.509,1.073,21.228,0.073,31.647-3.054
			l389.446-116.656l389.446-116.656c10.425-3.122,19.93-8.181,28.119-14.854c8.189-6.672,15.063-14.959,20.226-24.536
			c5.163-9.579,8.306-19.876,9.378-30.385c1.072-10.509,0.072-21.229-3.05-31.654l-42.691-142.523l-42.691-142.523
			c-5.284-17.632-16.044-32.159-29.865-42.277C972.91,265.658,956.027,259.948,938.498,259.948z"/>
	</g>
	<g opacity="0.35">
		<path fill="#2E4C59" d="M1013.361,283.018c-12.046-15.064-28.261-26.139-46.367-31.98c-18.106-5.841-38.104-6.447-57.715-0.572
			L521.682,366.569L134.085,482.67c-19.611,5.874-35.982,17.374-47.896,32.207c-11.914,14.833-19.37,32.999-21.151,52.204
			L539.2,425.05L1013.361,283.018z"/>
		<path fill="#2E4C59" d="M65.04,581.144c-1.604,0-3.194-0.275-4.702-0.809s-2.933-1.33-4.207-2.371
			c-1.807-1.48-3.188-3.361-4.064-5.454s-1.245-4.397-1.028-6.723c2.112-22.78,10.921-43.649,24.673-60.461
			c13.753-16.812,32.449-29.569,54.337-36.126l387.595-116.102L905.24,236.997c21.885-6.548,44.517-6.174,65.249,0.306
			c20.732,6.48,39.565,19.065,53.851,36.936c1.461,1.825,2.419,3.953,2.839,6.182c0.419,2.229,0.3,4.559-0.395,6.789
			c-0.698,2.23-1.925,4.214-3.538,5.809c-1.613,1.595-3.611,2.799-5.849,3.471L543.237,438.521L69.077,580.553
			c-0.665,0.198-1.336,0.345-2.01,0.444S65.715,581.144,65.04,581.144z M937.383,260.393c-4.001,0-8.026,0.289-12.047,0.877
			c-4.021,0.588-8.037,1.474-12.022,2.669L525.719,380.04L138.123,496.141c-12.745,3.817-24.044,10.447-33.276,19.132
			s-16.399,19.425-20.881,31.463l451.199-135.154l451.199-135.154c-7.121-5.218-14.967-9.227-23.233-11.931
			C954.867,261.793,946.182,260.393,937.383,260.393z"/>
	</g>
	<path fill="#2E4C59" d="M521.679,380.633c-3.026,0-5.936-0.984-8.317-2.729c-2.381-1.746-4.233-4.253-5.145-7.3l-7.409-24.736
		l-7.409-24.736c-5.358-17.885-17.497-31.926-32.765-40.156c-15.269-8.23-33.667-10.648-51.546-5.287l-53.118,15.912l-53.118,15.912
		c-25.321,7.577-51.359,4.155-72.964-7.489c-21.604-11.645-38.774-31.512-46.356-56.826l-7.415-24.756l-7.415-24.756
		c-1.115-3.72-0.617-7.539,1.09-10.706c1.707-3.167,4.622-5.684,8.34-6.799c3.724-1.111,7.544-0.612,10.711,1.095
		c3.167,1.707,5.681,4.621,6.794,8.341l7.415,24.756l7.415,24.756c5.358,17.886,17.492,31.929,32.76,40.159
		s33.667,10.647,51.557,5.284l53.116-15.912l53.116-15.912c25.312-7.58,51.353-4.159,72.96,7.486s38.781,31.513,46.361,56.829
		l7.409,24.736l7.409,24.736c1.115,3.72,0.617,7.539-1.09,10.706s-4.622,5.684-8.34,6.799c-0.673,0.201-1.35,0.349-2.025,0.447
		C523.021,380.585,522.346,380.633,521.679,380.633z"/>
	<g opacity="0.35">
		<path fill="#2E4C59" d="M421.486,637.461l-30.768,9.216l-30.768,9.216l-9.216-30.768l-9.216-30.768
			c-2.894-9.661-9.429-17.234-17.657-21.668c-8.227-4.435-18.146-5.73-27.807-2.837h0h0c-9.661,2.894-17.234,9.429-21.668,17.657
			c-4.435,8.227-5.73,18.146-2.837,27.807l9.216,30.768l9.216,30.768l-30.768,9.216l-30.768,9.216
			c-9.661,2.894-17.234,9.429-21.668,17.657s-5.73,18.146-2.837,27.807l0,0l0,0.001c2.894,9.661,9.429,17.234,17.657,21.668
			s18.146,5.73,27.807,2.837l30.768-9.216l30.768-9.216l9.216,30.768l9.216,30.768c2.894,9.661,9.429,17.234,17.657,21.668
			c8.227,4.435,18.146,5.73,27.807,2.837h0l0,0c9.661-2.894,17.234-9.429,21.668-17.657c4.435-8.227,5.73-18.146,2.837-27.807
			l-9.216-30.768l-9.216-30.768l30.768-9.216l30.768-9.216c9.661-2.894,17.234-9.429,21.668-17.657
			c4.435-8.227,5.73-18.146,2.837-27.807l0-0.001l0-0.001c-2.894-9.661-9.429-17.234-17.657-21.668
			C441.066,635.863,431.147,634.567,421.486,637.461z"/>
		<path fill="#2E4C59" d="M364.29,848.483c-4.133,0-8.246-0.512-12.26-1.527c-4.014-1.016-7.931-2.536-11.671-4.553
			c-5.946-3.205-11.089-7.472-15.232-12.556c-4.142-5.084-7.282-10.984-9.221-17.456l-7.201-24.033l-7.201-24.033l-24.033,7.199
			l-24.033,7.199c-13.358,3.999-27.099,2.193-38.501-3.952c-11.402-6.145-20.465-16.63-24.466-29.989
			c-1.939-6.472-2.56-13.127-1.894-19.65c0.665-6.524,2.617-12.916,5.821-18.863c3.205-5.946,7.473-11.09,12.557-15.233
			c5.084-4.143,10.984-7.284,17.455-9.223l24.033-7.198l24.033-7.198l-7.198-24.034l-7.198-24.034
			c-4.001-13.361-2.194-27.102,3.953-38.504c6.147-11.401,16.633-20.463,29.991-24.463c6.467-1.942,13.12-2.564,19.643-1.898
			c6.523,0.666,12.916,2.619,18.865,5.828c5.946,3.205,11.089,7.472,15.232,12.556c4.142,5.084,7.282,10.984,9.221,17.456
			l7.201,24.033l7.201,24.033l24.03-7.199l24.03-7.199c13.358-4.003,27.1-2.198,38.503,3.947
			c11.403,6.145,20.467,16.632,24.469,29.994c3.999,13.359,2.192,27.1-3.954,38.502c-6.145,11.402-16.629,20.465-29.985,24.467
			l-24.033,7.198l-24.033,7.198l7.198,24.034l7.198,24.034c4.001,13.361,2.194,27.102-3.953,38.504
			c-6.147,11.401-16.634,20.463-29.991,24.463c-2.4,0.719-4.827,1.257-7.262,1.615C369.17,848.305,366.726,848.483,364.29,848.483z
			 M310.946,732.757c3.026,0,5.936,0.984,8.317,2.729c2.381,1.746,4.233,4.253,5.145,7.3l9.216,30.768l9.217,30.768
			c0.862,2.874,2.257,5.494,4.097,7.751s4.123,4.152,6.762,5.576c2.645,1.423,5.484,2.289,8.38,2.584s5.848,0.019,8.718-0.843
			c5.932-1.775,10.588-5.799,13.318-10.862s3.533-11.165,1.759-17.098l-9.216-30.766l-9.217-30.767
			c-1.115-3.72-0.617-7.539,1.09-10.706c1.707-3.167,4.622-5.684,8.34-6.799l30.767-9.216l30.767-9.216
			c5.932-1.777,10.588-5.801,13.318-10.864s3.533-11.165,1.759-17.099c-0.862-2.873-2.257-5.492-4.097-7.749
			c-1.84-2.257-4.125-4.151-6.767-5.574c-2.639-1.425-5.479-2.292-8.376-2.587c-2.897-0.295-5.852-0.018-8.722,0.843l0,0l0,0
			l-30.767,9.216l-30.767,9.216c-1.788,0.534-3.644,0.704-5.464,0.519c-1.82-0.185-3.604-0.725-5.246-1.612
			c-1.64-0.884-3.072-2.077-4.227-3.495c-1.155-1.418-2.034-3.062-2.567-4.848l-9.216-30.768l-9.216-30.768
			c-0.862-2.874-2.257-5.494-4.097-7.751s-4.125-4.152-6.767-5.576c-2.636-1.423-5.475-2.289-8.371-2.585
			c-2.897-0.296-5.852-0.02-8.721,0.841c-5.932,1.777-10.588,5.801-13.318,10.864s-3.533,11.165-1.759,17.099l9.216,30.767
			l9.216,30.766c1.115,3.72,0.617,7.539-1.09,10.706s-4.622,5.684-8.34,6.799l-30.767,9.216l-30.767,9.216
			c-5.935,1.777-10.592,5.801-13.322,10.864s-3.532,11.164-1.755,17.096c1.78,5.933,5.814,10.592,10.881,13.321
			c5.067,2.729,11.166,3.53,17.076,1.748l30.769-9.216l30.769-9.216c0.673-0.201,1.35-0.349,2.025-0.447
			C309.605,732.805,310.279,732.757,310.946,732.757z"/>
	</g>
	<g>
		<path fill="#9AA1A7" d="M414.9,615.474l-30.768,9.216l-30.768,9.216l-9.216-30.768l-9.216-30.768
			c-2.894-9.661-9.429-17.234-17.657-21.668c-8.227-4.435-18.146-5.73-27.807-2.837h0h0c-9.661,2.894-17.234,9.429-21.668,17.657
			c-4.435,8.227-5.73,18.146-2.837,27.807l9.216,30.768l9.216,30.768l-30.768,9.216l-30.768,9.216
			c-9.661,2.894-17.234,9.429-21.668,17.657s-5.73,18.146-2.837,27.807l0,0.001l0,0c2.894,9.661,9.429,17.234,17.657,21.668
			s18.146,5.73,27.807,2.837l30.768-9.216l30.768-9.216l9.216,30.768l9.216,30.768c2.894,9.661,9.429,17.234,17.657,21.668
			c8.227,4.435,18.146,5.73,27.807,2.837h0h0c9.661-2.894,17.234-9.429,21.668-17.657c4.435-8.227,5.73-18.146,2.837-27.807
			l-9.216-30.768l-9.216-30.768l30.768-9.216l30.768-9.216c9.661-2.894,17.234-9.429,21.668-17.657s5.73-18.146,2.837-27.807
			l0-0.001l0-0.001c-2.894-9.661-9.429-17.234-17.657-21.668C434.48,613.876,424.561,612.58,414.9,615.474z"/>
		<path fill="#2E4C59" d="M357.798,826.477c-10.881,0-21.361-3.544-29.94-9.825c-8.579-6.281-15.258-15.298-18.537-26.245
			l-7.201-24.034l-7.201-24.034l-24.033,7.199l-24.033,7.199c-13.358,4-27.099,2.194-38.501-3.951
			c-11.402-6.145-20.465-16.63-24.466-29.988c-1.939-6.473-2.56-13.129-1.894-19.653s2.617-12.917,5.821-18.864
			c3.205-5.947,7.473-11.091,12.557-15.234c5.085-4.142,10.986-7.283,17.459-9.222l24.03-7.198l24.03-7.198l-7.198-24.034
			l-7.198-24.034c-1.939-6.47-2.56-13.125-1.894-19.649c0.665-6.524,2.617-12.917,5.821-18.865
			c3.205-5.946,7.473-11.089,12.557-15.232c5.085-4.142,10.986-7.282,17.459-9.221c6.467-1.939,13.12-2.56,19.643-1.895
			c6.523,0.665,12.916,2.617,18.865,5.825c5.946,3.205,11.089,7.472,15.232,12.556c4.142,5.084,7.282,10.984,9.221,17.456
			l7.201,24.033l7.201,24.033l24.03-7.199l24.03-7.199c6.476-1.939,13.131-2.56,19.655-1.895c6.524,0.665,12.916,2.616,18.864,5.822
			c5.946,3.206,11.089,7.474,15.232,12.558c4.142,5.084,7.282,10.984,9.221,17.456c4.001,13.359,2.194,27.1-3.952,38.502
			c-6.146,11.402-16.631,20.465-29.987,24.467l-24.033,7.198l-24.033,7.198l7.198,24.033l7.198,24.033
			c4.001,13.361,2.194,27.103-3.953,38.505c-6.147,11.402-16.633,20.464-29.991,24.464c-2.409,0.721-4.831,1.254-7.25,1.606
			C362.612,826.304,360.195,826.477,357.798,826.477z M304.361,710.771c3.026,0,5.936,0.984,8.317,2.729
			c2.381,1.746,4.233,4.253,5.145,7.3l9.217,30.768l9.216,30.768c1.78,5.928,5.797,10.584,10.857,13.314
			c5.059,2.73,11.16,3.533,17.106,1.755c5.929-1.776,10.584-5.799,13.313-10.863c2.729-5.063,3.532-11.166,1.758-17.1l-9.216-30.767
			l-9.216-30.766c-0.536-1.786-0.706-3.642-0.52-5.462c0.185-1.819,0.726-3.602,1.613-5.243c0.884-1.642,2.076-3.074,3.493-4.23
			c1.417-1.156,3.059-2.034,4.844-2.57l30.767-9.215l30.767-9.215c5.932-1.777,10.588-5.801,13.318-10.864
			s3.533-11.165,1.759-17.099c-0.862-2.873-2.257-5.492-4.097-7.749c-1.84-2.257-4.125-4.151-6.767-5.574
			c-2.639-1.424-5.479-2.29-8.376-2.586c-2.897-0.295-5.852-0.019-8.722,0.842l0,0l0,0l-30.767,9.216l-30.767,9.216
			c-1.788,0.533-3.644,0.702-5.464,0.517c-1.82-0.185-3.604-0.725-5.246-1.61c-1.64-0.884-3.072-2.077-4.227-3.495
			c-1.156-1.418-2.034-3.062-2.567-4.848l-9.216-30.768l-9.216-30.768c-0.862-2.874-2.257-5.494-4.097-7.751
			s-4.125-4.152-6.767-5.576c-2.639-1.423-5.477-2.288-8.373-2.584c-2.896-0.295-5.85-0.02-8.719,0.84
			c-2.875,0.862-5.497,2.257-7.755,4.097c-2.258,1.84-4.153,4.124-5.576,6.764c-1.423,2.639-2.289,5.477-2.585,8.373
			c-0.296,2.896-0.021,5.85,0.838,8.723l9.216,30.769l9.216,30.769c1.115,3.72,0.617,7.539-1.09,10.706
			c-1.707,3.167-4.622,5.684-8.34,6.799l-30.767,9.216l-30.767,9.216c-2.875,0.861-5.497,2.255-7.755,4.095
			c-2.258,1.839-4.153,4.124-5.576,6.764c-1.423,2.641-2.289,5.479-2.585,8.375c-0.296,2.897-0.021,5.852,0.838,8.726
			c1.78,5.933,5.815,10.591,10.883,13.32c5.068,2.729,11.167,3.53,17.074,1.749l30.769-9.217l30.769-9.216
			c0.673-0.2,1.35-0.349,2.025-0.447C303.019,710.819,303.694,710.771,304.361,710.771z"/>
	</g>
	<g opacity="0.35">
		<g>
			<path fill="#2E4C59" d="M887.456,694.157l-33.902,10.155l-33.902,10.155c-10.071,3.017-20.411,1.666-28.987-2.957
				c-8.577-4.623-15.39-12.517-18.406-22.588l-0.911-3.042l-0.911-3.042c-3.017-10.071-1.666-20.411,2.957-28.987
				c4.623-8.577,12.517-15.39,22.588-18.406l33.902-10.155l33.902-10.155c10.071-3.017,20.411-1.666,28.987,2.957
				c8.577,4.623,15.39,12.517,18.406,22.588l0.911,3.042l0.911,3.042c3.017,10.071,1.666,20.411-2.957,28.987
				C905.422,684.328,897.527,691.141,887.456,694.157z"/>
			<path fill="#2E4C59" d="M810.241,729.577c-4.452,0.001-8.883-0.55-13.208-1.645c-4.325-1.095-8.545-2.733-12.574-4.905
				c-6.407-3.452-11.949-8.049-16.411-13.525c-4.462-5.476-7.844-11.833-9.931-18.804l-0.233-0.769l-0.233-0.769
				c-4.312-14.406-2.367-29.216,4.252-41.503c6.619-12.287,17.913-22.05,32.301-26.36l31.643-9.477l31.643-9.477
				c14.399-4.306,29.201-2.36,41.482,4.259c12.281,6.62,22.042,17.913,26.356,32.302l0.236,0.792l0.236,0.792
				c4.306,14.382,2.359,29.181-4.262,41.461c-6.621,12.281-17.915,22.044-32.302,26.355l0,0l0,0l-31.643,9.479l-31.643,9.479
				c-2.587,0.774-5.201,1.353-7.826,1.738C815.5,729.386,812.867,729.577,810.241,729.577z M873.114,628.171
				c-1.25,0-2.51,0.09-3.773,0.274c-1.263,0.184-2.527,0.462-3.785,0.838l-31.64,9.477l-31.64,9.477
				c-6.965,2.086-12.431,6.81-15.635,12.754s-4.146,13.108-2.062,20.072l0.233,0.769l0.233,0.769
				c1.013,3.388,2.651,6.47,4.811,9.123c2.16,2.653,4.842,4.877,7.942,6.547c3.098,1.671,6.432,2.691,9.834,3.039
				c3.402,0.348,6.872,0.025,10.242-0.99l31.643-9.479l31.643-9.479c6.965-2.086,12.431-6.81,15.635-12.754
				c3.204-5.944,4.146-13.107,2.062-20.07l-0.236-0.791l-0.236-0.791c-1.708-5.699-5.189-10.395-9.661-13.668
				C884.252,630.018,878.788,628.171,873.114,628.171z"/>
		</g>
		<g>
			<path fill="#2E4C59" d="M929.765,534.808l-33.902,10.155l-33.902,10.155c-10.071,3.017-20.411,1.666-28.987-2.957
				s-15.39-12.517-18.406-22.588l-0.911-3.042l-0.911-3.042c-3.017-10.071-1.666-20.411,2.957-28.987
				c4.623-8.577,12.517-15.39,22.588-18.406l33.902-10.155l33.902-10.155c10.071-3.017,20.411-1.666,28.987,2.957
				c8.577,4.623,15.39,12.517,18.406,22.588l0.911,3.042l0.911,3.042c3.017,10.071,1.666,20.411-2.957,28.987
				C947.731,524.978,939.836,531.791,929.765,534.808z"/>
			<path fill="#2E4C59" d="M852.55,570.227c-4.454,0.001-8.886-0.55-13.211-1.645s-8.545-2.733-12.577-4.905
				c-6.404-3.452-11.945-8.049-16.406-13.525c-4.461-5.476-7.843-11.833-9.931-18.804l-0.233-0.769l-0.233-0.769
				c-4.312-14.407-2.367-29.218,4.253-41.504c6.62-12.286,17.915-22.048,32.306-26.357l31.64-9.479l31.64-9.479
				c6.973-2.086,14.143-2.754,21.172-2.037c7.028,0.716,13.915,2.817,20.319,6.269c6.407,3.453,11.949,8.051,16.411,13.527
				c4.462,5.477,7.844,11.833,9.931,18.804l0.233,0.769l0.233,0.769c4.312,14.404,2.367,29.213-4.252,41.5
				c-6.619,12.286-17.913,22.049-32.301,26.361l0,0l0,0l-31.643,9.479l-31.643,9.479c-2.587,0.774-5.201,1.353-7.826,1.738
				C857.809,570.036,855.176,570.227,852.55,570.227z M915.473,468.81c-1.271,0-2.547,0.093-3.817,0.28s-2.535,0.468-3.784,0.843
				l-31.643,9.479l-31.643,9.479c-6.965,2.084-12.431,6.808-15.635,12.752c-3.204,5.944-4.146,13.107-2.062,20.072l0.233,0.769
				l0.233,0.769c1.013,3.388,2.652,6.47,4.811,9.123c2.16,2.653,4.842,4.877,7.942,6.547c3.101,1.674,6.435,2.692,9.836,3.039
				c3.402,0.347,6.872,0.022,10.244-0.99l31.64-9.479l31.64-9.479c6.965-2.086,12.431-6.81,15.635-12.754
				c3.204-5.944,4.146-13.107,2.062-20.07l-0.233-0.769l-0.233-0.769c-1.013-3.388-2.652-6.47-4.811-9.124
				c-2.16-2.654-4.842-4.878-7.942-6.549c-1.95-1.05-3.992-1.843-6.084-2.372S917.626,468.81,915.473,468.81z"/>
		</g>
	</g>
	<g>
		<g>
			<path fill="#ABE1ED" d="M880.87,672.17l-33.902,10.155l-33.902,10.155c-10.071,3.017-20.411,1.666-28.987-2.957
				c-8.577-4.623-15.39-12.517-18.406-22.588l-0.911-3.042l-0.911-3.042c-3.017-10.071-1.666-20.411,2.957-28.987
				c4.623-8.577,12.517-15.39,22.588-18.406l33.902-10.155l33.902-10.155c10.071-3.017,20.411-1.666,28.987,2.957
				c8.577,4.623,15.39,12.517,18.406,22.588l0.911,3.042l0.911,3.042c3.017,10.071,1.666,20.411-2.957,28.987
				C898.836,662.341,890.941,669.154,880.87,672.17z"/>
			<path fill="#2E4C59" d="M803.656,707.59c-4.454,0.001-8.886-0.55-13.211-1.645s-8.545-2.733-12.577-4.905
				c-6.404-3.452-11.945-8.049-16.406-13.525c-4.461-5.476-7.843-11.833-9.931-18.804l-0.233-0.769l-0.233-0.769
				c-4.312-14.406-2.367-29.216,4.252-41.503c6.619-12.287,17.913-22.05,32.301-26.36l31.643-9.479l31.643-9.479
				c6.973-2.086,14.143-2.754,21.172-2.037c7.028,0.717,13.915,2.818,20.319,6.272c6.407,3.453,11.949,8.05,16.411,13.526
				c4.462,5.476,7.844,11.832,9.931,18.803l0.233,0.773l0.233,0.773c4.312,14.401,2.367,29.209-4.252,41.495
				s-17.913,22.048-32.301,26.36l0,0l0,0l-31.643,9.479l-31.643,9.479c-2.587,0.774-5.201,1.353-7.826,1.738
				C808.915,707.399,806.281,707.59,803.656,707.59z M866.573,606.173c-1.272,0-2.546,0.093-3.815,0.279s-2.534,0.466-3.786,0.841
				l-31.64,9.479l-31.64,9.479c-6.965,2.086-12.431,6.81-15.635,12.754c-3.204,5.944-4.146,13.108-2.062,20.072l0.233,0.769
				l0.233,0.769c1.013,3.388,2.651,6.47,4.811,9.123c2.16,2.653,4.842,4.877,7.942,6.547c3.101,1.672,6.435,2.69,9.836,3.037
				c3.402,0.347,6.872,0.023,10.244-0.988l31.64-9.479l31.64-9.479c6.965-2.086,12.431-6.81,15.635-12.754s4.146-13.107,2.062-20.07
				l-0.233-0.773l-0.233-0.773c-1.013-3.383-2.652-6.464-4.812-9.117c-2.16-2.653-4.842-4.877-7.942-6.548
				c-1.95-1.05-3.992-1.843-6.085-2.372C870.873,606.44,868.729,606.173,866.573,606.173z"/>
		</g>
		<g>
			<path fill="#ABE1ED" d="M923.179,512.821l-33.902,10.155l-33.902,10.155c-10.071,3.017-20.411,1.666-28.987-2.957
				c-8.577-4.623-15.39-12.517-18.406-22.588l-0.911-3.042l-0.911-3.042c-3.017-10.071-1.666-20.411,2.957-28.987
				c4.623-8.577,12.517-15.39,22.588-18.406l33.902-10.155l33.902-10.155c10.071-3.017,20.411-1.666,28.987,2.957
				s15.39,12.517,18.406,22.588l0.911,3.042l0.911,3.042c3.017,10.071,1.666,20.411-2.957,28.987
				C941.144,502.991,933.25,509.804,923.179,512.821z"/>
			<path fill="#2E4C59" d="M846.064,548.221c-11.724,0.001-23.014-3.817-32.256-10.583c-9.243-6.766-16.438-16.481-19.972-28.274
				l-0.236-0.792l-0.236-0.792c-4.306-14.384-2.359-29.183,4.262-41.465c6.621-12.281,17.915-22.044,32.302-26.355l31.643-9.477
				l31.643-9.477c6.973-2.086,14.143-2.754,21.172-2.037c7.028,0.716,13.915,2.817,20.319,6.269
				c6.407,3.453,11.949,8.051,16.411,13.527c4.462,5.477,7.844,11.833,9.931,18.804l0.233,0.769l0.233,0.769
				c4.312,14.404,2.367,29.214-4.252,41.5c-6.619,12.286-17.913,22.049-32.301,26.361l0,0l0,0l-31.643,9.479l-31.643,9.479
				c-2.598,0.777-5.21,1.351-7.817,1.731S848.645,548.221,846.064,548.221z M908.887,446.823c-1.271,0-2.547,0.093-3.817,0.28
				c-1.27,0.187-2.535,0.468-3.784,0.843l-31.643,9.477L838,466.901c-6.965,2.086-12.431,6.81-15.635,12.754
				s-4.146,13.108-2.062,20.072l0.236,0.791l0.236,0.791c2.084,6.955,6.809,12.415,12.754,15.616
				c5.945,3.201,13.11,4.142,20.075,2.059l31.64-9.479l31.64-9.479c6.965-2.086,12.431-6.81,15.635-12.754s4.146-13.107,2.062-20.07
				l-0.233-0.769l-0.233-0.769c-1.013-3.388-2.652-6.47-4.811-9.124c-2.16-2.654-4.842-4.878-7.942-6.549
				c-1.95-1.05-3.992-1.843-6.084-2.372S911.04,446.823,908.887,446.823z"/>
		</g>
	</g>
</g>
</svg>
