<?xml version="1.0" encoding="utf-8"?>
<!-- Generator: Adobe Illustrator 19.1.1, SVG Export Plug-In . SVG Version: 6.00 Build 0)  -->
<svg version="1.1" id="Layer_1" xmlns="http://www.w3.org/2000/svg" xmlns:xlink="http://www.w3.org/1999/xlink" x="0px" y="0px"
	 viewBox="0 0 1200 1200" enable-background="new 0 0 1200 1200" xml:space="preserve">
<g>
	<g>
		<path fill="#9AA1A7" d="M800.231,1135.167h-325.48h-325.48c-17.315,0-32.991-7.018-44.339-18.366
			c-11.347-11.347-18.366-27.023-18.366-44.339V600V127.538c0-17.315,7.018-32.991,18.366-44.339s27.023-18.366,44.339-18.366
			h325.48h325.48c17.315,0,32.991,7.018,44.339,18.366c11.347,11.347,18.366,27.023,18.366,44.339V600v472.462
			c0,17.315-7.018,32.991-18.366,44.339C833.222,1128.148,817.546,1135.167,800.231,1135.167z"/>
		<path fill="#2E4C59" d="M819.425,1150H474.751H130.078c-16.085,0-30.671-6.543-41.235-17.108
			c-10.564-10.565-17.108-25.151-17.108-41.238V600V108.346c0-16.086,6.543-30.673,17.108-41.238S113.993,50,130.078,50h344.674
			h344.674c16.085,0,30.671,6.543,41.235,17.108c10.564,10.565,17.108,25.151,17.108,41.238V600v491.654
			c0,16.087-6.543,30.673-17.108,41.238C850.096,1143.457,835.51,1150,819.425,1150z M130.078,79.667
			c-7.906,0-15.075,3.217-20.268,8.41s-8.408,12.363-8.408,20.269V600v491.654c0,7.906,3.216,15.076,8.408,20.269
			s12.361,8.41,20.268,8.41h344.674h344.674c7.906,0,15.075-3.217,20.268-8.41c5.192-5.193,8.408-12.363,8.408-20.269V600V108.346
			c0-7.906-3.216-15.076-8.408-20.269c-5.192-5.193-12.361-8.41-20.268-8.41H474.751H130.078z"/>
	</g>
	<g opacity="0.35">
		<path fill="#2E4C59" d="M862.935,200.509V153.4v-47.11c0-11.448-4.64-21.812-12.142-29.314s-17.866-12.142-29.314-12.142H474.751
			H128.023c-11.448,0-21.812,4.64-29.314,12.142c-7.502,7.502-12.142,17.866-12.142,29.314v47.11v47.11h388.184H862.935z"/>
		<path fill="#2E4C59" d="M862.935,215.344H474.751H86.568c-4.097,0-7.805-1.66-10.489-4.344s-4.344-6.393-4.344-10.489V153.4
			v-47.111c0-15.519,6.313-29.591,16.505-39.783S112.505,50,128.023,50h346.728h346.728c15.519,0,29.591,6.313,39.783,16.505
			s16.505,24.265,16.505,39.783V153.4v47.111c0,4.097-1.66,7.805-4.344,10.489S867.031,215.344,862.935,215.344z M101.401,185.677
			h373.35h373.35v-39.694v-39.694c0-7.34-2.986-13.995-7.806-18.816c-4.821-4.821-11.476-7.806-18.816-7.806H474.751H128.023
			c-7.34,0-13.995,2.986-18.816,7.806c-4.821,4.821-7.806,11.476-7.806,18.816v39.694V185.677z"/>
	</g>
	<g>
		<path fill="#828B92" d="M154.406,1025.59V688.566V351.543c0-9.445,3.828-17.995,10.017-24.184
			c6.189-6.189,14.74-10.017,24.184-10.017h286.144h286.144c9.445,0,17.995,3.828,24.184,10.017
			c6.189,6.189,10.017,14.74,10.017,24.184v337.023v337.023c0,9.445-3.828,17.995-10.017,24.184
			c-6.189,6.189-14.74,10.017-24.184,10.017H474.751H188.607c-9.445,0-17.995-3.828-24.184-10.017
			C158.234,1043.585,154.406,1035.034,154.406,1025.59z"/>
		<path fill="#2E4C59" d="M771.364,1074.625H474.751H178.139c-10.633,0-20.274-4.325-27.258-11.309
			c-6.984-6.984-11.309-16.625-11.309-27.258V688.566V341.075c0-10.633,4.325-20.274,11.309-27.258
			c6.984-6.984,16.625-11.309,27.258-11.309h296.613h296.613c10.633,0,20.274,4.325,27.258,11.309
			c6.984,6.984,11.309,16.625,11.309,27.258v347.491v347.491c0,10.633-4.325,20.274-11.309,27.258
			C791.639,1070.299,781.997,1074.625,771.364,1074.625z M178.139,332.175c-2.454,0-4.679,0.998-6.29,2.61
			c-1.612,1.612-2.61,3.837-2.61,6.29v347.491v347.491c0,2.454,0.998,4.679,2.61,6.291s3.837,2.61,6.29,2.61h296.613h296.613
			c2.454,0,4.679-0.998,6.29-2.61c1.612-1.612,2.61-3.837,2.61-6.291V688.566V341.075c0-2.454-0.998-4.679-2.61-6.29
			c-1.612-1.612-3.837-2.61-6.29-2.61H474.751H178.139z"/>
	</g>
	<g>
		<path fill="#ABE1ED" d="M477.145,251.388h-2.394h-2.394c-7.925,0-15.1-3.212-20.293-8.406c-5.193-5.193-8.406-12.368-8.406-20.293
			v-27.833v-27.833c0-7.925,3.212-15.1,8.406-20.293c5.193-5.193,12.368-8.406,20.293-8.406h2.394h2.394
			c7.925,0,15.1,3.212,20.293,8.406c5.193,5.193,8.406,12.368,8.406,20.293v27.833v27.833c0,7.925-3.212,15.1-8.406,20.293
			C492.244,248.176,485.07,251.388,477.145,251.388z"/>
		<path fill="#2E4C59" d="M474.75,266.221c-12.662,0-24.143-5.15-32.459-13.466c-8.316-8.316-13.466-19.797-13.466-32.459v-25.439
			v-25.439c0-12.662,5.15-24.143,13.466-32.459c8.316-8.316,19.797-13.466,32.459-13.466c12.662,0,24.143,5.15,32.459,13.466
			c8.316,8.316,13.466,19.797,13.466,32.459v25.439v25.439c0,12.662-5.15,24.143-13.466,32.459
			C498.893,261.071,487.412,266.221,474.75,266.221z M474.75,153.159c-4.482,0-8.547,1.824-11.491,4.768
			c-2.944,2.944-4.768,7.009-4.768,11.491v25.439v25.439c0,4.482,1.824,8.547,4.768,11.491s7.009,4.768,11.491,4.768
			c4.482,0,8.547-1.824,11.491-4.768s4.768-7.009,4.768-11.491v-25.439v-25.439c0-4.482-1.824-8.547-4.768-11.491
			C483.297,154.983,479.232,153.159,474.75,153.159z"/>
	</g>
	<g opacity="0.35">
		<g>
			<path fill="#2E4C59" d="M843.507,1126.202c1.382-0.767,2.771-1.511,4.172-2.219c1.401-0.708,2.814-1.38,4.243-2.001
				c1.572-3.737,1.935-7.335,2.489-10.782c0.555-3.448,1.301-6.745,3.641-9.88c-0.688-11.093,0.118-22.19,1.027-33.292
				s1.92-22.207,1.643-33.316l-132.284-225.45l-132.284-225.45c-6.123-10.435-15.895-17.4-26.746-20.226
				c-10.851-2.826-22.779-1.512-33.214,4.61c-10.435,6.123-17.4,15.895-20.226,26.746s-1.512,22.779,4.611,33.214l147.285,251.015
				l147.285,251.015c4.614-1.002,9.244-1.851,13.95-2.522C833.804,1126.99,838.587,1126.495,843.507,1126.202z"/>
			<path fill="#2E4C59" d="M815.146,1145.017c-2.592,0-5.114-0.681-7.327-1.937c-2.212-1.256-4.114-3.088-5.464-5.39
				L655.069,886.676L507.783,635.661c-8.182-13.944-9.928-29.917-6.143-44.451c3.785-14.533,13.102-27.626,27.046-35.809
				c6.756-3.962,14.084-6.492,21.616-7.538c7.532-1.046,15.269-0.608,22.844,1.367c7.58,1.974,14.549,5.366,20.613,9.952
				c6.064,4.586,11.224,10.367,15.187,17.122l132.284,225.45l132.284,225.45c0.636,1.083,1.129,2.24,1.471,3.439
				c0.342,1.199,0.532,2.442,0.563,3.7c0.139,5.544-0.016,11.03-0.314,16.444s-0.739,10.755-1.172,16.007
				c-0.482,5.854-0.952,11.545-1.216,17.128c-0.265,5.583-0.325,11.058,0.011,16.479c0.109,1.753-0.096,3.497-0.59,5.154
				c-0.494,1.657-1.278,3.229-2.328,4.635c-0.238,0.319-0.433,0.987-0.61,1.844c-0.177,0.857-0.335,1.904-0.497,2.98
				c-0.265,1.748-0.563,3.71-1.05,5.844c-0.487,2.134-1.164,4.439-2.186,6.874c-0.74,1.759-1.806,3.341-3.124,4.675
				c-1.318,1.333-2.888,2.418-4.638,3.18c-1.057,0.459-2.152,0.973-3.325,1.564s-2.426,1.257-3.799,2.02
				c-0.972,0.539-1.998,0.965-3.059,1.274c-1.061,0.308-2.156,0.499-3.265,0.566c-4.263,0.253-8.529,0.68-12.857,1.288
				s-8.719,1.399-13.232,2.379c-0.526,0.115-1.052,0.199-1.578,0.255S815.669,1145.017,815.146,1145.017z M558.316,576.991
				c-2.545,0-5.072,0.338-7.526,1.007c-2.454,0.669-4.836,1.668-7.09,2.991c-6.889,4.043-11.493,10.512-13.364,17.694
				s-1.008,15.075,3.035,21.966l144.636,246.499l144.636,246.499c2.806-0.464,5.587-0.863,8.356-1.199
				c2.769-0.336,5.525-0.61,8.28-0.823c0.01-0.006,0.021-0.011,0.032-0.017c0.011-0.006,0.022-0.012,0.032-0.017
				c0.026-0.164,0.052-0.33,0.078-0.5c0.026-0.17,0.052-0.342,0.078-0.517c0.272-1.796,0.581-3.837,1.109-6.027
				c0.528-2.191,1.277-4.533,2.428-6.932c-0.172-5.683-0.03-11.301,0.267-16.847c0.297-5.546,0.748-11.019,1.193-16.412
				c0.365-4.42,0.721-8.732,0.987-12.975s0.443-8.416,0.45-12.558L714.646,815.069L583.359,591.317
				c-1.958-3.338-4.508-6.194-7.504-8.46c-2.996-2.266-6.44-3.942-10.186-4.919c-1.217-0.316-2.442-0.553-3.67-0.711
				S559.541,576.991,558.316,576.991z"/>
		</g>
		<g>
			<polyline fill="#2E4C59" points="509.492,522.687 522.843,545.441 536.194,568.195 			"/>
			<path fill="#2E4C59" d="M536.207,583.031c-2.545,0-5.057-0.655-7.278-1.899c-2.221-1.244-4.15-3.076-5.531-5.43l-13.35-22.754
				l-13.35-22.754c-2.073-3.533-2.518-7.572-1.561-11.245s3.315-6.982,6.848-9.055c3.535-2.071,7.574-2.515,11.247-1.559
				c3.674,0.957,6.981,3.314,9.053,6.846l13.35,22.754l13.35,22.754c2.073,3.533,2.518,7.572,1.561,11.245
				c-0.957,3.674-3.315,6.982-6.848,9.055c-1.179,0.692-2.415,1.203-3.674,1.541C538.766,582.867,537.482,583.031,536.207,583.031z"
				/>
		</g>
	</g>
	<g>
		<g>
			<path fill="#EAEEEF" d="M1037.481,988.717l-214.36-214.36l-214.36-214.36c-8.555-8.555-19.767-12.832-30.98-12.832
				c-11.212,0-22.425,4.277-30.98,12.832c-8.555,8.555-12.832,19.767-12.832,30.98c0,11.212,4.277,22.425,12.832,30.98
				l214.36,214.36l214.36,214.36c10.314-10.314,20.635-20.635,30.962-30.961C1016.81,1009.388,1027.143,999.055,1037.481,988.717z"
				/>
			<path fill="#2E4C59" d="M975.521,1065.51c-1.898,0-3.796-0.362-5.582-1.086c-1.786-0.724-3.459-1.811-4.906-3.259
				L750.673,846.803L536.312,632.442c-11.432-11.431-17.148-26.447-17.149-41.465c0-15.017,5.715-30.036,17.146-41.469
				c5.539-5.539,11.991-9.834,19.016-12.743c7.025-2.909,14.623-4.434,22.457-4.434c7.832,0,15.43,1.525,22.454,4.434
				c7.024,2.909,13.475,7.204,19.013,12.743l214.36,214.361l214.359,214.361c2.897,2.896,4.346,6.692,4.346,10.488
				c0,3.796-1.448,7.592-4.346,10.488l-30.979,30.979l-30.979,30.979c-1.447,1.449-3.12,2.535-4.906,3.259
				C979.317,1065.148,977.419,1065.51,975.521,1065.51z M577.779,562.01c-3.71,0-7.42,0.706-10.91,2.119
				c-3.489,1.412-6.757,3.531-9.582,6.356c-5.648,5.649-8.472,13.071-8.472,20.492s2.824,14.842,8.472,20.492l209.117,209.116
				l209.117,209.116l20.49-20.49l20.49-20.49L807.388,779.601L598.273,570.484c-2.825-2.825-6.093-4.943-9.582-6.356
				C585.201,562.716,581.49,562.01,577.779,562.01z"/>
		</g>
		<g>
			<path fill="#ABE1ED" d="M1051.472,1126.627l30.98-30.98l30.98-30.98l-37.975-37.975l-37.975-37.975
				c-10.338,10.338-20.671,20.671-30.998,30.998c-10.327,10.327-20.648,20.648-30.962,30.961l37.975,37.975L1051.472,1126.627z"/>
			<path fill="#2E4C59" d="M1051.47,1141.462L1051.47,1141.462L1051.47,1141.462c-1.967,0-3.894-0.39-5.676-1.129
				s-3.421-1.825-4.812-3.217l-37.974-37.976l-37.975-37.976c-2.897-2.896-4.346-6.692-4.346-10.488s1.449-7.592,4.346-10.488
				l30.979-30.979l30.979-30.979c2.894-2.897,6.691-4.346,10.488-4.346c3.797,0,7.593,1.449,10.488,4.346l37.976,37.975
				l37.976,37.975c1.392,1.391,2.479,3.029,3.217,4.811s1.129,3.709,1.129,5.676s-0.39,3.894-1.129,5.676s-1.825,3.421-3.217,4.812
				l-30.981,30.981l-30.981,30.981c-1.391,1.392-3.029,2.479-4.811,3.217S1053.438,1141.462,1051.47,1141.462z M996.5,1050.677
				l27.485,27.487l27.485,27.487l20.492-20.492l20.492-20.492l-27.487-27.485l-27.487-27.485l-20.49,20.49L996.5,1050.677z"/>
		</g>
		<path fill="#2E4C59" d="M546.799,574.829c-1.898,0-3.796-0.362-5.582-1.086c-1.786-0.724-3.46-1.811-4.909-3.259l-18.653-18.655
			l-18.653-18.655c-2.896-2.896-4.344-6.692-4.343-10.488c0-3.796,1.449-7.593,4.346-10.49c2.894-2.894,6.69-4.342,10.487-4.342
			c3.797,0,7.594,1.448,10.491,4.345l18.653,18.655l18.653,18.655c2.896,2.896,4.344,6.692,4.343,10.488
			c0,3.796-1.449,7.593-4.346,10.49c-1.447,1.447-3.12,2.533-4.906,3.257C550.595,574.467,548.697,574.829,546.799,574.829z"/>
		<g>
			<polygon fill="#8A9299" points="675.517,750.673 706.497,719.693 737.477,688.713 856.9,808.136 976.323,927.559 
				945.344,958.539 914.364,989.519 794.94,870.096 			"/>
			<path fill="#2E4C59" d="M914.362,1004.354c-1.967,0-3.894-0.39-5.676-1.129s-3.421-1.825-4.811-3.217L784.452,880.584
				L665.03,761.16c-2.897-2.896-4.346-6.692-4.346-10.488s1.449-7.592,4.346-10.488l30.979-30.979l30.979-30.979
				c2.894-2.897,6.691-4.346,10.488-4.346c3.797,0,7.594,1.449,10.488,4.346l119.424,119.422l119.424,119.422
				c1.392,1.391,2.479,3.029,3.217,4.811c0.738,1.782,1.129,3.709,1.129,5.676s-0.39,3.894-1.129,5.676
				c-0.738,1.782-1.825,3.421-3.217,4.811l-30.981,30.981l-30.981,30.981c-1.391,1.392-3.029,2.479-4.811,3.217
				C918.256,1003.964,916.329,1004.354,914.362,1004.354z M696.496,750.673l108.933,108.935l108.933,108.935l20.492-20.492
				l20.492-20.492L846.411,818.626L737.476,709.692l-20.49,20.49L696.496,750.673z"/>
		</g>
	</g>
</g>
</svg>
