<?xml version="1.0" encoding="utf-8"?>
<!-- Generator: Adobe Illustrator 19.1.1, SVG Export Plug-In . SVG Version: 6.00 Build 0)  -->
<svg version="1.1" id="Layer_1" xmlns="http://www.w3.org/2000/svg" xmlns:xlink="http://www.w3.org/1999/xlink" x="0px" y="0px"
	 viewBox="0 0 1200 1200" enable-background="new 0 0 1200 1200" xml:space="preserve">
<g>
	<path fill="#2E4C59" d="M607.521,1062.187c-4.177,0-7.958-1.693-10.695-4.43c-2.737-2.737-4.43-6.518-4.43-10.695V801.109V555.155
		c0-4.177,1.693-7.958,4.43-10.695s6.518-4.43,10.695-4.43s7.958,1.693,10.695,4.43s4.43,6.518,4.43,10.695v245.954v245.954
		c0,4.177-1.693,7.958-4.43,10.695C615.479,1060.494,611.698,1062.187,607.521,1062.187z"/>
	<g>
		<path fill="#FDE9A4" d="M610.827,1084.528h-3.306h-3.306c-10.946,0-20.857-4.437-28.03-11.61
			c-7.174-7.174-11.61-17.084-11.61-28.03v-4.133v-4.133c0-10.946,4.437-20.857,11.61-28.03c7.174-7.174,17.084-11.611,28.03-11.611
			h3.306h3.306c10.946,0,20.857,4.437,28.03,11.611s11.61,17.084,11.61,28.03v4.133v4.133c0,10.947-4.437,20.857-11.61,28.03
			S621.773,1084.528,610.827,1084.528z"/>
		<path fill="#2E4C59" d="M610.138,1099.652h-2.617h-2.617c-15.287,0-29.15-6.22-39.191-16.261
			c-10.041-10.042-16.261-23.906-16.261-39.194v-3.441v-3.441c0-15.29,6.22-29.154,16.261-39.197
			c10.041-10.042,23.904-16.262,39.191-16.262h2.617h2.617c15.287,0,29.15,6.22,39.191,16.262
			c10.041,10.042,16.261,23.907,16.261,39.197v3.441v3.441c0,15.288-6.22,29.152-16.261,39.194S625.425,1099.652,610.138,1099.652z
			 M604.904,1012.105c-6.948,0-13.249,2.827-17.813,7.392c-4.564,4.565-7.391,10.867-7.391,17.818v3.441v3.441
			c0,6.949,2.827,13.251,7.391,17.815c4.564,4.564,10.865,7.391,17.813,7.391h2.617h2.617c6.948,0,13.249-2.827,17.813-7.391
			c4.564-4.564,7.391-10.866,7.391-17.815v-3.441v-3.441c0-6.951-2.827-13.253-7.391-17.818c-4.564-4.565-10.865-7.392-17.813-7.392
			h-2.617H604.904z"/>
	</g>
	<g>
		<g>
			<path fill="#FDE9A4" d="M608.85,555.104c-58.246,0.942-111.127-7.393-149.537-21.63s-62.351-34.375-62.718-57.041
				s10.172-124.832,41.075-221.659S519.84,66.458,600.929,65.147c100.916-1.631,155.113,88.152,184.173,184.01
				c29.06,95.858,32.982,197.79,33.349,220.456c0.366,22.666-22.911,43.568-60.841,59.038
				C719.68,544.122,667.096,554.162,608.85,555.104z"/>
			<path fill="#2E4C59" d="M600.502,570.297c-53.512,0.002-108.02-8.031-149.275-23.75c-41.255-15.719-69.258-39.124-69.757-69.868
				c-0.216-13.385,2.529-45.875,9.179-87.088s17.206-91.146,32.614-139.415c20.702-64.867,46.389-114.603,76.236-148.273
				c29.846-33.67,63.851-51.275,101.187-51.877c45.586-0.772,85.543,15.696,118.987,48.466s60.374,81.842,79.905,146.276
				c15.588,51.423,24.038,104.534,28.616,146.308s5.284,72.213,5.384,78.293c0.508,31.568-28.216,56.339-70.766,73.44
				s-98.925,26.532-153.719,27.418l0,0l0,0c-1.427,0.024-2.858,0.041-4.291,0.053S601.935,570.297,600.502,570.297z M603.592,80.251
				c-0.402,0-0.803,0.001-1.207,0.004c-0.403,0.003-0.808,0.007-1.216,0.013c-38.189,0.617-68.998,25.137-93.492,59.63
				c-24.494,34.493-42.673,78.96-55.602,119.473c-15.653,49.052-25.816,98.705-32.029,138.37s-8.476,69.343-8.328,78.447
				c0.254,15.802,21.422,32.196,56.554,44.417c35.132,12.221,84.227,20.268,140.335,19.377
				c56.034-0.907,104.843-10.537,139.579-23.891c34.736-13.354,55.399-30.432,55.142-46.234c-0.095-5.862-0.774-35.215-5.178-75.464
				c-4.404-40.25-12.532-91.398-27.523-140.85c-17.432-57.502-40.195-100.826-68.098-129.773S641.583,80.251,603.592,80.251z"/>
		</g>
		<g opacity="0.2">
			<path fill="#2E4C59" d="M798.942,303.165c-12.107-56.488-31.65-116.477-63.146-162.101S660.85,64.178,600.929,65.147
				c-22.584,0.365-42.853,7.73-61.012,20.257c-18.159,12.527-34.21,30.216-48.359,51.229c34.69,5.56,68.677,13.962,101.566,25.86
				c32.889,11.898,64.681,27.293,94.978,46.839c20.182,13.454,39.703,28.005,58.273,43.645S782.565,285.349,798.942,303.165z"/>
			<path fill="#2E4C59" d="M798.945,318.29c-2.068,0-4.118-0.423-6.019-1.246s-3.653-2.045-5.124-3.643
				c-15.293-16.638-32.032-32.653-50.089-47.936s-37.434-29.835-58.003-43.549c-27.593-17.801-56.987-32.464-88.603-44.14
				c-31.617-11.675-65.456-20.362-101.941-26.21c-2.549-0.408-4.905-1.451-6.881-2.985c-1.975-1.533-3.571-3.557-4.599-5.925
				c-1.028-2.366-1.416-4.913-1.188-7.404c0.228-2.491,1.073-4.925,2.512-7.065c17.207-25.559,36.045-44.913,56.371-57.971
				c20.326-13.057,42.142-19.818,65.304-20.192c0.493-0.009,0.988-0.015,1.483-0.018c0.495-0.004,0.99-0.005,1.483-0.005
				c51.204,0,94.956,21.588,130.29,63.632c35.334,42.043,62.251,104.542,79.786,186.361c0.715,3.335,0.269,6.703-1.113,9.628
				c-1.382,2.926-3.699,5.409-6.727,6.976c-1.102,0.569-2.248,0.991-3.413,1.271C801.308,318.151,800.124,318.29,798.945,318.29z
				 M518.293,126.1c33.173,6.689,64.706,15.952,94.429,27.727c29.724,11.775,57.639,26.061,83.578,42.797
				c13.438,8.959,26.384,18.251,38.811,27.854s24.336,19.515,35.7,29.717c-13.364-44.199-32.401-87.685-59.487-120.121
				s-62.221-53.822-107.78-53.822c-0.396,0-0.79,0.001-1.185,0.004s-0.791,0.007-1.19,0.013
				c-15.021,0.244-29.482,4.214-43.317,11.867S530.809,111.125,518.293,126.1z"/>
		</g>
		<g>
			<path fill="#FFFFFF" d="M602.85,522.582c35.079,7.771,64.891-4.234,87.716-26.718s38.661-55.447,45.788-89.591
				c-17.993-5.165-38.282-9.196-60.197-11.836s-45.459-3.89-69.96-3.494c-20.709,0.335-40.695,1.824-59.56,4.299
				c-18.865,2.475-36.611,5.935-52.84,10.211c7.1,27.986,19.869,53.723,38.11,74.236
				C550.147,500.202,573.861,515.491,602.85,522.582z"/>
			<path fill="#2E4C59" d="M623.744,540.043c-3.979,0-7.988-0.223-12.018-0.671c-4.031-0.448-8.084-1.122-12.151-2.023
				c-0.053-0.012-0.106-0.024-0.16-0.037c-0.053-0.013-0.106-0.026-0.159-0.039c-29.685-7.261-55.473-22.564-75.96-44.413
				c-20.487-21.849-35.674-50.243-44.155-83.687c-1.022-4.022-0.328-8.079,1.625-11.395c1.953-3.316,5.166-5.891,9.18-6.949
				c17.367-4.576,36.079-8.161,55.594-10.686c19.516-2.525,39.835-3.988,60.415-4.321c24.542-0.38,48.428,0.798,71.057,3.472
				s44.001,6.842,63.515,12.444c3.808,1.093,6.871,3.562,8.78,6.726c1.909,3.164,2.664,7.025,1.854,10.9
				c-5.155,24.694-14.291,47.655-26.343,67.157s-27.018,35.546-43.832,46.406c-8.782,5.672-18.037,9.951-27.624,12.811
				C643.775,538.6,633.856,540.043,623.744,540.043z M606.28,507.85c10.463,2.295,20.601,2.577,30.341,0.852
				c9.74-1.724,19.082-5.455,27.953-11.182c11.958-7.725,22.799-18.951,31.922-32.683c9.123-13.732,16.527-29.968,21.611-47.713
				c-16.584-3.951-34.439-6.874-53.179-8.73c-18.74-1.856-38.365-2.646-58.487-2.33c-16.424,0.266-32.645,1.289-48.352,3.031
				c-15.707,1.741-30.901,4.201-45.272,7.338c8.159,23.858,20.597,44.024,36.459,59.57
				C565.137,491.548,584.424,502.474,606.28,507.85z"/>
		</g>
		<g>
			<path fill="#2E4C59" d="M818.451,469.613c-0.212-13.131-8.346-25.41-22.623-36.183c-14.276-10.774-34.694-20.043-59.475-27.156
				c-7.127,34.144-22.964,67.107-45.788,89.591s-52.637,34.489-87.716,26.718c-28.989-7.091-52.703-22.381-70.944-42.894
				c-18.241-20.513-31.01-46.25-38.11-74.236c-29.417,7.75-53.835,18.192-70.84,30.348c-17.005,12.156-26.597,26.026-26.361,40.633
				c0.366,22.666,24.307,42.804,62.718,57.041c38.411,14.237,91.291,22.571,149.537,21.629
				c58.246-0.942,110.83-10.981,148.76-26.452C795.54,513.181,818.818,492.279,818.451,469.613z"/>
			<path fill="#2E4C59" d="M599.911,570.3c-27.383,0-53.947-1.992-78.615-5.818c-24.668-3.827-47.44-9.488-67.241-16.827
				c-23.171-8.587-41.201-19.182-53.496-31.205c-12.295-12.023-18.856-25.473-19.089-39.77c-0.292-18.123,9.445-35.007,27.947-49.65
				c18.502-14.643,45.767-27.045,80.529-36.202c1.956-0.514,3.969-0.628,5.927-0.357s3.862,0.927,5.599,1.952
				c1.74,1.024,3.238,2.374,4.424,3.957s2.063,3.399,2.559,5.354c7.063,27.843,19.523,51.438,36.235,69.544
				s37.677,30.724,61.749,36.613c10.339,2.282,20.425,2.56,30.151,0.833c9.725-1.728,19.089-5.462,27.984-11.204
				c13.491-8.716,25.562-21.89,35.347-38.09s17.284-35.426,21.629-56.246c0.428-2.059,1.276-3.981,2.467-5.66
				c1.191-1.679,2.726-3.115,4.528-4.2c1.799-1.086,3.784-1.772,5.825-2.043s4.136-0.124,6.157,0.456
				c29.735,8.536,52.863,19.696,68.625,32.846c15.762,13.15,24.157,28.29,24.426,44.785l0,0l0,0
				c0.23,14.297-5.892,27.953-17.792,40.367s-29.578,23.588-52.46,32.921c-20.642,8.419-44.657,15.076-70.783,19.745
				c-26.126,4.67-54.363,7.352-83.451,7.821c-1.533,0.025-3.066,0.044-4.597,0.057S601.436,570.3,599.911,570.3z M483.495,424.146
				c-24.887,7.779-42.893,16.986-54.647,26.15c-11.753,9.164-17.254,18.285-17.129,25.893c0.118,7.407,5.116,15.139,14.192,22.542
				c9.075,7.402,22.228,14.475,38.655,20.563c19.186,7.11,41.543,12.5,65.931,16.003c24.387,3.503,50.805,5.12,78.112,4.684
				c1.312-0.022,2.623-0.048,3.933-0.079c1.31-0.031,2.619-0.066,3.924-0.107c-2.797-0.189-5.604-0.487-8.419-0.895
				c-2.815-0.408-5.639-0.925-8.472-1.551c-27.564-6.742-51.736-20.329-71.442-39.586S493.19,453.575,483.495,424.146z
				 M747.132,425.59c-6.109,21.182-15.175,40.69-26.449,57.317c-11.274,16.626-24.756,30.37-39.697,40.02
				c-6.041,3.902-12.306,7.145-18.75,9.72c-6.443,2.576-13.065,4.484-19.818,5.717c20.761-1.667,40.648-4.545,59.087-8.532
				c18.439-3.987,35.429-9.082,50.394-15.185c16.223-6.617,29.141-14.111,37.973-21.803c8.832-7.691,13.577-15.58,13.456-22.986
				c-0.124-7.674-5.583-15.692-15.306-23.316C778.3,438.919,764.313,431.689,747.132,425.59z"/>
		</g>
	</g>
	<g>
		<g>
			<path fill="#FDE9A4" d="M932.432,1040.79H607.521H282.609c-11.99,0-22.846,4.86-30.703,12.718s-12.718,18.713-12.718,30.703
				v3.622v3.622c0,11.99,4.86,22.846,12.718,30.703s18.713,12.718,30.703,12.718h324.911h324.911c11.99,0,22.846-4.86,30.703-12.718
				c7.858-7.858,12.718-18.713,12.718-30.703v-3.622v-3.622c0-11.99-4.86-22.846-12.718-30.703
				C955.278,1045.65,944.423,1040.79,932.432,1040.79z"/>
			<path fill="#2E4C59" d="M928.809,1150H607.521H286.233c-17.139,0-32.681-6.972-43.939-18.229
				c-11.258-11.257-18.231-26.799-18.231-43.938c0-17.141,6.973-32.683,18.231-43.94c11.258-11.257,26.8-18.229,43.939-18.229
				h321.288h321.288c17.139,0,32.681,6.972,43.939,18.229c11.258,11.257,18.231,26.8,18.231,43.94
				c0,17.139-6.973,32.681-18.231,43.938C961.49,1143.028,945.948,1150,928.809,1150z M286.233,1055.912
				c-8.8,0-16.78,3.58-22.56,9.36c-5.78,5.78-9.36,13.76-9.36,22.56s3.58,16.779,9.36,22.559c5.78,5.779,13.76,9.359,22.56,9.359
				h321.288h321.288c8.8,0,16.78-3.579,22.56-9.359c5.78-5.78,9.36-13.759,9.36-22.559s-3.58-16.78-9.36-22.56
				c-5.78-5.78-13.76-9.36-22.56-9.36H607.521H286.233z"/>
		</g>
		<g opacity="0.2">
			<path fill="#2E4C59" d="M247.119,1106.498c7.141,8.339,18.886,15.433,33.633,20.442c14.747,5.01,32.497,7.934,51.648,7.934
				h275.12h275.12c19.151,0,36.901-2.925,51.648-7.934c14.747-5.009,26.492-12.104,33.633-20.442H607.521H247.119z"/>
			<path fill="#2E4C59" d="M882.644,1150H607.521H332.398c-20.953,0-40.699-3.225-57.429-9.046
				c-16.731-5.82-30.446-14.236-39.338-24.618c-1.923-2.244-3.103-4.943-3.495-7.752s0.006-5.727,1.238-8.41
				c1.235-2.682,3.193-4.883,5.582-6.413c2.388-1.53,5.206-2.39,8.16-2.39h360.401h360.401c2.951,0,5.769,0.859,8.157,2.388
				s4.347,3.729,5.579,6.412c1.235,2.682,1.634,5.601,1.244,8.41c-0.39,2.809-1.569,5.508-3.489,7.752
				c-8.892,10.383-22.607,18.8-39.338,24.621C923.342,1146.775,903.596,1150,882.644,1150z"/>
		</g>
	</g>
	<g>
		<g>
			<path fill="#2E4C59" d="M863.791,694.722c-1.935,0-3.87-0.369-5.69-1.108c-1.82-0.739-3.526-1.846-5.003-3.323l-25.593-25.593
				l-25.593-25.593c-2.954-2.953-4.431-6.823-4.431-10.693c0-3.87,1.477-7.741,4.431-10.693c2.954-2.954,6.824-4.431,10.693-4.431
				c3.87,0,7.74,1.477,10.693,4.431l25.593,25.593l25.593,25.593c2.954,2.953,4.431,6.823,4.431,10.693
				c0,3.87-1.477,7.741-4.431,10.693c-1.477,1.477-3.183,2.585-5.003,3.323C867.661,694.353,865.726,694.722,863.791,694.722z"/>
		</g>
		<g>
			<path fill="#2E4C59" d="M975.854,438.449h-39.149h-39.149c-4.177,0-7.958-1.693-10.695-4.43s-4.43-6.518-4.43-10.695
				s1.693-7.958,4.43-10.695c2.737-2.737,6.518-4.43,10.695-4.43h39.149h39.149c4.177,0,7.958,1.693,10.695,4.43
				c2.737,2.737,4.43,6.518,4.43,10.695s-1.693,7.958-4.43,10.695S980.031,438.449,975.854,438.449z"/>
			<path fill="#2E4C59" d="M317.486,438.449h-46.67h-46.67c-4.177,0-7.958-1.693-10.695-4.43c-2.737-2.737-4.43-6.518-4.43-10.695
				s1.693-7.958,4.43-10.695c2.737-2.737,6.518-4.43,10.695-4.43h46.67h46.67c4.177,0,7.958,1.693,10.695,4.43
				c2.737,2.737,4.43,6.518,4.43,10.695s-1.693,7.958-4.43,10.695C325.444,436.756,321.663,438.449,317.486,438.449z"/>
		</g>
		<g>
			<path fill="#2E4C59" d="M341.638,704.335c-1.935,0-3.87-0.369-5.69-1.107c-1.82-0.738-3.526-1.845-5.003-3.321
				c-2.954-2.954-4.431-6.824-4.431-10.695c0-3.87,1.477-7.741,4.431-10.695l30.399-30.401l30.4-30.401
				c2.954-2.951,6.824-4.427,10.693-4.427s7.739,1.476,10.693,4.43c2.954,2.954,4.431,6.824,4.431,10.695
				c0,3.87-1.477,7.741-4.431,10.695l-30.4,30.398l-30.4,30.398c-1.477,1.477-3.183,2.585-5.003,3.323
				C345.508,703.965,343.573,704.335,341.638,704.335z"/>
		</g>
		<g>
			<path fill="#2E4C59" d="M607.521,855.295c-4.177,0-7.958-1.693-10.695-4.43c-2.737-2.737-4.43-6.518-4.43-10.695v-63.404v-63.404
				c0-4.177,1.693-7.958,4.43-10.695s6.518-4.43,10.695-4.43s7.958,1.693,10.695,4.43s4.43,6.518,4.43,10.695v63.404v63.404
				c0,4.177-1.693,7.958-4.43,10.695C615.479,853.603,611.698,855.295,607.521,855.295z"/>
		</g>
		<g>
			<path fill="#2E4C59" d="M732.096,742.949c-2.981,0-5.881-0.885-8.337-2.503s-4.466-3.966-5.665-6.894l-7.379-18.031
				l-7.379-18.031c-1.58-3.865-1.444-8.006,0.053-11.576c1.498-3.57,4.357-6.568,8.224-8.148c3.864-1.576,8.004-1.441,11.574,0.055
				c3.57,1.496,6.57,4.352,8.153,8.219l7.373,18.025l7.373,18.025c1.583,3.865,1.449,8.006-0.047,11.576
				c-1.496,3.57-4.354,6.569-8.218,8.151c-0.936,0.384-1.891,0.667-2.849,0.854C734.014,742.858,733.051,742.949,732.096,742.949z"
				/>
		</g>
		<g>
			<path fill="#2E4C59" d="M921.53,570.135c-0.975,0-1.958-0.095-2.937-0.289c-0.979-0.195-1.952-0.49-2.906-0.892l-23.272-9.76
				l-23.272-9.76c-3.852-1.614-6.685-4.638-8.151-8.22c-1.466-3.582-1.565-7.724,0.051-11.574c1.616-3.853,4.642-6.689,8.226-8.155
				s7.725-1.564,11.572,0.058l23.272,9.76l23.271,9.76c3.852,1.614,6.685,4.638,8.151,8.22s1.565,7.724-0.051,11.574
				c-1.214,2.896-3.226,5.216-5.672,6.812C927.366,569.263,924.484,570.135,921.53,570.135z"/>
		</g>
		<g>
			<path fill="#2E4C59" d="M295.987,565.902c-2.981,0-5.883-0.886-8.339-2.504c-2.456-1.618-4.466-3.968-5.663-6.895
				c-1.583-3.867-1.449-8.008,0.048-11.577c1.497-3.57,4.356-6.568,8.223-8.15l21.549-8.815l21.549-8.815
				c3.858-1.576,7.998-1.441,11.569,0.055c3.571,1.496,6.574,4.352,8.157,8.219c1.58,3.865,1.445,8.006-0.053,11.576
				c-1.498,3.57-4.357,6.568-8.224,8.148l-21.549,8.815l-21.549,8.815c-0.936,0.383-1.889,0.665-2.846,0.851
				C297.903,565.811,296.941,565.902,295.987,565.902z"/>
		</g>
		<g>
			<path fill="#2E4C59" d="M475.07,754.284c-0.975,0-1.957-0.094-2.935-0.289c-0.978-0.195-1.951-0.489-2.908-0.889
				c-3.852-1.616-6.685-4.639-8.151-8.222c-1.466-3.582-1.565-7.724,0.051-11.576l10.141-24.18l10.141-24.18
				c1.613-3.854,4.635-6.686,8.217-8.152c3.582-1.466,7.725-1.564,11.58,0.052c3.852,1.616,6.685,4.639,8.151,8.222
				s1.565,7.724-0.051,11.576l-10.141,24.18l-10.141,24.18c-1.214,2.896-3.226,5.216-5.672,6.812
				C480.905,753.412,478.024,754.284,475.07,754.284z"/>
		</g>
	</g>
</g>
</svg>
